{"glyphs":{"0":{"ha":1012,"x_min":6,"x_max":994,"o":"m 249 -16 q 72 59 137 -16 q 6 251 6 134 q 86 543 6 384 q 326 807 167 701 q 610 913 484 913 q 813 849 705 913 q 958 711 922 784 q 994 527 994 639 q 762 166 994 348 q 249 -16 530 -16 m 711 741 q 661 729 692 729 q 629 744 652 729 q 598 758 606 758 q 483 733 528 758 q 365 639 438 709 q 238 477 292 569 q 184 285 184 385 q 194 210 184 245 q 216 164 203 174 q 261 142 229 153 q 330 131 292 131 q 527 199 404 131 q 741 359 650 268 q 832 507 832 451 q 821 585 832 538 q 801 646 810 631 q 759 694 791 661 q 711 741 727 728 z "},"1":{"ha":1012,"x_min":103,"x_max":961,"o":"m 612 90 l 614 64 q 500 10 618 10 q 455 43 477 10 q 449 49 451 49 q 342 18 436 49 q 313 10 322 12 q 195 -15 235 -15 q 129 9 154 -15 q 103 57 103 33 q 142 111 103 90 q 286 151 182 132 q 429 186 396 172 q 435 257 433 221 q 505 732 441 374 q 391 668 500 731 q 207 610 292 610 q 151 658 151 610 q 170 704 151 688 q 239 741 189 720 q 395 819 300 765 l 496 877 q 615 936 589 936 q 672 900 652 936 q 692 838 692 864 q 671 793 692 816 q 607 460 623 585 q 592 216 592 336 q 768 256 629 220 q 937 277 850 277 q 961 213 961 229 q 950 176 961 189 q 897 148 939 162 q 755 121 855 134 q 612 90 651 105 z "},"2":{"ha":1012,"x_min":35,"x_max":1001,"o":"m 365 161 q 614 180 445 180 q 722 171 646 180 q 822 161 798 161 q 874 174 845 161 q 935 187 903 187 q 979 164 958 187 q 1001 123 1001 140 q 942 41 1001 68 q 828 14 884 14 q 729 22 757 14 q 476 49 633 49 q 338 37 401 49 q 246 11 275 25 q 191 -33 217 -3 q 111 -68 161 -68 q 35 -3 35 -68 q 74 104 35 54 q 229 222 113 155 q 469 382 383 311 q 610 533 555 453 q 664 655 664 612 q 626 740 664 705 q 528 776 587 776 q 429 733 502 776 q 310 636 356 690 q 212 600 279 600 q 166 633 186 600 q 145 692 145 667 q 198 756 145 722 q 238 783 215 767 q 415 892 351 865 q 581 920 478 920 q 755 841 672 920 q 839 674 839 761 q 706 410 839 558 q 365 161 572 261 z "},"3":{"ha":1012,"x_min":79,"x_max":919,"o":"m 336 398 q 254 446 254 398 q 273 502 254 472 q 414 626 292 532 q 635 772 535 720 q 446 741 621 772 q 254 711 276 711 q 117 833 117 711 q 137 877 117 861 q 189 893 158 893 q 254 873 211 893 q 308 859 281 859 q 406 866 340 859 q 698 888 574 882 q 808 876 775 891 q 842 818 842 861 q 810 748 842 781 q 650 646 779 716 q 524 564 545 589 q 572 569 538 565 q 627 573 609 573 q 843 519 767 573 q 919 366 919 465 q 728 103 919 213 q 331 -7 538 -7 q 150 18 221 -7 q 79 114 79 42 q 169 196 79 196 q 197 188 181 196 q 359 140 294 140 q 628 196 503 140 q 753 349 753 253 q 698 425 753 403 q 539 446 642 446 q 336 398 422 446 z "},"4":{"ha":1012,"x_min":39,"x_max":995,"o":"m 887 315 q 735 338 822 338 l 704 338 q 688 218 691 286 l 687 191 q 689 94 686 153 q 723 38 723 56 q 694 -21 723 7 q 635 -49 665 -49 q 556 -26 587 -49 q 524 66 524 -3 q 529 149 524 90 l 535 228 q 547 332 538 288 q 313 310 404 332 q 136 283 208 283 q 39 344 91 283 q 326 640 64 421 l 606 871 q 638 895 618 879 q 754 965 728 965 q 833 917 833 965 l 796 784 q 738 531 758 666 q 727 467 732 496 l 852 463 q 967 439 939 463 q 995 363 995 416 q 975 323 995 341 q 930 305 956 305 q 887 315 904 305 m 635 736 q 591 702 614 720 q 460 593 494 629 q 264 429 416 545 q 426 451 317 435 q 574 470 539 468 q 604 602 576 488 l 635 736 z "},"5":{"ha":1012,"x_min":85,"x_max":1078,"o":"m 481 722 q 377 585 441 683 q 541 554 394 574 q 771 478 696 533 q 847 297 847 422 q 707 90 847 195 q 376 -15 566 -15 q 174 31 262 -15 q 85 120 85 77 q 190 202 85 202 q 252 175 217 202 q 394 135 320 135 q 576 186 475 135 q 677 288 677 237 q 624 387 677 350 q 385 435 570 423 q 234 476 277 441 q 191 536 191 512 q 219 597 191 563 q 276 679 237 623 q 415 849 381 835 q 558 868 448 863 q 747 873 667 873 q 895 892 830 873 q 961 905 940 905 q 1037 885 996 905 q 1078 838 1078 865 q 1049 781 1078 817 q 971 737 1020 745 q 846 729 922 729 q 753 732 838 729 q 629 736 667 736 q 481 722 527 736 z "},"6":{"ha":1012,"x_min":97,"x_max":937,"o":"m 302 185 q 331 325 305 273 q 400 424 356 376 q 514 497 445 472 q 716 522 583 522 q 869 464 801 522 q 937 326 937 406 q 897 221 937 277 q 761 103 857 165 q 604 21 664 41 q 412 1 545 1 q 180 89 263 1 q 97 246 97 176 q 122 417 97 341 q 207 578 148 492 q 368 763 267 663 q 517 886 470 863 q 607 909 565 909 q 668 887 642 909 q 694 836 694 865 q 631 765 694 776 q 533 724 583 758 q 441 644 483 691 q 352 536 399 597 q 280 405 304 476 q 256 275 256 334 q 294 192 256 216 q 302 185 299 189 m 795 340 q 651 387 760 387 q 431 143 450 387 q 496 140 477 140 q 685 213 581 140 q 795 340 788 287 z "},"7":{"ha":1012,"x_min":113,"x_max":930,"o":"m 717 759 q 177 737 230 737 q 132 759 151 737 q 113 807 113 781 q 139 860 113 833 q 192 886 164 886 q 387 878 210 886 q 469 875 446 875 q 752 890 621 875 q 865 897 813 897 q 930 838 930 897 q 926 811 930 824 q 852 718 922 798 q 714 525 804 663 q 564 254 625 387 l 561 247 q 514 138 525 172 q 503 69 503 104 q 479 7 503 33 q 416 -19 456 -19 q 353 15 378 -19 q 328 87 328 49 q 456 375 328 136 q 717 759 584 614 z "},"8":{"ha":1012,"x_min":175,"x_max":863,"o":"m 735 515 q 650 458 685 482 l 630 444 q 621 437 622 439 q 755 335 697 402 q 814 214 814 267 q 789 99 814 145 q 649 19 764 54 q 452 -15 533 -15 q 311 7 399 -15 q 199 69 222 30 q 175 158 175 108 q 236 288 175 222 q 365 391 296 353 q 396 412 380 399 q 271 488 300 463 q 217 558 242 513 q 191 628 191 604 q 344 812 191 728 q 424 857 385 834 q 577 895 488 895 q 665 869 607 895 q 742 823 722 843 q 771 754 761 804 l 772 734 l 778 740 q 789 751 783 745 l 804 768 q 863 685 863 753 q 822 608 863 661 q 735 515 780 555 m 417 559 q 440 545 427 554 q 517 494 499 504 q 643 609 618 578 q 667 661 667 640 q 634 730 667 702 q 559 758 602 758 q 471 730 532 758 q 383 673 410 701 q 357 637 357 645 q 417 559 357 602 m 659 209 q 615 284 659 239 q 516 357 572 329 q 392 249 444 306 q 340 157 340 193 q 369 129 340 139 q 418 118 397 118 q 522 125 462 118 q 598 138 582 132 q 654 174 614 144 q 659 195 659 180 l 659 209 z "},"9":{"ha":1012,"x_min":167,"x_max":891,"o":"m 891 737 q 873 673 891 715 q 764 340 816 535 q 713 97 713 146 q 643 -20 713 -20 q 566 30 584 -20 q 547 108 547 79 q 585 253 547 137 l 637 417 q 484 347 548 366 q 340 328 420 328 q 220 382 274 328 q 167 507 167 435 q 198 629 167 570 q 304 751 230 689 q 412 834 379 812 q 534 880 444 856 q 663 904 624 904 q 740 890 709 904 q 805 845 770 876 l 860 797 q 890 741 881 779 l 891 737 m 724 723 q 640 760 705 760 q 503 729 562 760 q 386 633 444 699 q 328 527 328 568 q 349 471 328 493 q 401 450 369 450 q 562 504 454 450 q 684 601 669 557 l 724 723 z "}," ":{"ha":555,"x_min":0,"x_max":0,"o":""},"!":{"ha":448,"x_min":75,"x_max":380,"o":"m 245 325 q 140 353 178 325 q 159 625 130 485 q 193 851 193 776 q 200 908 193 859 q 243 983 207 957 q 304 1008 279 1008 q 356 988 331 1008 q 380 945 380 968 q 353 804 380 926 q 298 580 326 682 q 269 410 270 473 q 245 325 267 361 m 149 13 q 75 96 75 13 q 105 168 75 127 q 171 208 136 208 q 229 186 194 208 q 263 148 263 163 l 256 106 q 212 37 250 61 q 149 13 174 13 z "},"\"":{"ha":558,"x_min":70,"x_max":537,"o":"m 140 524 q 86 552 102 524 q 70 611 70 580 q 76 650 70 628 q 102 780 91 707 q 127 921 103 790 l 132 943 q 199 1011 142 1011 q 247 987 226 1011 q 269 939 269 963 q 239 763 269 846 q 227 714 227 730 q 202 561 218 597 q 140 524 186 524 m 396 513 q 323 600 323 513 q 347 727 323 640 q 372 819 368 799 q 409 987 393 962 q 463 1011 424 1011 q 515 990 493 1011 q 537 947 537 969 q 520 861 537 941 l 502 776 q 491 709 495 741 q 455 540 471 567 q 396 513 439 513 z "},"#":{"ha":1104,"x_min":22,"x_max":1065,"o":"m 755 578 q 720 453 745 540 q 710 419 713 433 q 886 454 874 454 q 983 423 968 454 q 998 366 998 392 q 976 327 998 344 q 923 309 953 309 q 890 319 913 309 q 859 328 866 328 q 774 317 827 328 q 679 306 722 306 q 656 240 665 266 q 646 197 646 214 l 648 161 q 628 102 648 128 q 575 76 607 76 q 531 105 551 76 q 512 157 512 134 q 532 264 512 219 q 536 279 536 274 l 389 258 q 273 58 329 58 q 234 73 249 58 q 218 107 218 87 q 254 256 218 180 l 234 257 l 136 254 q 22 310 22 254 q 62 360 22 336 q 136 385 101 385 q 221 381 160 385 q 291 376 281 376 q 310 448 303 410 q 332 525 323 502 q 241 511 309 523 q 144 501 180 501 q 39 554 39 501 q 168 623 39 606 q 233 633 202 627 q 351 650 314 648 q 416 772 381 679 q 461 856 439 833 q 522 879 484 879 q 566 830 566 879 q 516 687 566 788 q 506 663 509 673 q 664 683 524 666 q 686 776 671 705 q 736 970 724 956 q 799 1003 760 1003 q 842 985 826 1003 q 859 943 859 967 q 825 828 859 918 q 808 774 813 798 q 797 738 805 759 q 785 698 790 711 q 973 716 905 716 q 1049 701 1034 716 q 1065 653 1065 686 q 1053 617 1065 635 q 1021 599 1040 599 q 755 578 834 599 m 611 511 q 625 563 621 541 q 462 539 511 552 q 416 388 434 471 q 461 391 444 390 q 578 412 547 394 l 611 511 z "},"$":{"ha":760,"x_min":5,"x_max":713,"o":"m 509 721 l 502 659 q 488 530 488 553 q 581 477 511 511 q 634 427 619 456 q 650 349 650 397 q 454 178 650 240 l 437 -18 q 444 -71 437 -30 q 451 -119 451 -111 q 428 -150 451 -136 q 381 -163 406 -163 q 299 -77 299 -163 l 312 119 q 279 113 296 115 q 245 108 262 111 q 101 77 144 77 q 35 93 64 77 q 5 130 5 109 q 48 207 5 184 q 214 241 92 230 q 323 271 323 250 q 343 472 343 433 q 273 502 305 490 q 175 547 200 528 q 127 598 151 566 q 104 673 104 629 q 186 763 104 716 q 376 826 268 809 q 378 858 378 840 l 378 1002 q 415 1049 378 1032 q 467 1063 436 1063 q 536 971 536 1063 q 521 867 536 954 q 517 848 517 850 l 545 848 q 603 855 578 848 q 644 861 621 861 q 713 790 713 861 q 682 732 713 743 q 509 721 650 721 m 365 696 q 268 654 292 679 q 312 625 273 647 q 356 603 351 603 l 365 696 m 475 406 q 465 315 467 345 q 498 335 472 322 q 517 353 517 345 q 516 359 517 355 q 512 366 515 363 q 505 376 510 370 q 497 385 501 380 q 488 394 493 389 q 480 401 484 397 l 476 405 l 475 406 z "},"%":{"ha":1011,"x_min":75,"x_max":950,"o":"m 756 785 q 629 582 711 702 l 630 583 q 574 494 626 574 q 415 205 480 353 q 353 73 380 127 q 288 24 317 24 q 228 89 228 24 q 281 252 228 121 q 418 499 335 383 q 600 785 431 515 q 526 800 533 800 q 464 799 519 799 q 469 753 469 775 q 430 627 469 694 q 325 525 390 560 q 206 490 259 490 q 109 532 144 490 q 75 648 75 574 q 106 762 75 676 q 209 900 137 848 q 366 952 281 952 q 441 916 404 952 q 779 887 510 907 q 799 845 799 861 q 756 785 799 810 m 324 812 l 312 812 q 234 754 267 812 q 200 652 200 696 q 216 618 200 632 q 261 606 240 606 q 313 647 286 606 q 340 727 340 688 q 324 812 340 751 m 950 260 q 939 191 950 228 q 897 130 928 155 q 829 80 867 105 q 755 47 791 56 q 677 39 719 39 q 562 90 589 39 q 534 182 534 141 q 594 342 534 258 q 718 427 654 427 q 880 381 810 427 q 950 260 950 334 m 739 312 q 693 265 713 312 q 681 161 673 218 l 691 161 l 729 159 q 803 203 741 159 q 817 254 817 224 q 762 298 817 275 q 739 312 749 304 z "},"&":{"ha":1217,"x_min":114,"x_max":1177,"o":"m 833 171 q 978 121 904 121 q 1042 135 1004 121 q 1057 137 1048 137 q 1097 83 1097 137 q 1057 11 1097 52 q 956 -31 1017 -31 q 705 60 826 -31 q 385 -48 555 -48 q 189 22 264 -48 q 114 205 114 92 q 336 526 114 386 q 351 550 351 536 q 345 576 351 559 q 312 746 312 666 q 382 941 312 864 q 560 1019 452 1019 q 700 954 648 1019 q 752 804 752 888 q 574 526 752 663 q 552 493 552 510 q 624 365 552 458 q 732 245 696 272 q 836 414 814 332 l 811 416 q 728 443 749 421 q 707 503 707 465 q 728 549 707 528 q 771 570 750 570 q 836 555 788 570 q 941 541 884 541 q 1050 547 994 541 q 1124 554 1105 554 q 1177 511 1177 554 q 1069 424 1177 432 q 1015 414 1029 420 q 991 389 1001 408 q 833 171 919 251 m 494 617 q 604 800 604 705 q 587 862 604 836 q 545 888 570 888 q 490 850 514 888 q 466 762 466 813 q 494 617 466 686 m 604 153 q 413 414 496 262 q 285 212 285 326 q 324 125 285 156 q 432 94 363 94 q 604 153 519 94 z "},"'":{"ha":318,"x_min":66,"x_max":286,"o":"m 87 757 q 134 917 98 831 q 219 1002 170 1002 q 269 981 251 1002 q 286 932 286 961 q 270 875 286 913 q 248 811 258 850 q 235 769 243 797 q 214 635 214 700 q 196 522 214 546 q 142 497 177 497 q 88 530 109 497 q 66 601 66 562 q 87 757 66 648 z "},"(":{"ha":555,"x_min":30,"x_max":557,"o":"m 177 274 q 184 227 177 252 q 193 170 190 203 l 193 171 l 208 90 q 263 -69 229 -5 q 353 -178 298 -132 q 431 -287 431 -245 q 406 -329 431 -313 q 341 -345 380 -345 q 275 -318 315 -345 q 175 -213 235 -291 q 95 -83 115 -136 q 52 92 74 -30 q 30 296 30 214 q 38 443 30 396 q 74 563 46 490 q 157 744 101 635 q 224 866 213 852 q 309 946 236 880 l 366 1000 q 432 1050 404 1036 q 503 1063 460 1063 q 557 1010 557 1063 q 511 944 557 987 q 368 798 431 868 q 238 589 306 727 q 171 336 171 450 q 177 274 171 318 z "},")":{"ha":503,"x_min":-8,"x_max":444,"o":"m 138 -345 q 79 -324 104 -345 q 54 -281 54 -304 q 137 -146 54 -250 q 245 56 192 -81 q 298 226 298 193 q 280 444 298 340 q 213 664 262 547 q 130 837 163 782 q 8 973 96 892 q -8 1014 -8 989 q 19 1054 -8 1031 q 75 1076 45 1076 q 237 931 140 1076 q 355 717 335 787 q 372 666 362 693 q 429 464 414 541 q 444 275 444 388 q 400 35 444 148 q 302 -152 357 -78 q 233 -250 243 -229 q 185 -326 205 -307 q 138 -345 165 -345 z "},"*":{"ha":711,"x_min":11,"x_max":701,"o":"m 656 723 l 658 723 q 483 709 650 720 q 446 705 447 707 l 535 599 q 578 526 578 547 q 559 481 578 501 q 514 462 541 462 q 440 517 475 462 q 360 621 401 559 q 336 646 351 633 q 334 643 335 644 l 331 639 q 281 540 318 610 q 223 450 243 470 q 185 429 203 429 q 138 452 166 429 q 111 500 111 475 q 149 566 111 508 q 226 673 186 624 q 132 661 178 673 q 52 642 65 642 q 22 662 34 642 q 11 695 11 682 q 60 749 11 730 q 149 768 110 768 q 247 773 218 768 q 222 804 242 780 l 204 824 q 153 922 153 892 q 169 952 153 936 q 200 968 184 968 q 339 846 248 968 q 452 982 401 913 q 505 1011 473 1011 q 553 997 533 1011 q 572 960 572 982 q 543 917 572 942 q 530 903 536 910 q 460 810 494 838 q 506 816 481 814 q 556 825 531 817 q 644 835 608 835 q 687 808 673 835 q 701 766 701 781 q 656 723 701 733 z "},"+":{"ha":790,"x_min":50,"x_max":745,"o":"m 739 337 q 659 312 720 312 q 600 317 646 312 q 538 321 554 321 l 417 321 q 409 251 409 290 q 406 112 409 125 q 403 89 403 102 q 391 65 403 76 q 342 54 379 54 q 286 68 300 54 q 271 122 271 82 l 292 322 q 179 322 205 327 l 121 312 q 71 332 92 312 q 50 376 50 351 q 66 416 50 395 q 106 437 83 437 q 181 430 127 437 l 279 435 l 302 435 q 304 466 304 450 q 298 576 304 494 q 296 621 296 606 q 370 732 296 732 q 414 704 396 732 q 431 658 431 676 q 426 566 431 628 q 420 490 420 503 l 420 456 q 421 439 420 450 l 444 439 l 623 441 q 718 425 691 441 q 745 349 745 408 l 739 337 z "},",":{"ha":472,"x_min":77,"x_max":431,"o":"m 93 -87 q 182 -54 124 -82 q 256 18 240 -26 q 272 64 272 62 q 258 142 272 122 q 245 177 245 161 q 260 219 245 196 q 298 243 275 243 q 358 227 321 243 q 402 200 396 212 q 419 148 408 188 q 431 77 431 107 q 402 -1 431 64 q 329 -98 374 -65 q 239 -140 283 -132 q 225 -142 230 -141 q 122 -170 149 -170 q 77 -121 77 -170 q 93 -87 77 -103 z "},"-":{"ha":888,"x_min":134,"x_max":766,"o":"m 351 463 q 576 471 508 463 q 636 475 604 475 q 699 458 652 475 q 756 423 747 441 q 766 389 766 404 q 687 326 766 326 q 620 340 678 326 q 604 342 608 342 l 542 338 q 438 345 528 338 q 269 340 410 347 q 162 349 189 336 q 134 396 134 361 q 183 451 134 433 q 302 470 233 470 q 351 463 318 470 z "},".":{"ha":346,"x_min":64,"x_max":271,"o":"m 144 18 q 84 34 103 18 q 64 117 64 50 q 68 175 64 155 q 101 207 71 195 q 186 218 130 218 q 249 199 227 218 q 271 157 271 180 q 259 98 271 119 q 207 48 247 78 q 144 18 168 18 z "},"/":{"ha":796,"x_min":-27,"x_max":796,"o":"m 267 216 q 184 76 241 180 q 111 -36 153 18 q 49 -90 68 -90 q -3 -66 21 -90 q -27 -20 -27 -41 q 58 158 -27 19 q 232 417 144 297 q 363 613 250 438 q 376 633 373 629 q 484 800 404 673 q 636 1017 587 960 q 718 1074 686 1074 q 770 1044 743 1074 q 796 994 796 1015 q 748 900 796 978 q 652 761 699 821 q 559 637 605 701 l 267 216 z "},":":{"ha":411,"x_min":104,"x_max":326,"o":"m 326 598 q 287 528 326 561 q 195 496 249 496 q 138 537 163 496 l 138 536 q 116 597 116 572 q 133 640 116 610 q 170 684 151 669 l 169 683 q 227 698 189 698 q 273 680 240 698 q 280 675 279 675 q 320 641 314 650 q 326 604 326 631 l 326 598 m 193 13 q 125 33 146 13 q 104 131 104 52 q 113 179 104 163 q 150 211 122 194 q 198 227 177 227 q 276 208 243 227 q 309 155 309 188 q 262 54 309 94 q 193 13 215 13 z "},";":{"ha":456,"x_min":-18,"x_max":343,"o":"m 191 690 l 191 690 q 227 699 205 699 q 275 682 238 699 l 275 682 q 333 643 322 664 q 343 598 343 622 q 301 535 343 564 q 212 507 260 507 q 163 535 184 507 q 142 591 142 564 q 158 643 142 608 q 191 690 175 679 m -5 -79 q 79 -50 25 -72 q 155 16 134 -28 q 176 69 176 60 q 164 154 176 136 q 151 189 151 172 q 168 233 151 212 q 210 255 185 255 q 264 245 240 255 q 296 224 288 235 q 316 165 304 214 q 329 86 329 117 q 302 8 329 70 q 240 -77 275 -54 q 137 -130 204 -99 q 25 -161 71 -161 q -18 -115 -18 -161 q -5 -79 -18 -98 z "},"<":{"ha":742,"x_min":61,"x_max":678,"o":"m 249 443 q 290 422 269 431 q 348 389 323 406 q 385 365 374 370 q 563 288 396 360 q 659 236 640 253 q 678 186 678 220 q 652 135 678 161 q 596 109 626 109 q 541 134 585 109 q 326 240 414 205 q 159 331 258 267 q 61 422 61 395 q 85 481 61 452 q 155 546 110 509 q 231 616 195 578 q 391 754 291 680 q 496 840 484 824 q 573 883 529 883 q 623 866 602 883 q 645 823 645 850 q 385 569 645 765 q 334 523 367 555 q 249 443 300 490 z "},"=":{"ha":867,"x_min":86,"x_max":771,"o":"m 761 612 q 686 537 761 537 q 635 550 665 537 q 604 558 612 558 q 580 555 598 558 q 546 551 561 551 l 422 559 l 171 540 q 86 608 86 534 q 282 697 86 697 l 368 692 q 450 693 380 691 q 573 705 519 695 q 597 707 578 707 l 631 707 q 715 684 672 707 q 761 613 759 661 l 761 612 m 771 294 q 753 243 771 267 q 716 220 734 220 q 648 228 692 220 q 583 235 607 235 l 174 229 q 126 261 153 229 q 98 316 98 294 q 153 363 98 351 q 245 376 208 376 q 401 373 300 376 q 508 381 417 372 q 682 368 593 389 q 771 294 770 346 l 771 294 z "},">":{"ha":793,"x_min":98,"x_max":733,"o":"m 524 465 q 464 517 494 502 q 300 606 420 539 l 279 617 q 260 627 273 623 q 155 698 212 646 q 98 806 98 751 q 155 857 98 857 q 190 848 174 857 q 245 808 206 840 q 418 695 284 779 q 597 587 552 611 q 713 520 692 538 q 733 469 733 503 q 616 361 733 439 q 557 317 581 336 q 542 303 548 308 q 481 239 535 298 q 378 130 427 180 q 321 73 346 93 q 266 54 296 54 q 211 77 236 54 q 185 123 185 100 q 232 189 185 153 q 252 205 243 197 q 448 401 356 328 q 524 465 503 444 z "},"?":{"ha":713,"x_min":96,"x_max":728,"o":"m 728 775 q 687 610 728 674 q 592 520 646 546 q 368 436 538 495 q 336 322 349 389 q 304 270 329 287 q 222 253 280 253 q 192 280 203 253 q 181 338 181 308 q 191 397 181 370 q 242 509 201 425 q 310 556 279 540 q 428 606 341 572 l 519 642 q 559 686 543 652 q 576 751 576 719 q 565 814 576 774 q 546 863 555 853 q 512 881 537 873 q 462 889 487 889 q 362 871 389 889 q 333 835 336 852 q 229 774 324 774 q 166 834 166 774 q 206 917 166 870 q 306 996 245 963 l 305 996 q 412 1028 356 1027 q 491 1030 452 1029 q 612 1002 567 1034 q 706 910 686 953 q 728 776 726 867 l 728 775 m 332 72 q 284 0 332 30 q 197 -31 237 -31 q 125 -5 154 -31 q 96 58 96 20 q 150 126 96 89 q 166 138 160 133 q 215 153 184 153 q 270 130 237 153 q 332 72 332 125 z "},"@":{"ha":1141,"x_min":60,"x_max":1072,"o":"m 688 325 q 576 270 643 295 q 473 244 510 244 q 367 289 416 244 q 319 378 319 333 q 420 610 319 484 q 606 735 522 735 q 724 709 685 735 q 764 658 764 684 l 764 651 q 780 654 770 654 q 842 600 842 654 q 810 509 842 583 q 791 429 791 465 q 809 419 791 419 q 897 472 850 419 q 943 583 943 524 q 896 732 943 650 q 870 779 879 762 q 779 866 840 833 q 686 899 718 899 q 452 805 585 899 q 258 557 318 711 q 199 323 199 403 q 304 169 199 245 q 553 94 410 94 q 734 124 625 94 q 917 201 842 155 q 992 247 967 247 q 1035 231 1016 247 q 1054 201 1054 215 q 1039 134 1054 163 q 810 18 965 60 q 509 -24 654 -24 q 201 73 342 -24 q 60 322 60 170 q 131 591 60 409 q 355 894 201 773 q 679 1015 509 1015 q 887 943 791 1015 q 1027 771 983 872 q 1072 589 1072 669 q 1020 412 1072 496 q 893 302 968 328 q 798 276 819 276 q 688 325 739 276 m 665 591 q 655 600 660 594 q 644 608 650 605 q 528 516 583 601 q 472 399 472 432 q 483 377 472 382 q 517 372 494 372 q 590 402 539 372 q 640 448 640 431 l 637 513 q 649 562 635 532 q 665 591 663 591 z "},"A":{"ha":1077,"x_min":-13,"x_max":1063,"o":"m 274 219 q 203 93 262 191 q 121 -15 144 -4 q 80 -26 98 -26 q 21 0 56 -26 q -13 56 -13 27 q 157 341 -13 82 q 327 622 250 483 q 515 948 481 903 q 585 994 549 994 q 669 964 643 994 q 682 919 682 955 q 677 876 682 892 q 871 341 801 498 q 1012 113 941 184 q 1055 66 1047 78 q 1063 33 1063 54 q 1036 -30 1063 -4 q 971 -55 1008 -55 q 866 5 920 -55 q 766 169 813 64 q 719 286 719 273 q 715 289 719 289 q 552 263 679 289 q 349 213 426 237 q 315 207 330 207 q 274 219 288 207 m 665 427 q 568 711 648 467 q 558 740 561 734 l 366 374 q 453 387 408 381 q 605 416 483 391 q 665 427 635 422 z "},"B":{"ha":1017,"x_min":113,"x_max":951,"o":"m 745 551 q 910 444 872 507 q 947 321 947 382 q 781 55 947 192 q 433 -81 615 -81 q 331 -20 331 -81 q 473 82 331 82 l 506 82 q 673 159 572 82 q 774 315 774 236 q 733 401 774 363 q 623 439 692 439 q 569 418 617 439 q 497 397 520 397 q 414 412 433 397 q 395 475 395 428 q 533 565 395 509 q 690 672 612 596 q 769 800 769 747 q 671 867 769 867 q 492 846 580 867 q 394 796 404 826 q 344 486 385 766 q 303 161 303 205 l 296 70 q 264 -19 291 1 q 204 -39 238 -39 q 113 78 113 -39 q 125 144 113 96 q 183 486 155 267 q 211 722 211 705 q 197 755 211 755 l 179 754 q 143 767 159 752 q 123 794 127 781 q 118 818 118 807 q 307 945 118 885 q 703 1006 495 1006 q 882 947 813 1006 q 951 811 951 888 q 907 698 951 755 q 745 551 863 641 z "},"C":{"ha":968,"x_min":68,"x_max":958,"o":"m 786 235 q 838 185 838 235 q 688 32 838 123 q 399 -60 538 -60 q 172 21 275 -60 q 68 256 68 102 q 176 606 68 414 q 445 918 285 798 q 758 1039 606 1039 q 903 985 849 1039 q 958 858 958 930 q 945 745 958 779 q 893 686 933 711 q 828 662 853 662 q 783 680 802 662 q 764 730 764 699 q 776 793 764 751 q 787 862 787 834 q 755 909 787 909 q 536 804 657 909 q 328 545 414 700 q 241 271 241 390 q 287 138 241 193 q 420 84 332 84 q 550 112 471 84 q 694 187 628 140 q 786 235 762 235 z "},"D":{"ha":1101,"x_min":100,"x_max":1058,"o":"m 130 109 q 142 229 138 142 q 200 722 157 465 q 211 805 211 777 q 200 820 211 817 q 128 883 128 838 q 158 944 128 916 q 220 973 187 973 l 312 970 q 484 979 374 970 q 635 987 576 987 q 941 881 824 987 q 1058 600 1058 775 q 878 247 1058 405 q 441 32 697 90 q 345 6 373 17 q 280 -28 317 -5 q 189 -60 234 -60 q 127 -27 155 -60 q 100 27 100 6 q 115 68 100 41 l 130 109 m 307 143 q 513 196 343 143 q 789 357 683 248 q 895 606 895 467 q 816 784 895 718 q 611 850 738 850 q 402 834 524 850 q 377 831 387 832 q 303 192 303 378 q 307 143 303 157 z "},"E":{"ha":947,"x_min":94,"x_max":932,"o":"m 867 841 l 659 830 q 471 811 549 824 q 386 790 392 798 q 376 749 379 783 q 352 629 373 715 q 332 523 335 564 q 456 532 375 523 q 572 549 538 541 q 723 572 669 572 q 830 509 830 572 q 800 444 830 462 q 707 419 770 426 q 618 407 667 415 q 554 399 593 403 q 332 365 366 377 l 332 365 q 314 349 320 361 q 294 249 309 337 q 279 125 279 160 q 310 100 282 100 q 481 118 342 100 q 653 142 620 136 q 774 162 746 162 q 861 82 861 150 q 840 35 861 51 q 652 -3 772 4 q 427 -26 559 -9 q 205 -52 309 -52 q 125 -28 150 -52 q 96 45 101 -5 l 94 67 q 106 109 94 73 q 172 479 133 192 q 212 800 212 767 q 208 805 212 800 q 192 831 203 809 q 180 876 180 853 q 183 896 180 888 q 212 924 186 910 q 262 939 239 939 q 326 935 294 939 q 692 975 382 935 q 800 989 795 989 l 810 989 q 932 911 932 998 q 910 870 932 895 q 867 841 888 846 z "},"F":{"ha":821,"x_min":106,"x_max":886,"o":"m 833 846 q 794 836 817 836 q 770 838 781 836 q 712 842 753 842 q 520 829 628 842 q 372 801 412 817 q 319 494 329 672 q 375 501 347 498 q 571 529 480 512 q 693 543 647 543 q 796 471 796 543 q 776 436 796 458 q 733 404 756 414 q 648 386 710 395 l 466 363 q 311 338 361 351 q 300 325 304 334 q 291 243 296 316 q 285 109 285 170 l 288 22 q 213 -58 288 -58 q 141 -30 175 -58 q 106 45 106 -2 q 127 298 106 134 q 197 800 128 306 q 191 839 197 823 q 180 886 180 868 q 209 937 180 910 q 262 964 238 964 q 296 960 279 964 q 349 954 321 954 q 566 976 375 954 q 751 989 690 989 q 851 969 815 989 q 886 933 886 949 q 833 846 886 876 l 833 846 z "},"G":{"ha":1075,"x_min":72,"x_max":1009,"o":"m 928 335 l 929 335 q 897 185 913 279 q 880 50 880 92 q 879 -58 880 -28 q 867 -107 878 -88 q 837 -137 855 -126 q 795 -147 819 -147 q 728 -121 759 -147 q 697 -61 697 -96 q 716 38 697 -50 q 743 172 733 116 q 336 3 516 3 q 143 74 215 3 q 72 267 72 144 q 189 640 72 461 l 189 639 q 482 932 313 825 q 820 1039 651 1039 q 958 1007 907 1039 q 1009 925 1009 975 q 974 833 1009 884 q 904 783 939 783 q 871 792 882 783 q 848 829 860 802 q 819 872 836 859 q 770 884 802 884 q 535 783 667 884 q 320 543 402 682 q 237 278 237 404 q 351 145 237 145 q 492 176 410 145 q 667 271 574 206 q 779 390 760 336 q 807 508 798 444 q 835 558 812 546 q 897 571 858 571 q 985 511 985 571 q 962 433 985 487 q 928 335 944 393 z "},"H":{"ha":1116,"x_min":97,"x_max":1062,"o":"m 311 381 q 286 179 294 345 q 259 17 282 82 q 197 -48 235 -48 q 126 -21 155 -48 q 97 56 97 5 q 117 180 97 101 q 214 924 161 357 q 242 968 218 947 q 292 989 266 989 q 382 878 382 989 q 361 719 382 828 q 338 536 338 593 q 387 529 343 529 q 656 544 481 529 q 843 583 830 559 q 871 720 857 606 q 886 962 886 833 q 914 1007 886 981 q 975 1034 943 1034 q 1037 1010 1013 1034 q 1062 951 1062 987 q 1037 767 1062 901 q 989 382 1008 617 q 970 71 970 148 q 935 -2 970 34 q 871 -38 899 -38 q 814 -16 842 -38 q 786 42 786 7 q 804 200 786 65 q 823 385 823 334 q 810 417 823 417 q 684 410 778 417 q 554 401 589 401 q 423 394 529 401 q 311 381 317 387 z "},"I":{"ha":437,"x_min":109,"x_max":385,"o":"m 336 673 q 317 574 321 611 q 303 473 317 555 q 281 275 281 328 q 292 99 281 186 q 266 7 300 36 q 198 -22 232 -22 q 130 20 150 -22 q 109 165 109 62 q 141 469 109 229 l 178 734 q 195 842 190 792 q 215 933 203 916 q 258 970 227 951 q 304 989 288 989 q 364 958 343 989 q 385 880 385 926 l 336 673 z "},"J":{"ha":825,"x_min":-19,"x_max":753,"o":"m 675 1022 q 729 1002 705 1022 q 753 956 753 982 q 716 530 753 800 q 591 126 680 260 q 347 -8 503 -8 q 104 77 227 -8 q -19 223 -19 161 q 6 279 -19 258 q 71 300 31 300 q 144 261 106 300 q 349 144 258 144 q 469 229 420 144 q 552 533 518 315 q 585 948 585 751 q 616 1000 585 977 q 675 1022 647 1022 z "},"K":{"ha":1031,"x_min":90,"x_max":1002,"o":"m 718 665 l 461 438 l 745 224 q 812 177 779 197 l 844 156 q 994 126 880 134 q 1002 87 1002 100 q 975 11 1002 41 q 895 -20 948 -20 q 711 64 826 -20 l 448 257 q 316 342 358 324 q 267 114 286 334 q 238 -14 258 26 q 171 -54 218 -54 q 111 -31 132 -54 q 90 30 90 -7 q 96 76 90 46 q 152 548 112 142 q 212 940 188 890 q 287 991 236 991 q 372 896 372 991 q 311 494 330 721 q 449 612 407 566 q 490 652 465 629 q 589 748 537 696 q 666 843 642 800 q 722 931 701 905 q 769 956 744 956 q 832 928 798 956 q 867 864 867 899 q 831 785 867 838 q 718 665 794 732 z "},"L":{"ha":871,"x_min":86,"x_max":869,"o":"m 751 33 q 694 37 734 33 q 635 40 654 40 q 276 -15 450 40 q 174 -38 204 -38 q 109 -5 132 -38 q 86 57 86 27 q 98 119 86 69 q 123 262 114 182 l 184 824 q 198 928 192 904 q 227 970 203 951 q 292 989 251 989 q 349 965 324 989 q 373 912 373 941 q 361 820 373 886 q 311 455 343 725 q 279 170 279 185 q 286 150 279 150 q 428 168 312 150 q 538 180 482 177 q 760 203 696 187 q 790 208 781 208 q 848 185 827 208 q 869 133 869 163 q 833 60 869 87 q 751 33 797 33 z "},"M":{"ha":1312,"x_min":71,"x_max":1221,"o":"m 1052 747 l 826 441 q 585 222 669 222 q 515 268 545 222 q 452 405 484 313 q 408 545 420 497 q 368 669 378 654 l 334 493 q 300 336 317 408 q 263 164 283 264 q 239 13 243 64 q 207 -24 237 -4 q 159 -43 176 -43 q 99 -13 127 -43 q 71 45 71 17 q 98 210 71 110 q 225 728 210 621 q 241 905 241 834 q 273 961 241 941 q 357 981 305 981 q 412 944 385 981 q 449 876 440 907 l 448 878 l 543 614 q 618 413 599 456 q 835 689 691 492 q 1031 941 979 885 q 1106 998 1084 998 q 1180 970 1139 998 q 1221 922 1221 942 q 1194 718 1221 907 q 1161 419 1176 585 q 1146 224 1146 254 q 1156 149 1146 187 q 1162 92 1162 119 q 1139 1 1162 25 q 1067 -24 1116 -24 q 978 110 978 -24 q 1001 418 978 236 q 1043 698 1024 600 q 1052 747 1050 733 z "},"N":{"ha":1120,"x_min":92,"x_max":1064,"o":"m 119 223 l 169 452 q 229 830 226 723 q 236 900 231 882 q 268 936 242 919 q 326 954 293 954 q 374 940 347 954 q 419 854 401 926 q 566 542 448 736 q 780 230 685 347 q 836 533 806 347 q 877 764 858 666 q 896 908 892 845 q 931 988 899 968 q 996 1008 964 1008 q 1044 978 1024 1008 q 1064 901 1064 947 q 1044 797 1064 864 q 961 396 1002 642 q 920 116 920 151 l 920 93 q 913 35 920 54 q 881 -1 907 16 q 812 -18 854 -18 q 776 -13 787 -18 q 746 15 765 -8 q 706 75 727 37 q 658 151 673 131 q 346 632 496 357 q 283 239 326 548 l 275 178 q 266 85 270 146 q 231 -19 261 13 q 173 -51 201 -51 q 110 -28 129 -51 q 92 63 92 -5 q 119 219 92 117 l 119 223 z "},"O":{"ha":1114,"x_min":68,"x_max":1078,"o":"m 361 -47 q 157 63 246 -47 q 68 291 68 174 q 153 602 68 429 q 372 883 238 774 q 652 992 506 992 q 839 965 765 992 q 974 885 912 938 q 1057 777 1036 833 q 1078 623 1078 721 q 1022 414 1078 537 q 862 182 967 291 q 647 13 756 73 q 361 -47 538 -47 m 240 297 q 290 158 240 214 q 404 102 339 102 q 745 277 585 102 q 904 648 904 452 q 878 759 904 717 q 788 830 851 802 q 652 858 724 858 q 380 669 521 858 q 240 297 240 479 z "},"P":{"ha":979,"x_min":127,"x_max":983,"o":"m 311 307 q 294 55 294 150 q 271 -12 294 18 q 210 -41 249 -41 q 127 56 127 -41 q 166 418 127 110 q 198 716 198 668 q 193 779 198 771 q 149 859 149 801 q 333 959 149 916 q 648 1001 517 1001 q 892 938 801 1001 q 983 768 983 875 q 816 496 983 613 q 410 330 649 379 q 311 307 323 312 m 371 817 l 331 460 q 674 575 526 492 q 822 753 822 659 q 643 867 822 867 q 371 817 519 867 z "},"Q":{"ha":1121,"x_min":62,"x_max":1048,"o":"m 860 888 q 996 706 945 809 q 1048 513 1048 604 q 978 296 1048 409 q 794 98 909 184 q 945 -87 920 -50 q 970 -137 970 -123 q 928 -192 970 -163 q 870 -222 887 -222 q 803 -188 835 -222 q 717 -51 775 -130 q 657 28 659 28 q 627 22 649 28 q 412 -9 511 -9 q 165 70 267 -9 q 62 283 62 149 q 170 608 62 434 q 442 902 278 782 q 736 1022 606 1022 q 819 979 779 1022 q 860 888 860 936 m 547 144 q 522 176 536 160 q 463 253 463 240 q 505 309 463 278 q 593 339 547 339 q 644 294 633 339 q 671 235 651 262 q 701 208 690 208 q 824 307 755 208 q 892 497 892 406 q 807 742 892 628 q 676 857 722 857 q 486 763 592 857 q 306 532 379 669 q 233 294 233 396 q 284 171 233 214 q 406 127 334 127 q 547 144 469 127 z "},"R":{"ha":1010,"x_min":92,"x_max":1006,"o":"m 189 817 l 180 833 q 158 883 158 867 q 191 940 158 916 q 252 964 224 964 q 283 962 264 964 q 306 959 302 959 q 587 990 506 990 q 826 919 738 990 q 913 742 913 847 q 827 551 913 642 q 595 404 741 461 q 962 135 837 208 q 1006 67 1006 109 q 975 13 1006 40 q 917 -14 944 -14 q 827 20 878 -14 q 686 126 777 54 q 580 214 594 199 q 394 357 451 321 q 322 428 322 357 q 354 485 322 461 q 427 509 386 509 q 452 506 438 509 q 470 502 465 502 q 631 574 513 502 q 748 742 748 647 q 699 823 748 789 q 574 857 650 857 q 428 846 484 857 q 368 831 373 836 q 356 810 363 827 q 326 670 349 793 q 284 402 303 548 q 265 186 265 256 q 272 107 265 142 q 278 46 278 72 q 249 -6 278 22 q 186 -35 220 -35 q 92 96 92 -35 q 116 392 92 201 q 171 727 139 583 q 179 768 176 750 l 189 817 z "},"S":{"ha":884,"x_min":50,"x_max":849,"o":"m 718 729 q 684 822 718 796 q 582 848 649 848 q 369 792 467 848 q 271 669 271 736 q 308 596 271 627 q 499 522 345 566 q 739 419 661 475 q 817 284 817 363 q 618 44 817 153 q 203 -64 418 -64 q 92 -35 134 -64 q 50 37 50 -6 q 68 100 50 71 q 114 129 87 129 q 144 123 130 129 q 277 93 215 93 q 514 152 382 93 q 646 269 646 212 q 613 314 646 292 q 479 370 581 336 q 258 449 332 418 q 145 531 184 480 q 107 652 107 581 q 255 888 107 779 q 602 998 403 998 q 783 952 717 998 q 849 848 849 907 q 718 729 849 729 z "},"T":{"ha":930,"x_min":14,"x_max":1067,"o":"m 611 804 q 600 774 605 799 q 573 541 595 749 q 550 208 550 332 q 562 92 550 156 q 566 71 566 83 q 544 5 566 34 q 490 -24 523 -24 q 433 -2 467 -24 q 392 73 399 20 q 385 210 385 125 q 412 555 385 326 q 445 789 439 785 q 293 779 426 789 q 138 769 159 769 q 41 787 68 769 q 14 844 14 805 q 42 897 14 878 q 189 915 71 915 q 572 941 384 915 q 892 973 783 973 q 1041 944 1015 973 q 1067 887 1067 916 q 1009 821 1067 821 q 948 825 990 821 q 848 829 905 829 q 611 804 677 829 z "},"U":{"ha":1074,"x_min":112,"x_max":1029,"o":"m 485 -45 q 316 0 415 -45 q 164 154 216 45 q 112 389 112 263 q 131 559 112 454 l 153 685 q 163 747 157 717 q 177 838 171 794 q 210 950 186 912 q 283 987 234 987 q 333 949 308 987 q 359 890 359 911 q 326 741 359 876 q 298 575 318 707 q 278 397 278 444 q 354 163 278 224 q 481 103 429 103 q 720 177 654 103 q 804 417 785 250 q 812 475 807 448 q 823 607 819 544 q 870 907 840 846 q 958 967 901 967 q 1029 876 1029 967 q 1002 673 1029 821 q 981 499 987 585 q 925 198 969 294 q 765 28 881 102 q 485 -45 650 -45 z "},"V":{"ha":994,"x_min":68,"x_max":1100,"o":"m 1099 931 q 1048 851 1100 924 q 923 665 970 741 q 750 378 877 590 q 650 214 673 249 q 573 68 586 119 q 526 16 563 36 q 438 -5 489 -5 q 396 29 416 -5 q 342 157 376 63 q 224 460 300 271 q 68 865 68 851 q 91 930 68 889 q 157 972 115 972 q 218 947 191 972 q 266 812 244 922 q 362 525 281 734 q 490 216 444 316 q 536 296 500 231 q 547 314 545 310 q 703 583 641 464 q 895 909 817 802 q 1024 1016 972 1016 q 1099 941 1099 1016 l 1099 936 q 1099 931 1099 933 z "},"W":{"ha":1404,"x_min":88,"x_max":1400,"o":"m 1084 26 q 1048 -2 1074 10 q 1006 -14 1023 -14 q 923 33 960 -14 q 814 267 886 79 q 735 488 743 455 l 568 186 q 382 -64 429 -64 q 326 -48 349 -64 q 280 15 302 -32 q 222 223 259 62 q 156 550 186 385 q 117 754 127 715 q 106 795 111 780 q 88 874 88 850 q 115 932 88 904 q 176 960 141 960 q 267 858 241 960 q 296 712 292 755 l 313 597 q 334 473 321 540 q 356 355 348 404 q 391 175 383 192 q 559 451 518 377 q 680 695 600 524 q 710 726 689 712 q 754 740 732 740 q 803 710 783 740 q 870 557 823 680 q 877 538 872 549 l 932 393 q 1013 194 1005 199 q 1245 945 1206 561 q 1269 987 1245 972 q 1322 1002 1292 1002 q 1382 976 1364 1002 q 1400 918 1400 950 q 1363 706 1400 850 q 1255 393 1326 561 l 1235 346 q 1126 117 1227 326 q 1084 26 1095 52 z "},"X":{"ha":1016,"x_min":-18,"x_max":996,"o":"m 509 616 q 525 635 510 616 q 839 968 790 927 q 905 1010 887 1010 q 964 983 931 1010 q 996 928 996 956 q 924 843 996 905 q 784 705 864 789 l 757 679 q 592 500 592 524 q 693 370 592 488 q 844 221 793 252 q 928 149 897 189 q 959 96 959 109 q 936 48 959 71 q 883 26 913 26 q 764 74 822 26 q 609 248 707 121 q 489 398 527 354 q 404 307 471 378 q 198 50 219 113 q 161 -37 173 -18 q 123 -70 149 -57 q 58 -83 96 -83 q -18 -13 -18 -83 q 63 141 -18 39 q 311 412 144 244 l 386 490 q 404 510 398 503 q 370 556 392 530 q 227 742 326 606 q 128 908 128 878 q 153 977 128 943 q 204 1010 178 1010 q 256 994 233 1010 q 307 923 279 978 q 509 616 381 773 z "},"Y":{"ha":929,"x_min":10,"x_max":1028,"o":"m 593 450 l 593 451 q 545 76 572 394 q 529 -6 540 5 q 490 -28 519 -18 q 446 -39 461 -39 q 371 63 371 -39 q 391 235 371 109 q 412 410 412 360 q 404 465 412 439 q 267 634 347 525 q 133 789 173 759 q 32 877 53 846 q 10 933 10 908 q 40 973 10 949 q 94 998 69 998 q 413 707 196 998 q 512 585 485 610 q 565 646 538 613 q 619 707 591 680 q 840 955 783 876 q 960 1031 895 1031 q 1009 1006 990 1031 q 1028 956 1028 982 q 781 662 1028 916 q 593 450 602 475 z "},"Z":{"ha":1088,"x_min":19,"x_max":1027,"o":"m 1013 863 q 1002 852 1011 859 q 961 823 981 839 q 862 711 941 806 q 678 504 760 591 q 394 223 595 417 l 323 155 q 488 171 387 160 q 646 186 631 186 q 726 189 695 186 q 783 191 758 191 q 979 96 979 191 q 959 35 979 57 q 905 13 939 13 q 842 22 878 13 q 694 38 783 38 q 495 27 660 38 l 496 27 q 275 12 328 18 q 155 -13 222 5 q 87 -28 102 -28 q 19 39 19 -28 q 56 121 19 94 q 290 325 146 188 q 562 595 435 461 q 610 644 583 616 q 774 821 723 757 q 528 794 764 821 q 304 777 380 777 q 210 788 258 777 q 138 868 138 820 q 165 920 138 890 q 211 949 193 949 q 245 941 224 949 q 277 933 266 933 l 402 932 q 515 937 454 931 q 661 945 561 941 q 814 958 772 951 q 971 979 939 979 q 1027 919 1027 979 q 1013 863 1027 885 z "},"[":{"ha":561,"x_min":107,"x_max":583,"o":"m 307 901 l 307 899 l 307 894 l 308 890 q 311 869 309 884 q 313 846 313 852 q 272 66 313 811 q 264 -81 264 -68 l 269 -168 q 265 -189 269 -189 q 292 -194 273 -194 q 374 -184 332 -194 q 423 -173 418 -173 q 503 -243 503 -173 q 485 -298 503 -279 q 442 -323 467 -317 q 310 -341 417 -328 q 271 -349 286 -345 q 182 -368 214 -368 q 129 -344 150 -368 q 107 -292 107 -319 l 117 -181 q 114 -140 116 -161 q 111 -66 111 -96 q 121 106 111 -5 l 124 146 q 127 175 125 164 l 146 456 q 159 718 159 641 q 135 897 159 831 q 120 960 125 927 q 156 1029 120 1010 q 259 1049 191 1049 q 418 1053 307 1049 q 583 968 583 1057 q 548 921 583 941 q 456 900 513 900 l 418 900 l 307 901 z "},"\\":{"ha":760,"x_min":5,"x_max":753,"o":"m 606 -117 l 304 493 q 165 741 216 667 q 138 781 151 762 l 138 781 q 113 818 119 808 l 114 817 q 104 833 109 825 q 92 852 99 841 q 5 1027 5 985 q 36 1073 5 1050 q 100 1096 66 1096 q 150 1075 127 1096 q 220 956 172 1053 q 229 939 226 943 q 342 755 272 884 q 378 691 360 722 l 378 692 q 493 469 414 631 q 571 313 547 357 q 712 52 671 135 q 753 -67 753 -31 q 651 -142 753 -142 q 606 -117 625 -142 z "},"]":{"ha":579,"x_min":-29,"x_max":543,"o":"m 240 -162 q 264 -160 256 -160 q 274 346 264 182 q 345 869 285 509 q 349 879 345 870 q 368 931 366 920 q 218 910 292 930 q 151 899 177 899 q 88 918 122 899 q 54 959 54 937 q 85 1026 54 987 q 148 1064 117 1064 q 194 1060 163 1064 q 300 1071 208 1058 q 454 1089 429 1089 q 515 1062 487 1089 q 543 1008 543 1034 q 519 925 543 967 q 505 883 513 914 q 471 699 498 852 l 436 486 q 423 341 427 427 q 418 161 418 255 l 406 -139 q 411 -192 406 -151 q 417 -250 417 -228 q 334 -324 417 -324 l 226 -313 q 136 -321 212 -311 q 47 -328 68 -328 q -5 -311 20 -328 q -29 -277 -29 -294 q 49 -168 -29 -168 q 98 -170 68 -168 q 136 -173 127 -173 l 240 -162 z "},"^":{"ha":796,"x_min":40,"x_max":770,"o":"m 400 732 q 367 691 382 712 q 334 647 349 666 q 258 536 281 581 q 214 460 252 522 l 200 436 q 164 388 182 406 q 117 370 146 370 q 61 396 83 370 q 40 450 40 422 q 113 564 40 477 q 151 616 133 587 q 248 755 165 642 q 279 802 277 796 q 283 807 281 804 q 334 884 301 844 q 410 923 368 923 q 448 911 435 923 q 483 865 462 899 q 637 655 548 754 q 729 534 689 599 q 770 438 770 469 q 747 390 770 418 q 702 363 725 363 q 656 385 680 363 q 618 437 633 407 q 511 587 602 465 q 400 732 420 709 z "},"_":{"ha":576,"x_min":-43,"x_max":619,"o":"m 578 -139 q 507 -133 562 -139 q 436 -127 453 -127 q 274 -136 398 -127 q 111 -144 150 -144 q 55 -142 100 -144 q -1 -139 10 -139 q -43 -94 -43 -139 q -31 -66 -43 -78 q -1 -54 -19 -54 l 103 -47 q 172 -50 128 -47 q 254 -53 215 -53 q 345 -47 286 -53 q 439 -41 406 -41 q 507 -47 450 -41 q 578 -54 566 -54 q 619 -104 619 -54 q 611 -132 619 -125 q 578 -139 602 -139 z "},"`":{"ha":433,"x_min":5,"x_max":410,"o":"m 224 800 l 192 821 q 84 900 163 838 q 5 1001 5 962 q 33 1042 5 1019 q 89 1065 62 1065 q 124 1050 102 1065 q 215 972 146 1034 l 363 840 q 410 766 410 799 q 342 703 410 703 q 224 800 320 703 z "},"a":{"ha":812,"x_min":47,"x_max":764,"o":"m 541 227 q 197 -8 363 -8 q 92 40 136 -8 q 47 163 47 88 q 208 546 47 342 q 530 749 368 749 q 639 665 613 749 q 717 606 717 665 q 702 503 717 577 q 675 279 675 363 q 687 157 675 193 q 704 111 699 122 q 736 88 709 100 q 764 52 764 75 q 729 -5 764 18 q 656 -28 694 -28 q 541 227 528 -28 m 500 604 q 322 452 432 604 q 213 195 213 300 q 236 139 213 139 q 433 281 316 139 q 550 530 550 423 q 535 584 550 564 q 500 604 519 604 z "},"b":{"ha":806,"x_min":78,"x_max":779,"o":"m 144 659 q 239 1120 210 1048 q 340 1192 268 1192 q 395 1094 395 1192 q 340 815 395 1027 q 269 499 311 711 q 453 680 353 611 q 630 749 552 749 q 736 695 694 749 q 779 566 779 640 q 618 174 779 357 q 277 -10 458 -10 q 176 19 223 -10 q 123 95 130 49 q 113 128 121 120 q 98 146 106 136 q 78 203 78 166 q 99 378 78 245 l 144 659 m 224 177 q 288 130 253 130 q 430 188 352 130 q 565 353 507 247 q 622 530 622 460 q 601 597 622 597 q 359 440 493 597 q 224 177 224 282 z "},"c":{"ha":701,"x_min":48,"x_max":648,"o":"m 277 -37 q 106 24 165 -37 q 48 193 48 85 q 187 563 48 364 q 460 762 326 762 q 570 697 524 762 q 615 564 615 633 q 591 476 615 499 q 545 454 567 454 q 468 545 479 454 q 435 611 460 611 q 295 460 382 611 q 208 197 208 310 q 307 105 208 105 q 528 182 416 105 q 610 220 580 220 q 648 182 648 220 q 528 46 648 130 q 277 -37 408 -37 z "},"d":{"ha":916,"x_min":43,"x_max":878,"o":"m 556 227 q 203 -22 380 -22 q 87 34 131 -22 q 43 178 43 91 q 188 530 43 355 q 481 705 332 705 q 602 661 566 705 q 663 939 653 883 q 696 1076 683 1042 q 738 1128 710 1109 q 786 1147 766 1147 q 839 1118 821 1147 q 857 1046 857 1090 q 827 937 857 1027 q 737 583 779 791 q 695 253 695 376 q 747 136 695 136 q 803 150 773 136 q 845 163 833 163 q 878 125 878 163 q 811 32 878 78 q 683 -15 743 -15 q 583 55 618 -15 q 556 227 547 125 m 481 574 q 295 439 392 574 q 199 191 199 303 q 248 125 199 125 q 445 272 330 125 q 559 505 559 419 q 538 552 559 530 q 481 574 516 574 z "},"e":{"ha":720,"x_min":51,"x_max":684,"o":"m 684 233 q 565 65 684 163 q 297 -33 446 -33 q 117 39 182 -33 q 51 240 51 111 q 185 596 51 430 q 472 762 319 762 q 594 714 548 762 q 640 600 640 666 q 527 375 640 481 q 237 227 414 268 q 216 203 216 222 q 245 141 216 170 q 322 111 274 111 q 593 252 458 111 q 643 279 618 279 q 684 233 684 279 m 229 353 q 417 445 336 375 q 499 572 499 515 q 487 609 499 594 q 454 625 474 625 q 323 538 395 625 q 229 353 252 451 z "},"f":{"ha":515,"x_min":66,"x_max":640,"o":"m 262 345 l 251 224 q 245 109 245 165 q 255 -11 245 57 q 221 -52 248 -35 q 164 -68 194 -68 q 71 50 71 -68 q 100 299 71 102 q 121 510 121 441 q 113 519 121 514 q 66 576 66 549 q 118 653 66 612 q 149 699 143 673 q 165 781 155 725 q 279 1089 202 998 q 475 1180 356 1180 q 592 1135 544 1180 q 640 1023 640 1090 q 612 900 640 964 q 540 836 585 836 q 507 848 520 836 q 493 881 493 861 l 497 940 q 453 1046 497 1046 q 350 908 398 1046 q 302 673 302 770 q 315 663 302 663 q 514 664 456 663 q 572 619 572 665 q 502 553 572 574 q 354 532 431 532 q 286 523 302 527 q 262 346 270 422 l 262 345 z "},"g":{"ha":795,"x_min":-85,"x_max":768,"o":"m 541 208 q 366 68 466 123 q 193 14 266 14 q 82 56 121 14 q 42 172 42 98 q 122 406 42 277 q 343 630 201 534 q 597 725 484 725 q 705 691 660 725 q 724 677 716 683 q 754 635 741 666 q 768 585 768 604 q 743 503 768 573 q 706 362 716 431 q 664 22 695 294 q 532 -323 636 -214 q 300 -433 427 -433 q 40 -343 166 -433 q -85 -195 -85 -253 q -35 -143 -85 -143 q 45 -182 -16 -143 q 310 -284 199 -284 q 451 -179 394 -284 q 541 208 508 -73 m 557 585 q 426 525 507 585 q 275 363 345 465 q 206 194 206 261 q 232 159 206 159 q 406 230 319 159 q 545 393 492 300 q 598 532 598 485 q 586 570 598 556 q 557 585 574 585 z "},"h":{"ha":867,"x_min":43,"x_max":848,"o":"m 231 313 q 425 600 343 524 q 590 676 507 676 q 686 636 648 676 q 742 430 724 597 q 761 302 749 351 q 787 215 772 253 q 827 144 801 178 q 848 94 848 118 q 824 49 848 69 q 770 28 801 28 q 663 94 710 28 q 608 276 616 160 q 584 457 597 418 q 543 496 572 496 q 390 339 503 496 q 226 88 276 182 q 178 -4 195 17 q 136 -25 161 -25 q 68 -5 94 -25 q 43 53 43 16 q 61 168 43 71 q 174 943 130 532 q 216 1079 185 1042 q 273 1117 247 1117 q 335 1089 309 1117 q 361 1012 361 1061 q 343 837 361 936 q 275 521 325 738 q 231 313 244 390 z "},"i":{"ha":399,"x_min":80,"x_max":452,"o":"m 452 1008 q 409 923 452 960 q 334 887 366 887 q 261 921 293 887 q 230 989 230 955 q 261 1068 230 1038 q 351 1098 292 1098 q 424 1071 396 1098 q 452 1008 452 1044 m 125 450 l 125 450 q 146 591 146 573 q 169 675 146 641 q 230 709 191 709 q 302 687 276 709 q 328 638 328 665 q 302 526 328 611 l 298 511 q 254 298 261 380 q 246 164 246 215 q 260 54 246 123 q 262 33 262 41 q 233 -9 262 18 q 170 -35 203 -35 q 80 100 80 -35 q 113 381 80 216 q 125 450 119 418 z "},"j":{"ha":445,"x_min":-242,"x_max":420,"o":"m 285 909 q 225 944 248 909 q 203 1020 203 980 q 242 1086 203 1053 q 328 1120 281 1120 q 387 1098 354 1120 q 420 1057 420 1077 q 404 979 420 1034 q 358 917 387 924 q 285 909 329 909 m 7 -413 q -161 -341 -79 -413 q -242 -218 -242 -270 q -223 -179 -242 -198 q -193 -159 -203 -159 q -140 -191 -179 -159 q -8 -262 -64 -262 q 82 -172 50 -262 q 140 416 115 -81 q 154 608 146 538 q 191 708 162 679 q 272 738 219 738 q 327 716 304 738 q 351 664 351 694 q 346 636 351 654 q 303 350 319 532 q 285 121 286 168 q 250 -183 277 -75 q 156 -352 223 -291 q 7 -413 90 -413 z "},"k":{"ha":819,"x_min":62,"x_max":811,"o":"m 706 566 l 707 566 q 705 565 707 566 q 642 527 666 543 q 550 461 596 496 q 471 393 497 420 q 448 359 448 370 q 528 263 448 347 q 653 144 607 180 q 745 109 700 109 l 775 109 q 801 99 791 109 q 811 70 811 90 q 777 5 811 42 q 658 -31 742 -31 q 557 5 608 -31 q 401 169 507 41 q 310 271 317 271 q 281 247 305 271 q 250 210 258 222 l 250 209 q 239 62 239 153 q 212 -12 239 16 q 146 -41 185 -41 q 84 -18 106 -41 q 62 28 62 5 q 79 135 62 52 q 134 562 111 296 q 172 893 155 774 q 201 1049 188 1012 q 241 1108 214 1086 q 299 1130 268 1130 q 347 1105 329 1130 q 365 1045 365 1080 q 308 701 365 1001 l 292 612 l 292 612 q 262 385 262 416 l 470 574 q 704 728 629 728 q 776 670 776 728 q 706 566 776 598 z "},"l":{"ha":395,"x_min":98,"x_max":398,"o":"m 325 1148 q 398 1068 398 1148 q 388 989 398 1031 q 332 779 378 947 q 282 514 299 658 q 264 290 264 371 q 277 85 264 204 q 281 45 281 54 q 251 -24 281 5 q 186 -54 221 -54 q 118 -8 138 -54 q 98 148 98 37 q 154 709 98 386 q 246 1090 210 1031 q 325 1148 281 1148 z "},"m":{"ha":1389,"x_min":89,"x_max":1365,"o":"m 256 40 q 178 -30 248 -30 q 89 98 89 -30 q 111 453 89 306 q 129 678 129 568 q 146 723 129 705 q 193 741 163 741 q 295 617 295 741 q 259 413 295 577 q 237 271 237 315 q 587 697 431 697 q 689 647 650 697 q 728 425 727 597 q 745 267 729 267 q 829 420 757 267 q 967 643 910 589 q 1088 697 1025 697 q 1197 632 1163 697 q 1244 414 1231 568 q 1272 229 1255 292 q 1331 146 1289 167 q 1365 98 1365 130 q 1326 39 1365 68 q 1248 9 1288 9 q 1140 78 1179 9 q 1087 351 1101 146 q 1071 483 1080 450 q 1046 515 1063 515 q 1002 466 1031 515 q 904 273 974 418 q 798 92 842 143 q 703 40 753 40 q 624 74 663 40 q 581 320 584 108 q 556 509 577 509 q 419 341 528 509 q 256 40 311 173 z "},"n":{"ha":918,"x_min":57,"x_max":916,"o":"m 646 99 q 599 327 614 160 q 532 500 584 500 q 363 320 484 500 q 216 53 243 139 q 193 10 210 27 q 160 -7 176 -7 q 57 87 57 -7 q 77 233 57 119 q 104 591 104 379 q 132 659 104 623 q 191 695 159 695 q 251 675 230 695 q 272 571 272 656 q 233 321 272 507 q 562 666 380 666 q 746 418 719 666 q 808 166 773 166 q 844 173 824 166 q 883 181 869 181 q 916 143 916 181 q 871 70 916 109 q 758 31 826 31 q 646 99 680 31 l 646 99 z "},"o":{"ha":783,"x_min":60,"x_max":729,"o":"m 718 344 q 545 76 672 185 q 291 -33 418 -33 q 125 41 191 -33 q 60 222 60 115 q 180 566 60 397 q 469 736 299 736 q 657 650 585 736 q 729 446 729 564 q 718 345 729 394 l 718 344 m 365 558 q 272 424 317 516 q 227 239 227 332 q 247 146 227 182 q 302 109 268 109 q 477 209 386 109 q 568 433 568 309 q 538 548 568 503 q 456 593 509 593 q 366 558 406 593 l 365 558 z "},"p":{"ha":895,"x_min":4,"x_max":841,"o":"m 234 48 q 211 -96 222 1 l 178 -362 q 147 -452 170 -427 q 90 -477 123 -477 q 32 -455 59 -477 q 4 -404 4 -432 q 21 -277 4 -349 q 132 560 122 126 l 132 574 q 137 695 132 665 q 166 748 142 725 q 234 771 190 771 q 308 658 308 771 q 291 501 308 612 l 284 454 q 468 668 361 583 q 659 753 574 753 q 788 699 734 753 q 841 563 841 645 q 671 164 841 344 q 335 -15 501 -15 q 234 48 256 -15 m 632 600 q 417 438 549 600 q 286 184 286 277 q 309 142 286 161 q 363 123 332 123 q 561 259 450 123 q 673 520 673 394 q 660 581 673 562 q 632 600 647 600 z "},"q":{"ha":793,"x_min":43,"x_max":751,"o":"m 517 178 q 201 -5 338 -5 q 86 51 128 -5 q 43 193 43 108 q 212 577 43 376 q 561 777 381 777 q 664 692 645 777 q 669 683 667 684 q 751 597 751 665 q 723 446 751 559 q 665 174 705 378 q 617 -111 626 -29 q 606 -292 608 -193 q 598 -373 604 -352 q 569 -412 592 -394 q 509 -430 547 -430 q 447 -404 470 -430 q 425 -336 425 -377 q 451 -148 425 -309 q 494 81 477 14 q 517 178 510 143 m 534 385 q 583 545 583 475 q 567 603 583 580 q 525 627 551 627 q 323 478 443 627 q 203 203 203 329 q 229 136 203 136 q 389 215 293 136 q 534 385 484 294 l 534 385 z "},"r":{"ha":705,"x_min":101,"x_max":776,"o":"m 246 336 l 258 358 q 434 626 340 523 q 619 728 529 728 q 732 690 688 728 q 776 600 776 652 q 761 544 776 568 q 720 521 746 521 q 643 555 677 521 q 604 578 618 578 q 434 420 553 578 q 290 64 315 262 q 257 -15 283 7 q 187 -38 231 -38 q 121 15 140 -38 q 101 189 101 68 q 104 323 101 239 q 119 517 106 402 q 124 564 123 547 q 138 655 130 630 q 174 701 146 680 q 237 723 203 723 q 293 702 274 723 q 312 656 312 681 q 281 524 312 624 q 263 441 271 489 l 246 336 z "},"s":{"ha":587,"x_min":-3,"x_max":563,"o":"m 396 172 q 279 262 393 209 q 101 377 140 329 q 62 483 62 426 q 197 693 62 603 q 448 783 332 783 q 563 683 563 783 q 537 635 563 656 q 492 614 511 614 q 466 624 485 614 q 437 633 447 633 q 304 593 376 633 q 231 498 231 552 q 257 447 231 471 q 362 385 283 422 q 517 284 479 329 q 554 185 554 239 q 420 20 554 86 q 119 -46 286 -46 q -3 43 -3 -46 q 22 98 -3 75 q 80 121 48 121 q 120 112 93 121 q 170 102 147 102 q 304 122 234 102 q 396 172 374 142 z "},"t":{"ha":648,"x_min":16,"x_max":690,"o":"m 353 551 q 315 399 347 551 q 283 216 283 248 q 295 139 283 161 q 334 117 307 117 q 407 130 372 117 q 498 189 441 143 q 558 218 534 218 q 590 207 578 218 q 602 181 602 196 q 505 46 602 121 q 302 -30 409 -30 q 165 23 212 -30 q 118 175 118 76 q 186 541 118 267 q 126 536 143 536 l 112 536 q 48 556 81 536 q 16 621 16 576 q 81 678 16 678 l 226 684 q 286 899 254 766 q 372 981 305 981 q 431 959 410 981 q 452 908 452 936 q 394 699 452 897 q 631 718 610 718 q 678 707 667 718 q 690 667 690 696 q 587 590 690 606 l 353 551 z "},"u":{"ha":844,"x_min":71,"x_max":766,"o":"m 554 248 q 403 60 489 130 q 229 -10 317 -10 q 124 45 177 -10 q 71 214 71 100 q 111 457 71 294 q 146 661 146 591 q 231 718 174 718 q 294 692 271 718 q 317 640 317 666 q 283 503 317 591 q 241 353 264 450 q 218 229 218 256 q 256 139 218 139 q 415 252 315 139 q 546 484 515 366 q 600 636 576 600 q 667 672 624 672 q 738 593 738 672 q 726 547 738 582 q 686 277 686 427 q 746 66 686 100 q 766 37 766 54 q 731 -9 766 13 q 665 -31 696 -31 q 583 45 612 -31 q 554 248 554 121 z "},"v":{"ha":755,"x_min":39,"x_max":817,"o":"m 201 7 q 148 199 202 52 q 39 616 39 492 q 126 727 39 727 q 212 625 212 727 q 215 533 212 560 q 236 433 218 505 q 271 313 254 361 q 296 237 281 283 q 310 196 304 208 q 338 249 314 202 q 435 411 353 277 q 579 623 517 544 q 671 720 641 703 q 736 738 702 738 q 794 715 771 738 q 817 659 817 692 q 760 581 817 619 q 608 408 704 543 q 401 66 512 272 q 290 -51 339 -51 q 201 7 247 -51 z "},"w":{"ha":1221,"x_min":90,"x_max":1221,"o":"m 625 427 q 522 212 618 416 q 512 193 513 195 q 334 -40 397 -40 q 163 202 237 -40 q 90 606 90 445 q 118 701 90 665 q 196 736 145 736 q 253 709 228 736 q 277 656 277 682 l 271 567 q 269 486 269 526 q 298 295 269 414 q 340 176 328 176 q 409 296 349 176 q 535 535 487 454 l 534 535 q 654 704 602 664 q 725 677 699 699 q 752 627 752 656 q 750 593 752 604 q 747 572 747 581 q 861 203 747 367 q 874 212 868 196 q 902 313 880 229 q 996 584 943 469 q 1081 728 1048 700 q 1156 755 1114 755 q 1202 735 1183 755 q 1221 692 1221 715 q 1209 647 1221 663 q 1054 324 1122 530 q 957 63 984 111 q 911 16 930 16 q 807 39 848 16 q 729 126 767 62 q 661 287 692 190 q 625 427 631 384 z "},"x":{"ha":745,"x_min":-12,"x_max":751,"o":"m 320 233 q 149 -3 199 119 q 102 -80 127 -54 q 16 -56 43 -77 q -12 12 -12 -35 q 24 116 -12 54 q 204 311 60 178 q 241 346 226 331 q 111 642 111 536 q 210 754 111 754 q 283 654 278 754 q 359 440 287 551 q 434 515 394 472 q 456 538 446 528 q 578 698 541 628 q 619 755 603 742 q 666 768 635 768 q 726 743 701 768 q 751 684 751 719 q 435 325 751 610 q 664 126 543 193 q 692 105 679 117 q 698 77 698 92 q 670 17 698 43 q 602 -9 642 -9 q 320 233 502 -9 z "},"y":{"ha":818,"x_min":-1,"x_max":746,"o":"m 731 399 q 693 80 720 235 q 612 -201 665 -75 q 497 -373 559 -328 q 351 -419 436 -419 q 177 -385 260 -419 l 178 -385 q 53 -304 106 -355 q -1 -220 -1 -254 q 15 -169 -1 -188 q 57 -150 31 -150 q 94 -169 79 -150 q 347 -281 181 -281 q 476 -140 414 -281 q 555 197 538 0 q 232 31 345 31 q 116 90 159 31 q 73 230 73 148 q 112 468 73 312 q 177 662 150 625 q 264 700 203 700 q 314 672 296 700 q 332 610 332 644 q 283 495 332 600 q 223 275 223 368 q 236 203 223 228 q 264 178 250 178 q 343 198 296 178 q 452 266 389 218 q 533 340 515 315 q 562 405 551 365 q 579 579 573 444 q 587 678 583 658 q 611 715 591 699 q 664 732 631 732 q 727 713 709 732 q 746 624 746 694 l 731 399 z "},"z":{"ha":695,"x_min":-73,"x_max":702,"o":"m 547 191 q 702 100 702 191 q 657 1 702 46 q 612 23 631 12 q 463 52 557 52 q 283 31 408 52 q 111 -32 158 9 q 24 -66 73 -66 q -43 -47 -15 -66 q -73 2 -72 -27 q 15 96 -39 41 q 467 570 454 542 q 397 564 439 570 q 220 548 279 548 q 51 632 51 548 q 136 705 51 705 q 153 701 144 705 q 262 682 202 682 q 515 705 368 682 q 580 712 555 712 q 645 693 620 712 q 671 645 671 675 q 621 557 671 622 l 621 558 q 252 159 597 513 q 234 140 237 144 q 244 142 235 140 q 265 147 253 144 l 292 153 q 318 159 306 156 q 350 166 347 166 q 542 191 475 191 l 547 191 z "},"{":{"ha":585,"x_min":-5,"x_max":605,"o":"m 587 -241 l 586 -241 q 571 -265 576 -256 q 508 -304 554 -293 q 430 -315 461 -315 q 333 -304 370 -315 q 256 -248 296 -292 q 198 -148 215 -204 q 181 -3 181 -91 l 181 130 q 172 223 180 197 q 157 249 164 249 q 148 245 157 248 q 105 229 127 237 q 68 218 75 218 q 20 243 45 218 q -5 292 -5 268 q 29 350 -5 317 q 109 397 64 383 q 200 450 161 412 q 239 509 239 489 q 235 536 239 520 q 230 574 232 553 q 223 622 227 606 q 205 757 205 698 q 247 914 205 840 q 369 1022 290 988 q 467 1056 448 1056 q 537 1038 508 1056 q 566 994 566 1021 q 551 929 566 959 q 507 899 536 899 q 459 906 503 899 q 410 888 432 910 q 374 849 389 866 q 359 737 359 831 q 370 669 359 723 q 379 606 379 616 q 344 412 379 462 q 267 348 309 362 q 326 210 326 311 q 319 12 326 184 q 406 -176 312 -176 q 499 -154 445 -176 q 525 -148 515 -148 q 605 -198 605 -148 q 587 -241 605 -213 z "},"|":{"ha":446,"x_min":136,"x_max":296,"o":"m 286 162 l 286 -1 l 287 -342 q 281 -568 288 -524 q 255 -636 275 -612 q 208 -660 234 -660 q 159 -639 181 -660 q 136 -593 136 -618 l 146 461 l 157 1160 q 154 1228 157 1175 q 151 1293 151 1281 q 176 1370 151 1347 q 227 1393 208 1393 q 296 1294 296 1393 l 286 162 z "},"}":{"ha":557,"x_min":-15,"x_max":564,"o":"m 391 300 q 377 261 377 275 q 399 128 377 250 l 399 129 q 427 -54 427 20 q 369 -251 427 -172 q 190 -330 311 -330 q 87 -304 114 -330 l 87 -304 q 55 -248 55 -278 q 95 -200 55 -220 q 168 -180 135 -180 q 213 -184 175 -180 q 265 -26 265 -159 q 248 127 265 20 q 232 261 232 219 q 278 342 232 310 l 266 347 q 255 351 256 350 q 184 476 184 404 q 201 581 184 532 l 201 581 l 260 766 q 273 860 273 805 q 247 913 273 892 q 188 935 220 935 q 71 902 104 935 q 29 881 45 881 q -15 916 -15 881 q 226 1072 -15 1072 q 357 1016 292 1072 q 422 850 422 960 q 395 710 422 793 q 362 617 367 627 q 331 455 331 536 q 362 437 348 437 q 410 440 371 437 q 461 444 449 444 q 536 422 509 444 q 564 365 564 400 q 536 315 564 340 q 477 290 509 290 q 391 300 425 290 z "},"~":{"ha":1078,"x_min":58,"x_max":1038,"o":"m 235 426 l 235 427 q 140 318 182 318 q 83 337 108 318 q 58 386 58 357 q 67 467 58 433 q 106 526 76 500 l 123 543 q 184 600 162 587 l 183 600 q 276 650 222 626 q 355 675 331 675 q 428 663 384 675 q 572 570 472 650 l 659 501 q 705 483 679 483 q 773 494 726 483 l 790 497 q 839 569 808 500 q 971 686 901 686 q 1019 670 1000 686 q 1038 630 1038 655 q 940 461 1038 575 q 671 347 843 347 q 608 362 641 347 q 510 441 576 377 q 425 513 453 496 q 366 529 397 529 l 336 533 q 289 502 321 533 q 235 426 256 471 z "},"":{"ha":1077,"x_min":-14,"x_max":1062,"o":"m 273 219 q 202 93 262 191 q 120 -15 143 -4 q 79 -26 97 -26 q 21 0 55 -26 q -14 56 -14 27 q 157 341 -14 82 q 326 622 250 483 q 514 948 480 903 q 585 994 549 994 q 668 964 642 994 q 681 919 681 955 q 676 876 681 892 q 870 341 800 498 q 1011 113 941 184 q 1054 66 1046 78 q 1062 33 1062 54 q 1035 -30 1062 -4 q 970 -55 1008 -55 q 866 5 919 -55 q 765 169 812 64 q 718 286 718 273 q 715 289 718 289 q 552 263 678 289 q 349 213 425 237 q 314 207 329 207 q 273 219 288 207 m 664 427 q 568 711 648 467 q 557 740 560 734 l 365 374 q 452 387 408 381 q 604 416 482 391 q 664 427 634 422 m 741 1122 q 681 1146 707 1122 q 656 1200 656 1169 q 676 1254 656 1239 q 745 1280 697 1268 l 757 1283 q 811 1274 785 1291 q 838 1215 838 1257 q 741 1122 838 1122 m 497 1105 q 434 1122 468 1105 q 399 1159 399 1139 q 470 1260 399 1260 q 556 1232 524 1260 q 588 1154 588 1204 q 497 1105 588 1105 z "},"":{"ha":1077,"x_min":-16,"x_max":1065,"o":"m 403 251 l 404 251 q 328 233 348 233 q 287 245 301 233 l 185 66 q 77 -30 131 -30 q 18 -3 52 -30 q -16 52 -16 24 q 48 172 -16 79 q 340 646 243 458 q 495 921 446 853 q 414 1061 414 969 q 474 1182 414 1124 q 636 1240 534 1240 q 711 1217 663 1240 q 776 1143 760 1194 q 791 1083 791 1091 q 682 924 791 990 q 680 899 682 910 q 677 876 677 887 q 771 600 689 833 q 907 266 853 368 q 1013 113 960 165 q 1054 67 1042 83 q 1065 28 1065 51 q 1038 -34 1065 -9 q 974 -60 1011 -60 q 801 109 892 -60 q 710 308 710 277 q 610 298 710 315 q 446 263 511 281 q 418 255 431 258 l 403 251 m 591 986 q 667 1074 667 1000 q 661 1101 667 1080 q 654 1128 654 1122 q 638 1136 654 1131 q 618 1141 622 1141 l 610 1141 l 585 1138 q 554 1113 567 1138 q 542 1059 542 1088 q 560 1010 542 1034 q 591 986 578 986 m 656 448 q 568 713 641 485 q 558 740 561 734 l 378 400 l 420 405 q 596 437 437 405 q 656 448 626 444 z "},"":{"ha":968,"x_min":68,"x_max":958,"o":"m 339 -59 q 336 -66 339 -60 q 322 -102 322 -98 q 400 -109 357 -104 q 472 -147 444 -114 q 500 -254 500 -180 q 430 -353 500 -293 q 250 -414 359 -414 q 181 -403 220 -414 q 130 -379 143 -393 q 84 -317 84 -357 q 104 -276 84 -295 q 151 -256 125 -256 q 233 -300 180 -256 q 239 -303 235 -301 q 265 -312 258 -312 q 337 -291 308 -312 q 366 -233 366 -271 q 344 -206 366 -218 q 307 -195 322 -195 q 244 -208 262 -208 q 182 -153 182 -208 q 215 -77 199 -109 q 237 -24 230 -46 q 68 256 68 60 q 301 782 68 525 q 758 1039 534 1039 q 903 985 849 1039 q 958 858 958 930 q 943 740 958 772 q 890 685 928 707 q 828 662 852 662 q 783 680 802 662 q 764 730 764 699 q 776 793 764 751 q 787 862 787 834 q 755 909 787 909 q 545 807 673 909 q 329 553 417 705 q 241 271 241 401 q 287 138 241 193 q 420 84 332 84 q 551 112 473 84 q 694 186 628 139 q 786 235 762 235 q 838 185 838 235 q 678 26 838 122 q 339 -59 519 -71 z "},"":{"ha":947,"x_min":93,"x_max":931,"o":"m 867 841 l 658 830 q 470 811 549 824 q 385 790 391 798 q 376 749 378 783 q 351 629 372 715 q 331 523 334 564 q 456 532 374 523 q 571 549 537 541 q 722 572 669 572 q 829 509 829 572 q 800 444 829 462 q 706 419 770 426 q 618 407 667 415 q 553 399 592 403 q 332 365 366 377 l 331 365 q 314 349 319 361 q 293 249 308 337 q 278 125 278 160 q 309 100 281 100 q 480 118 342 100 q 652 142 619 136 q 774 162 745 162 q 860 82 860 150 q 840 35 860 51 q 652 -3 772 4 q 427 -26 559 -9 q 204 -52 309 -52 q 125 -28 149 -52 q 96 45 100 -5 l 94 67 q 105 109 93 73 q 172 479 132 192 q 211 800 211 767 q 207 805 211 800 q 191 831 202 809 q 180 876 180 853 q 182 896 180 888 q 212 924 185 910 q 261 939 238 939 q 326 935 293 939 q 692 975 382 935 q 800 989 795 989 l 809 989 q 931 911 931 998 q 909 870 931 895 q 867 841 887 846 m 734 1190 l 734 1190 q 623 1109 719 1175 q 581 1079 588 1084 q 563 1074 576 1074 q 521 1090 536 1074 q 505 1131 505 1107 q 602 1245 505 1171 l 602 1245 q 649 1282 628 1265 q 799 1398 768 1378 q 846 1419 831 1419 q 885 1385 863 1419 q 907 1335 907 1352 q 888 1298 907 1320 q 842 1261 869 1275 q 734 1190 810 1248 z "},"":{"ha":1120,"x_min":91,"x_max":1063,"o":"m 119 223 l 168 452 q 228 830 225 723 q 236 900 230 882 q 267 936 241 919 q 325 954 292 954 q 373 940 346 954 q 418 854 400 926 q 566 542 447 736 q 779 230 684 347 q 836 533 805 347 q 876 764 857 666 q 895 908 892 845 q 931 988 899 968 q 996 1008 963 1008 q 1043 978 1023 1008 q 1063 901 1063 947 q 1044 797 1063 864 q 960 396 1001 642 q 920 116 920 151 l 920 93 q 913 35 920 54 q 880 -1 906 16 q 812 -18 854 -18 q 775 -13 787 -18 q 745 15 764 -8 q 705 75 726 37 q 657 151 673 131 q 345 632 495 357 q 283 239 325 548 l 275 178 q 265 85 269 146 q 230 -19 260 13 q 172 -51 200 -51 q 110 -28 128 -51 q 91 63 91 -5 q 118 219 91 117 l 119 223 m 734 1157 q 682 1197 717 1165 l 667 1211 q 650 1226 659 1217 q 594 1263 613 1263 q 507 1201 559 1263 l 508 1202 q 450 1135 467 1144 q 413 1126 434 1126 q 357 1180 357 1126 q 436 1313 357 1233 q 575 1394 515 1394 q 652 1381 625 1394 q 707 1341 679 1369 q 782 1278 752 1295 q 817 1261 812 1261 q 871 1303 840 1261 q 895 1335 886 1324 q 902 1345 899 1340 q 949 1375 925 1375 q 1002 1317 1002 1375 q 946 1210 1002 1285 q 828 1135 890 1135 q 734 1157 768 1135 z "},"":{"ha":1114,"x_min":68,"x_max":1077,"o":"m 360 -47 q 157 63 245 -47 q 68 291 68 174 q 153 602 68 429 q 371 883 237 774 q 651 992 505 992 q 838 965 764 992 q 974 885 911 938 q 1056 777 1036 833 q 1077 623 1077 721 q 1022 414 1077 537 q 861 182 966 291 q 646 13 755 73 q 360 -47 537 -47 m 239 297 q 289 158 239 214 q 403 102 338 102 q 744 277 585 102 q 903 648 903 452 q 877 759 903 717 q 787 830 850 802 q 651 858 724 858 q 380 669 520 858 q 239 297 239 479 m 829 1147 q 769 1170 795 1147 q 744 1225 744 1194 q 765 1278 744 1263 q 833 1304 785 1293 l 845 1308 q 900 1298 873 1316 q 926 1239 926 1281 q 829 1147 926 1147 m 585 1129 q 522 1146 556 1129 q 488 1183 488 1163 q 558 1284 488 1284 q 644 1257 612 1284 q 676 1178 676 1229 q 585 1129 676 1129 z "},"":{"ha":1074,"x_min":111,"x_max":1028,"o":"m 484 -45 q 315 0 414 -45 q 163 154 216 45 q 111 389 111 263 q 130 559 111 454 l 152 685 q 162 747 157 717 q 176 838 170 794 q 210 950 186 912 q 283 987 233 987 q 333 949 307 987 q 358 890 358 911 q 326 741 358 876 q 297 575 317 707 q 277 397 277 444 q 353 163 277 224 q 481 103 429 103 q 719 177 653 103 q 803 417 785 250 q 811 475 806 448 q 823 607 818 544 q 870 907 839 846 q 958 967 901 967 q 1028 876 1028 967 q 1002 673 1028 821 q 981 499 986 585 q 924 198 968 294 q 765 28 880 102 q 484 -45 649 -45 m 772 1148 q 712 1172 738 1148 q 687 1226 687 1195 q 708 1279 687 1265 q 777 1305 728 1294 l 788 1309 q 843 1300 817 1317 q 869 1240 869 1282 q 772 1148 869 1148 m 528 1131 q 465 1147 499 1131 q 431 1185 431 1164 q 501 1286 431 1286 q 587 1258 555 1286 q 619 1179 619 1230 q 528 1131 619 1131 z "},"":{"ha":812,"x_min":47,"x_max":764,"o":"m 541 227 q 196 -8 362 -8 q 91 40 135 -8 q 47 163 47 88 q 207 546 47 342 q 530 749 367 749 q 638 665 612 749 q 716 606 716 665 q 701 503 716 577 q 674 279 674 363 q 686 157 674 193 q 703 111 698 122 q 736 88 709 100 q 763 52 763 75 q 728 -5 763 18 q 655 -28 693 -28 q 541 227 528 -28 m 500 604 q 322 452 431 604 q 212 195 212 300 q 235 139 212 139 q 432 281 315 139 q 549 530 549 423 q 534 584 549 564 q 500 604 519 604 m 590 910 l 591 910 q 479 829 575 895 q 437 799 444 804 q 419 793 432 793 q 377 810 393 793 q 361 851 361 827 q 458 965 361 891 l 458 965 q 505 1002 484 985 q 655 1118 624 1098 q 702 1139 687 1139 q 742 1105 720 1139 q 764 1055 764 1072 q 745 1018 764 1040 q 698 981 726 995 q 590 910 667 968 z "},"":{"ha":812,"x_min":47,"x_max":763,"o":"m 541 227 q 196 -8 362 -8 q 91 40 135 -8 q 47 163 47 88 q 207 546 47 342 q 530 749 367 749 q 638 665 612 749 q 716 606 716 665 q 701 503 716 577 q 674 279 674 363 q 686 157 674 193 q 703 111 698 122 q 736 88 709 100 q 763 52 763 75 q 728 -5 763 18 q 655 -28 693 -28 q 541 227 528 -28 m 500 604 q 322 452 431 604 q 212 195 212 300 q 235 139 212 139 q 432 281 315 139 q 549 530 549 423 q 534 584 549 564 q 500 604 519 604 m 427 895 l 395 916 q 287 995 366 933 q 208 1096 208 1057 q 236 1137 208 1114 q 292 1160 264 1160 q 327 1145 305 1160 q 418 1067 349 1129 l 566 935 q 613 861 613 894 q 545 798 613 798 q 427 895 523 798 z "},"":{"ha":812,"x_min":47,"x_max":823,"o":"m 541 227 q 196 -8 362 -8 q 91 40 135 -8 q 47 163 47 88 q 207 546 47 342 q 530 749 367 749 q 638 665 612 749 q 716 606 716 665 q 701 503 716 577 q 674 279 674 363 q 686 157 674 193 q 703 111 698 122 q 736 88 709 100 q 763 52 763 75 q 728 -5 763 18 q 655 -28 693 -28 q 541 227 528 -28 m 500 604 q 322 452 431 604 q 212 195 212 300 q 235 139 212 139 q 432 281 315 139 q 549 530 549 423 q 534 584 549 564 q 500 604 519 604 m 549 1013 q 505 966 523 987 q 469 928 486 945 l 469 928 q 435 894 462 918 q 365 823 408 868 q 308 796 340 796 q 271 807 283 796 q 259 864 259 819 q 302 937 259 902 q 320 954 312 946 l 370 1002 q 452 1093 413 1044 q 568 1182 524 1182 q 678 1050 614 1182 q 714 995 696 1017 q 729 975 718 991 q 789 903 754 939 q 818 867 812 880 q 823 835 823 855 q 803 792 823 813 q 755 770 783 770 q 656 854 711 770 q 612 912 648 869 q 549 1013 563 972 z "},"":{"ha":812,"x_min":47,"x_max":763,"o":"m 541 227 q 196 -8 362 -8 q 91 40 135 -8 q 47 163 47 88 q 207 546 47 342 q 530 749 367 749 q 638 665 612 749 q 716 606 716 665 q 701 503 716 577 q 674 279 674 363 q 686 157 674 193 q 703 111 698 122 q 736 88 709 100 q 763 52 763 75 q 728 -5 763 18 q 655 -28 693 -28 q 541 227 528 -28 m 500 604 q 322 452 431 604 q 212 195 212 300 q 235 139 212 139 q 432 281 315 139 q 549 530 549 423 q 534 584 549 564 q 500 604 519 604 m 643 837 q 584 860 609 837 q 558 915 558 884 q 579 968 558 954 q 648 994 600 983 l 659 998 q 714 988 688 1006 q 740 929 740 971 q 643 837 740 837 m 399 819 q 336 836 370 819 q 302 873 302 853 q 372 975 302 975 q 458 947 426 975 q 490 868 490 919 q 399 819 490 819 z "},"":{"ha":812,"x_min":47,"x_max":855,"o":"m 541 227 q 196 -8 362 -8 q 91 40 135 -8 q 47 163 47 88 q 207 546 47 342 q 530 749 367 749 q 638 665 612 749 q 716 606 716 665 q 701 503 716 577 q 674 279 674 363 q 686 157 674 193 q 703 111 698 122 q 736 88 709 100 q 763 52 763 75 q 728 -5 763 18 q 655 -28 693 -28 q 541 227 528 -28 m 500 604 q 322 452 431 604 q 212 195 212 300 q 235 139 212 139 q 432 281 315 139 q 549 530 549 423 q 534 584 549 564 q 500 604 519 604 m 588 812 q 536 852 570 820 l 521 865 q 504 881 513 871 q 448 918 467 918 q 361 856 413 918 l 361 857 q 304 790 320 799 q 267 781 288 781 q 211 835 211 781 q 290 968 211 888 q 429 1048 369 1048 q 506 1036 479 1048 q 560 996 532 1023 q 635 933 606 950 q 671 916 665 916 q 724 958 694 916 q 748 990 739 979 q 755 1000 752 995 q 803 1029 779 1029 q 855 972 855 1029 q 800 865 855 940 q 682 789 744 789 q 588 812 622 789 z "},"":{"ha":812,"x_min":47,"x_max":763,"o":"m 541 227 q 196 -8 362 -8 q 91 40 135 -8 q 47 163 47 88 q 207 546 47 342 q 530 749 367 749 q 638 665 612 749 q 716 606 716 665 q 701 503 716 577 q 674 279 674 363 q 686 157 674 193 q 703 111 698 122 q 736 88 709 100 q 763 52 763 75 q 728 -5 763 18 q 655 -28 693 -28 q 541 227 528 -28 m 500 604 q 322 452 431 604 q 212 195 212 300 q 235 139 212 139 q 432 281 315 139 q 549 530 549 423 q 534 584 549 564 q 500 604 519 604 m 705 1036 q 719 977 719 1003 q 652 852 719 909 q 513 795 585 795 q 390 844 439 795 q 342 961 342 892 q 402 1080 342 1022 q 564 1137 463 1137 q 639 1114 589 1137 q 705 1036 689 1090 l 705 1036 m 505 1034 q 481 1007 492 1032 q 470 956 470 982 q 487 908 470 933 q 519 884 505 884 q 560 900 524 884 q 595 971 595 916 q 593 983 595 975 q 589 1000 591 991 l 584 1017 q 581 1026 581 1024 q 562 1035 581 1031 q 534 1038 543 1038 q 505 1034 518 1038 z "},"":{"ha":701,"x_min":20,"x_max":648,"o":"m 264 -41 q 258 -61 264 -43 q 251 -83 251 -79 q 298 -78 258 -78 q 375 -93 346 -78 q 417 -135 404 -107 q 431 -234 431 -163 q 404 -294 431 -259 q 341 -351 377 -329 l 341 -351 q 186 -394 277 -394 q 76 -365 132 -394 q 20 -297 20 -336 q 38 -258 20 -277 q 82 -239 56 -239 q 124 -253 95 -239 q 168 -276 153 -266 q 195 -285 179 -285 q 295 -216 295 -285 q 277 -187 295 -201 q 243 -173 258 -173 q 233 -175 240 -173 q 180 -188 191 -188 q 117 -133 117 -188 q 159 -12 125 -115 q 48 195 48 44 q 187 564 48 366 q 459 762 326 762 q 569 699 523 762 q 614 564 614 635 q 592 484 614 517 q 538 451 569 451 q 489 473 511 451 q 450 568 467 494 q 434 609 441 609 q 295 456 382 609 q 208 197 208 304 q 307 105 208 105 q 517 191 395 105 q 600 227 569 227 q 632 215 617 227 q 648 182 648 202 q 517 41 648 122 q 264 -41 387 -39 z "},"":{"ha":720,"x_min":50,"x_max":683,"o":"m 683 233 q 564 65 683 163 q 296 -33 446 -33 q 116 39 182 -33 q 50 240 50 111 q 184 596 50 430 q 471 762 319 762 q 593 714 547 762 q 640 600 640 666 q 526 375 640 481 q 236 227 413 268 q 216 203 216 222 q 244 141 216 170 q 321 111 273 111 q 592 252 458 111 q 642 279 618 279 q 683 233 683 279 m 228 353 q 417 445 335 375 q 498 572 498 515 q 486 609 498 594 q 454 625 473 625 q 323 538 395 625 q 228 353 251 451 m 484 926 l 484 926 q 373 844 469 910 q 331 814 338 820 q 313 809 326 809 q 271 826 286 809 q 255 867 255 842 q 352 981 255 907 l 351 981 q 399 1018 378 1001 q 549 1134 517 1114 q 595 1154 581 1154 q 635 1121 613 1154 q 657 1071 657 1088 q 638 1033 657 1056 q 591 997 619 1010 q 484 926 560 983 z "},"":{"ha":720,"x_min":50,"x_max":683,"o":"m 683 233 q 564 65 683 163 q 296 -33 446 -33 q 116 39 182 -33 q 50 240 50 111 q 184 596 50 430 q 471 762 319 762 q 593 714 547 762 q 640 600 640 666 q 526 375 640 481 q 236 227 413 268 q 216 203 216 222 q 244 141 216 170 q 321 111 273 111 q 592 252 458 111 q 642 279 618 279 q 683 233 683 279 m 228 353 q 417 445 335 375 q 498 572 498 515 q 486 609 498 594 q 454 625 473 625 q 323 538 395 625 q 228 353 251 451 m 315 914 l 283 935 q 175 1015 254 953 q 96 1116 96 1076 q 124 1157 96 1134 q 180 1180 153 1180 q 215 1164 193 1180 q 306 1086 237 1149 l 454 955 q 501 881 501 913 q 433 818 501 818 q 315 914 411 818 z "},"":{"ha":720,"x_min":50,"x_max":728,"o":"m 683 233 q 564 65 683 163 q 296 -33 446 -33 q 116 39 182 -33 q 50 240 50 111 q 184 596 50 430 q 471 762 319 762 q 593 714 547 762 q 640 600 640 666 q 526 375 640 481 q 236 227 413 268 q 216 203 216 222 q 244 141 216 170 q 321 111 273 111 q 592 252 458 111 q 642 279 618 279 q 683 233 683 279 m 228 353 q 417 445 335 375 q 498 572 498 515 q 486 609 498 594 q 454 625 473 625 q 323 538 395 625 q 228 353 251 451 m 454 1001 q 410 954 428 975 q 374 916 391 932 l 374 916 q 340 882 367 905 q 270 810 313 856 q 213 784 245 784 q 176 795 189 784 q 164 852 164 806 q 207 925 164 890 q 225 942 217 934 l 275 990 q 357 1080 318 1031 q 473 1170 429 1170 q 583 1038 519 1170 q 619 983 601 1004 q 634 963 623 979 q 694 891 659 926 q 723 855 717 867 q 728 823 728 843 q 708 780 728 801 q 661 758 688 758 q 562 842 616 758 q 517 900 553 857 q 454 1001 468 960 z "},"":{"ha":720,"x_min":50,"x_max":683,"o":"m 683 233 q 564 65 683 163 q 296 -33 446 -33 q 116 39 182 -33 q 50 240 50 111 q 184 596 50 430 q 471 762 319 762 q 593 714 547 762 q 640 600 640 666 q 526 375 640 481 q 236 227 413 268 q 216 203 216 222 q 244 141 216 170 q 321 111 273 111 q 592 252 458 111 q 642 279 618 279 q 683 233 683 279 m 228 353 q 417 445 335 375 q 498 572 498 515 q 486 609 498 594 q 454 625 473 625 q 323 538 395 625 q 228 353 251 451 m 564 839 q 504 862 530 839 q 479 917 479 886 q 499 970 479 956 q 568 996 520 985 l 580 1000 q 634 990 608 1008 q 661 931 661 973 q 564 839 661 839 m 320 821 q 257 838 291 821 q 222 876 222 855 q 293 977 222 977 q 379 949 347 977 q 411 870 411 921 q 320 821 411 821 z "},"":{"ha":399,"x_min":79,"x_max":602,"o":"m 124 450 l 124 450 q 146 591 146 573 q 168 675 146 641 q 229 709 190 709 q 301 687 275 709 q 327 638 327 665 q 302 526 327 611 l 298 511 q 253 298 260 380 q 245 164 245 215 q 260 54 245 123 q 262 33 262 41 q 232 -9 262 18 q 169 -35 203 -35 q 79 100 79 -35 q 112 381 79 216 q 124 450 119 418 m 428 913 l 429 913 q 317 832 413 898 q 275 802 282 808 q 257 797 270 797 q 215 813 231 797 q 199 854 199 830 q 296 968 199 895 l 296 968 q 343 1006 322 989 q 493 1122 462 1101 q 540 1142 525 1142 q 579 1109 557 1142 q 602 1059 602 1076 q 583 1021 602 1044 q 536 985 564 998 q 428 913 505 971 z "},"":{"ha":399,"x_min":-42,"x_max":363,"o":"m 124 450 l 124 450 q 146 591 146 573 q 168 675 146 641 q 229 709 190 709 q 301 687 275 709 q 327 638 327 665 q 302 526 327 611 l 298 511 q 253 298 260 380 q 245 164 245 215 q 260 54 245 123 q 262 33 262 41 q 232 -9 262 18 q 169 -35 203 -35 q 79 100 79 -35 q 112 381 79 216 q 124 450 119 418 m 177 892 l 145 913 q 37 993 117 931 q -42 1094 -42 1055 q -14 1135 -42 1112 q 42 1158 15 1158 q 77 1143 56 1158 q 168 1065 99 1127 l 317 933 q 363 859 363 892 q 295 796 363 796 q 177 892 273 796 z "},"":{"ha":399,"x_min":-11,"x_max":553,"o":"m 124 450 l 124 450 q 146 591 146 573 q 168 675 146 641 q 229 709 190 709 q 301 687 275 709 q 327 638 327 665 q 302 526 327 611 l 298 511 q 253 298 260 380 q 245 164 245 215 q 260 54 245 123 q 262 33 262 41 q 232 -9 262 18 q 169 -35 203 -35 q 79 100 79 -35 q 112 381 79 216 q 124 450 119 418 m 279 967 q 235 920 253 941 q 199 882 216 899 l 199 882 q 165 848 192 871 q 95 777 138 822 q 38 750 70 750 q 1 761 14 750 q -11 818 -11 772 q 32 891 -11 856 q 50 908 42 900 l 100 956 q 182 1046 143 998 q 298 1136 254 1136 q 408 1004 344 1136 q 444 949 426 970 q 459 929 448 945 q 519 857 484 892 q 548 821 542 833 q 553 789 553 809 q 533 746 553 767 q 486 724 513 724 q 387 808 441 724 q 342 866 378 823 q 279 967 293 926 z "},"":{"ha":399,"x_min":54,"x_max":492,"o":"m 124 450 l 124 450 q 146 591 146 573 q 168 675 146 641 q 229 709 190 709 q 301 687 275 709 q 327 638 327 665 q 302 526 327 611 l 298 511 q 253 298 260 380 q 245 164 245 215 q 260 54 245 123 q 262 33 262 41 q 232 -9 262 18 q 169 -35 203 -35 q 79 100 79 -35 q 112 381 79 216 q 124 450 119 418 m 395 838 q 335 861 361 838 q 310 916 310 884 q 331 969 310 954 q 399 995 351 983 l 411 998 q 466 989 439 1006 q 492 930 492 972 q 395 838 492 838 m 151 820 q 88 837 122 820 q 54 874 54 854 q 124 975 54 975 q 210 947 178 975 q 242 869 242 920 q 151 820 242 820 z "},"":{"ha":918,"x_min":56,"x_max":915,"o":"m 646 99 q 598 327 613 160 q 532 500 583 500 q 363 320 483 500 q 215 53 243 139 q 192 10 209 27 q 159 -7 176 -7 q 56 87 56 -7 q 77 233 56 119 q 103 591 103 379 q 131 659 103 623 q 190 695 159 695 q 250 675 229 695 q 271 571 271 656 q 233 321 271 507 q 561 666 380 666 q 745 418 718 666 q 808 166 772 166 q 844 173 823 166 q 882 181 868 181 q 915 143 915 181 q 870 70 915 109 q 758 31 825 31 q 645 99 679 31 l 646 99 m 564 831 q 511 871 546 840 l 496 885 q 479 901 488 891 q 423 937 442 937 q 336 876 389 937 l 337 876 q 279 809 296 819 q 242 800 263 800 q 186 854 186 800 q 266 988 186 907 q 404 1068 345 1068 q 481 1056 454 1068 q 536 1015 508 1043 q 611 952 581 970 q 646 935 641 935 q 700 977 669 935 q 724 1010 715 999 q 731 1020 728 1015 q 779 1049 754 1049 q 831 991 831 1049 q 775 884 831 960 q 657 809 720 809 q 564 831 597 809 z "},"":{"ha":783,"x_min":60,"x_max":769,"o":"m 717 344 q 544 76 671 185 q 290 -33 417 -33 q 125 41 190 -33 q 60 222 60 115 q 179 566 60 397 q 469 736 298 736 q 656 650 585 736 q 728 446 728 564 q 717 345 728 394 l 717 344 m 364 558 q 271 424 317 516 q 226 239 226 332 q 247 146 226 182 q 301 109 267 109 q 476 209 385 109 q 567 433 567 309 q 537 548 567 503 q 455 593 508 593 q 365 558 405 593 l 364 558 m 595 911 l 596 911 q 485 829 581 895 q 443 800 450 805 q 425 794 437 794 q 382 811 398 794 q 367 852 367 827 q 464 966 367 892 l 463 966 q 511 1003 490 986 q 661 1119 629 1099 q 707 1139 692 1139 q 747 1106 725 1139 q 769 1056 769 1073 q 750 1018 769 1041 q 703 982 731 996 q 595 911 672 968 z "},"":{"ha":783,"x_min":60,"x_max":728,"o":"m 717 344 q 544 76 671 185 q 290 -33 417 -33 q 125 41 190 -33 q 60 222 60 115 q 179 566 60 397 q 469 736 298 736 q 656 650 585 736 q 728 446 728 564 q 717 345 728 394 l 717 344 m 364 558 q 271 424 317 516 q 226 239 226 332 q 247 146 226 182 q 301 109 267 109 q 476 209 385 109 q 567 433 567 309 q 537 548 567 503 q 455 593 508 593 q 365 558 405 593 l 364 558 m 385 892 l 353 913 q 245 993 324 931 q 165 1094 165 1055 q 194 1135 165 1112 q 250 1158 222 1158 q 285 1143 263 1158 q 376 1065 307 1127 l 524 933 q 571 859 571 892 q 503 796 571 796 q 385 892 481 796 z "},"":{"ha":783,"x_min":60,"x_max":779,"o":"m 717 344 q 544 76 671 185 q 290 -33 417 -33 q 125 41 190 -33 q 60 222 60 115 q 179 566 60 397 q 469 736 298 736 q 656 650 585 736 q 728 446 728 564 q 717 345 728 394 l 717 344 m 364 558 q 271 424 317 516 q 226 239 226 332 q 247 146 226 182 q 301 109 267 109 q 476 209 385 109 q 567 433 567 309 q 537 548 567 503 q 455 593 508 593 q 365 558 405 593 l 364 558 m 505 1005 q 460 958 478 979 q 424 920 441 937 l 425 920 q 391 886 417 909 q 320 814 363 860 q 263 788 295 788 q 227 799 239 788 q 214 856 214 810 q 257 929 214 894 q 275 946 267 938 l 325 994 q 408 1084 368 1036 q 523 1174 479 1174 q 633 1042 569 1174 q 669 987 651 1008 q 684 967 673 983 q 744 895 709 930 q 773 859 767 871 q 779 827 779 847 q 758 784 779 805 q 711 762 738 762 q 612 846 666 762 q 568 904 603 861 q 505 1005 518 964 z "},"":{"ha":783,"x_min":60,"x_max":728,"o":"m 717 344 q 544 76 671 185 q 290 -33 417 -33 q 125 41 190 -33 q 60 222 60 115 q 179 566 60 397 q 469 736 298 736 q 656 650 585 736 q 728 446 728 564 q 717 345 728 394 l 717 344 m 364 558 q 271 424 317 516 q 226 239 226 332 q 247 146 226 182 q 301 109 267 109 q 476 209 385 109 q 567 433 567 309 q 537 548 567 503 q 455 593 508 593 q 365 558 405 593 l 364 558 m 604 836 q 545 860 570 836 q 519 914 519 883 q 540 967 519 953 q 609 994 561 982 l 621 997 q 675 988 649 1005 q 701 928 701 970 q 604 836 701 836 m 361 819 q 297 836 332 819 q 263 873 263 852 q 334 974 263 974 q 419 946 387 974 q 452 867 452 918 q 361 819 452 819 z "},"":{"ha":783,"x_min":60,"x_max":831,"o":"m 717 344 q 544 76 671 185 q 290 -33 417 -33 q 125 41 190 -33 q 60 222 60 115 q 179 566 60 397 q 469 736 298 736 q 656 650 585 736 q 728 446 728 564 q 717 345 728 394 l 717 344 m 364 558 q 271 424 317 516 q 226 239 226 332 q 247 146 226 182 q 301 109 267 109 q 476 209 385 109 q 567 433 567 309 q 537 548 567 503 q 455 593 508 593 q 365 558 405 593 l 364 558 m 564 824 q 512 864 547 832 l 497 878 q 480 893 489 884 q 424 930 443 930 q 337 868 389 930 l 338 869 q 280 802 296 811 q 243 793 264 793 q 187 847 187 793 q 266 980 187 900 q 405 1061 345 1061 q 482 1048 455 1061 q 536 1008 509 1036 q 612 945 582 962 q 647 928 642 928 q 701 970 670 928 q 724 1002 715 991 q 732 1013 728 1007 q 779 1042 755 1042 q 831 984 831 1042 q 776 877 831 952 q 658 802 720 802 q 564 824 598 802 z "},"":{"ha":844,"x_min":70,"x_max":765,"o":"m 553 248 q 402 60 488 130 q 229 -10 317 -10 q 123 45 176 -10 q 70 214 70 100 q 111 457 70 294 q 146 661 146 591 q 231 718 173 718 q 293 692 270 718 q 317 640 317 666 q 283 503 317 591 q 240 353 263 450 q 218 229 218 256 q 255 139 218 139 q 414 252 314 139 q 545 484 515 366 q 600 636 576 600 q 667 672 623 672 q 737 593 737 672 q 726 547 737 582 q 686 277 686 427 q 745 66 686 100 q 765 37 765 54 q 730 -9 765 13 q 665 -31 696 -31 q 582 45 611 -31 q 553 248 553 121 m 580 911 l 581 911 q 469 830 565 896 q 427 800 434 806 q 409 795 422 795 q 367 811 382 795 q 351 852 351 828 q 448 966 351 892 l 448 966 q 495 1004 474 987 q 645 1120 614 1099 q 692 1140 677 1140 q 731 1107 709 1140 q 753 1057 753 1074 q 734 1019 753 1042 q 688 983 715 996 q 580 911 656 969 z "},"":{"ha":844,"x_min":70,"x_max":765,"o":"m 553 248 q 402 60 488 130 q 229 -10 317 -10 q 123 45 176 -10 q 70 214 70 100 q 111 457 70 294 q 146 661 146 591 q 231 718 173 718 q 293 692 270 718 q 317 640 317 666 q 283 503 317 591 q 240 353 263 450 q 218 229 218 256 q 255 139 218 139 q 414 252 314 139 q 545 484 515 366 q 600 636 576 600 q 667 672 623 672 q 737 593 737 672 q 726 547 737 582 q 686 277 686 427 q 745 66 686 100 q 765 37 765 54 q 730 -9 765 13 q 665 -31 696 -31 q 582 45 611 -31 q 553 248 553 121 m 351 890 l 319 911 q 212 991 291 929 q 132 1092 132 1053 q 161 1133 132 1110 q 216 1156 189 1156 q 252 1141 230 1156 q 342 1063 273 1125 l 491 931 q 538 857 538 890 q 469 794 538 794 q 351 890 448 794 z "},"":{"ha":844,"x_min":70,"x_max":772,"o":"m 553 248 q 402 60 488 130 q 229 -10 317 -10 q 123 45 176 -10 q 70 214 70 100 q 111 457 70 294 q 146 661 146 591 q 231 718 173 718 q 293 692 270 718 q 317 640 317 666 q 283 503 317 591 q 240 353 263 450 q 218 229 218 256 q 255 139 218 139 q 414 252 314 139 q 545 484 515 366 q 600 636 576 600 q 667 672 623 672 q 737 593 737 672 q 726 547 737 582 q 686 277 686 427 q 745 66 686 100 q 765 37 765 54 q 730 -9 765 13 q 665 -31 696 -31 q 582 45 611 -31 q 553 248 553 121 m 498 1024 q 453 977 471 998 q 417 939 434 956 l 418 939 q 384 905 410 928 q 313 833 356 879 q 256 807 288 807 q 220 818 232 807 q 208 875 208 829 q 250 948 208 913 q 269 965 260 957 l 318 1013 q 401 1103 361 1055 q 516 1193 473 1193 q 627 1061 562 1193 q 663 1006 644 1027 q 677 986 666 1002 q 737 914 703 949 q 766 878 760 890 q 772 846 772 866 q 751 803 772 824 q 704 781 731 781 q 605 865 659 781 q 561 923 596 880 q 498 1024 511 983 z "},"":{"ha":844,"x_min":70,"x_max":765,"o":"m 553 248 q 402 60 488 130 q 229 -10 317 -10 q 123 45 176 -10 q 70 214 70 100 q 111 457 70 294 q 146 661 146 591 q 231 718 173 718 q 293 692 270 718 q 317 640 317 666 q 283 503 317 591 q 240 353 263 450 q 218 229 218 256 q 255 139 218 139 q 414 252 314 139 q 545 484 515 366 q 600 636 576 600 q 667 672 623 672 q 737 593 737 672 q 726 547 737 582 q 686 277 686 427 q 745 66 686 100 q 765 37 765 54 q 730 -9 765 13 q 665 -31 696 -31 q 582 45 611 -31 q 553 248 553 121 m 600 838 q 541 861 566 838 q 515 916 515 884 q 536 969 515 954 q 605 995 557 983 l 616 998 q 671 989 645 1006 q 697 930 697 972 q 600 838 697 838 m 357 820 q 293 837 328 820 q 259 874 259 854 q 330 975 259 975 q 415 947 383 975 q 448 869 448 920 q 357 820 448 820 z "},"":{"ha":576,"x_min":2,"x_max":572,"o":"m 231 536 q 167 527 223 536 q 86 517 111 517 q 26 538 50 517 q 2 596 2 558 q 227 670 2 670 l 249 669 q 254 670 252 669 l 258 729 q 270 791 262 760 q 289 853 278 823 q 313 906 300 883 q 338 942 326 928 q 361 961 351 956 q 382 966 372 966 q 429 948 408 966 q 450 913 450 930 q 432 859 450 903 q 410 802 412 811 l 410 803 q 406 782 410 796 q 385 689 389 722 q 431 692 423 691 q 503 701 484 701 q 551 678 530 701 q 572 634 572 656 q 481 564 572 564 l 409 564 q 371 552 371 564 q 354 338 370 541 q 338 131 338 135 q 315 93 336 110 q 266 76 294 76 q 206 112 238 76 q 174 170 174 147 q 184 215 174 173 q 201 316 195 254 q 218 441 208 386 q 231 536 231 517 z "},"":{"ha":701,"x_min":113,"x_max":616,"o":"m 337 526 q 176 582 239 526 q 113 727 113 638 q 182 871 113 781 q 317 962 250 962 l 410 970 q 488 955 434 970 q 579 864 543 940 q 616 758 616 789 q 535 596 616 667 q 337 526 454 526 m 493 743 q 479 821 493 786 q 448 857 465 857 q 418 845 437 857 q 392 833 399 833 q 361 838 381 833 q 334 841 342 841 q 277 801 302 841 q 252 721 252 761 q 284 664 252 689 q 347 638 317 638 q 422 647 389 638 q 475 694 456 656 q 493 742 493 732 l 493 743 z "},"":{"ha":704,"x_min":64,"x_max":651,"o":"m 489 608 q 463 468 477 561 q 448 368 448 375 q 525 404 458 370 q 571 418 551 418 q 613 403 597 418 q 629 374 629 389 q 513 267 629 294 q 447 246 458 254 q 430 208 436 239 q 422 129 423 176 q 405 24 418 55 q 350 -7 391 -7 q 293 20 317 -7 q 269 78 269 47 q 295 208 269 99 q 297 218 297 217 q 222 226 260 218 q 206 229 212 228 q 110 302 156 239 q 64 414 64 366 q 81 516 64 477 q 110 578 98 555 q 182 641 121 602 q 268 691 242 681 q 340 707 293 701 l 353 712 q 370 716 368 716 q 387 891 387 829 q 466 952 387 952 q 515 929 495 952 q 535 881 535 907 q 532 848 535 864 q 530 831 530 832 q 517 777 528 816 q 509 737 511 751 q 544 721 522 731 q 651 625 651 677 q 636 572 651 585 q 582 559 621 559 q 513 593 555 559 q 489 608 498 605 m 355 593 q 195 413 195 528 q 223 365 195 393 q 267 336 250 336 q 317 358 315 336 q 340 502 323 411 q 355 593 347 538 z "},"":{"ha":926,"x_min":26,"x_max":895,"o":"m 250 100 q 111 16 130 16 q 52 34 78 16 q 26 74 26 52 q 48 128 26 95 l 47 128 q 100 193 75 171 q 138 220 125 216 q 171 224 150 224 q 260 368 218 284 l 210 368 q 111 387 155 368 q 67 433 67 406 q 134 509 67 509 q 198 497 147 509 q 213 494 208 494 q 288 504 288 494 q 298 644 294 614 q 325 738 302 675 q 395 845 348 802 q 491 910 441 889 q 582 932 540 932 q 690 897 640 932 q 741 814 741 861 q 724 768 741 801 q 654 734 708 734 q 574 785 616 734 q 559 795 566 795 q 477 718 522 795 q 431 541 431 641 l 431 537 q 470 547 448 543 q 511 557 492 552 l 511 557 q 597 580 563 569 q 681 595 646 595 q 738 578 711 595 q 766 543 766 562 q 729 478 766 497 l 730 478 q 586 444 701 463 l 587 444 q 427 404 471 422 q 421 363 429 404 q 352 241 413 322 q 329 207 339 223 q 437 174 345 204 l 437 174 q 538 138 460 168 l 537 138 q 690 102 627 102 q 727 114 709 102 q 746 150 746 127 l 745 163 q 764 212 744 189 q 821 234 783 234 q 884 188 864 234 q 895 137 895 172 q 815 19 895 66 q 656 -29 735 -29 q 390 47 578 -29 q 250 100 288 92 z "},"":{"ha":579,"x_min":45,"x_max":531,"o":"m 408 355 q 418 349 414 350 q 492 274 475 310 q 509 187 509 239 q 438 38 509 92 q 249 -16 368 -16 q 64 83 119 -16 l 64 82 q 45 142 45 116 q 92 226 45 226 q 158 210 136 226 q 193 145 179 194 q 262 97 207 97 q 340 121 303 97 q 376 170 376 145 q 299 262 376 227 q 148 353 211 303 q 68 434 85 402 q 52 521 52 466 q 77 603 52 561 q 141 671 102 645 q 178 696 154 678 q 214 716 200 711 q 138 793 156 764 l 138 792 q 121 867 121 823 q 141 935 121 873 q 231 1018 161 998 q 350 1038 301 1038 q 471 1006 410 1038 q 531 928 531 975 q 503 864 531 896 q 441 832 475 832 q 397 871 414 832 q 336 929 380 929 q 289 915 317 929 q 262 884 262 901 q 276 814 262 829 q 374 748 290 799 q 486 647 443 706 q 530 522 530 587 q 493 432 530 482 q 408 355 457 382 m 340 610 l 318 621 q 311 624 312 623 q 235 597 266 624 q 204 530 204 570 q 222 467 204 489 q 300 414 240 444 q 317 427 304 418 q 365 468 343 442 q 387 518 387 494 q 373 575 387 547 q 340 610 359 604 z "},"":{"ha":592,"x_min":86,"x_max":507,"o":"m 409 669 q 443 650 415 663 q 481 625 469 639 q 500 573 493 612 q 507 490 507 534 q 429 360 507 374 q 395 334 413 358 q 329 301 370 301 q 213 316 283 301 q 133 364 144 330 q 127 376 130 371 q 86 546 86 465 q 144 663 86 612 q 279 715 203 715 q 348 695 311 715 q 368 686 357 690 q 409 669 394 679 z "},"":{"ha":926,"x_min":73,"x_max":859,"o":"m 812 -35 q 777 -63 802 -52 q 736 -75 753 -75 q 645 51 670 -75 q 621 269 621 176 q 661 664 621 433 q 688 831 688 816 q 669 836 688 836 q 530 823 634 836 q 345 768 425 810 q 241 687 264 727 q 218 618 218 647 q 273 535 218 578 q 357 491 328 491 q 359 506 358 496 q 367 640 367 558 q 385 719 367 696 q 444 743 404 743 q 499 682 499 743 q 488 492 499 632 q 510 494 498 494 q 582 433 582 494 q 569 392 582 404 q 523 375 555 381 q 494 357 498 370 l 494 357 q 484 208 484 324 l 484 158 q 491 0 484 68 q 497 -63 497 -49 q 473 -109 497 -89 q 422 -130 448 -130 q 361 -45 387 -130 q 334 136 334 40 q 341 264 334 214 q 340 341 347 331 q 288 361 333 352 q 160 444 247 368 q 73 612 73 519 q 101 732 73 669 q 168 825 130 795 q 304 895 206 854 q 503 951 401 936 l 534 957 q 680 971 620 971 q 798 937 737 971 q 859 857 859 903 q 823 811 859 831 q 812 761 812 804 q 789 575 810 722 q 765 391 767 429 q 762 288 762 354 q 774 105 762 171 q 807 -20 785 39 l 812 -35 z "},"":{"ha":857,"x_min":-74,"x_max":807,"o":"m 392 237 q 417 187 405 208 q 435 149 429 165 q 502 121 446 121 q 653 285 608 121 q 618 352 652 317 q 532 415 583 387 q 474 446 481 443 q 416 454 467 448 q 355 463 365 458 q 318 503 335 469 q 302 556 302 537 q 332 612 302 588 q 404 642 363 637 q 477 671 438 646 l 475 670 q 566 813 566 739 q 518 894 566 863 q 416 925 471 925 q 342 863 374 925 q 285 670 310 802 q 245 334 260 538 l 220 22 q 201 -110 212 -75 l 202 -109 q 129 -265 188 -189 q 16 -342 70 -342 q -54 -329 -33 -342 q -74 -279 -74 -317 q -66 -245 -74 -256 q -22 -208 -58 -235 l -22 -208 q 47 -106 28 -178 q 72 85 66 -35 q 90 361 76 190 l 96 438 q 158 835 119 749 q 268 985 196 922 q 448 1048 340 1048 q 583 1018 511 1048 q 690 918 654 987 q 726 792 726 848 q 488 564 726 625 q 473 559 477 561 q 615 526 592 533 q 681 496 639 518 q 744 447 722 473 q 786 370 765 420 q 807 285 807 319 q 707 81 807 164 q 469 -3 607 -3 q 337 33 395 -3 q 271 126 278 68 l 270 140 q 290 211 267 189 q 392 237 313 233 z "},"":{"ha":1296,"x_min":53,"x_max":1236,"o":"m 503 882 q 524 981 503 963 q 598 1011 546 999 q 695 1023 651 1023 q 876 997 794 1023 q 998 942 958 971 q 1104 837 1038 913 q 1203 701 1171 760 q 1236 608 1236 642 q 1218 477 1236 532 q 1152 365 1205 436 q 1044 254 1098 294 q 846 151 1002 224 q 623 81 779 119 q 434 62 546 62 l 351 68 q 189 144 285 72 q 73 278 94 217 q 53 376 53 340 q 80 477 53 415 q 159 613 106 539 q 240 710 212 688 q 397 813 268 733 q 503 882 488 869 m 724 912 q 732 907 728 909 q 820 801 820 848 q 788 734 820 785 q 707 789 720 786 q 654 792 694 792 q 507 741 611 792 q 299 586 402 690 q 197 410 197 481 q 225 280 197 317 q 326 217 254 243 q 463 191 397 191 q 727 234 614 191 q 928 318 840 278 q 1060 431 1016 357 q 1104 581 1104 505 q 965 807 1104 703 q 724 912 827 912 m 632 428 q 633 390 632 422 q 622 334 633 358 q 595 297 610 310 q 563 284 581 284 q 517 303 540 284 q 489 348 494 322 l 489 555 q 477 589 489 577 q 450 635 450 614 q 467 668 450 650 q 502 691 484 686 q 591 703 521 696 q 685 710 662 710 q 805 655 753 710 q 857 573 857 600 q 833 534 857 555 q 770 500 809 513 q 792 492 784 496 q 812 484 800 488 q 936 432 911 448 q 960 391 960 416 q 935 357 960 376 q 886 338 909 338 q 836 347 857 338 q 735 393 814 355 q 632 428 657 430 m 612 588 q 615 522 612 552 q 724 574 641 536 q 673 606 724 606 q 643 598 671 606 q 612 588 615 590 z "},"":{"ha":1325,"x_min":91,"x_max":1305,"o":"m 848 860 q 960 843 867 859 q 1105 805 1053 828 q 1197 754 1158 782 q 1254 705 1236 727 q 1288 637 1271 682 q 1305 583 1305 592 q 1205 378 1305 488 q 843 162 1105 268 q 417 57 581 57 q 299 80 385 57 q 183 124 214 103 q 122 207 153 146 q 91 294 91 268 q 125 475 91 338 q 258 751 159 613 q 485 951 357 890 q 687 1013 613 1013 q 797 969 736 1013 q 858 890 858 925 q 848 860 858 881 m 724 768 l 722 769 q 676 787 684 777 q 673 844 669 798 q 730 859 705 857 q 713 881 720 878 q 687 885 707 885 q 538 824 643 885 q 335 590 433 763 q 237 301 237 416 q 298 215 237 252 q 421 178 359 178 q 823 279 597 178 q 1114 469 1048 380 q 1179 595 1179 557 q 1088 687 1179 625 q 724 768 998 749 m 516 656 l 515 656 q 701 739 621 739 q 791 701 751 739 q 831 614 831 663 q 824 582 831 594 q 789 556 817 570 q 741 543 760 543 q 690 610 695 543 q 677 613 683 613 q 599 563 656 613 q 542 437 542 513 q 595 389 542 389 q 752 423 667 389 q 864 503 838 458 q 913 524 877 524 q 952 487 952 524 q 878 385 952 444 q 724 304 804 327 q 680 291 700 297 q 570 269 608 269 q 453 319 500 269 q 405 431 405 369 q 437 553 405 488 q 516 656 470 618 z "},"":{"ha":1435,"x_min":87,"x_max":1407,"o":"m 1183 789 q 1136 720 1167 775 q 1044 582 1075 612 q 985 552 1014 552 q 940 568 958 552 q 905 606 922 584 q 859 663 884 638 q 810 714 833 688 l 789 616 q 754 510 774 543 q 695 478 734 478 q 640 500 667 478 q 613 540 613 522 q 701 799 613 581 q 716 840 716 838 q 711 848 716 848 q 616 842 684 848 l 515 833 q 478 827 481 830 q 463 795 474 824 q 437 711 452 766 q 422 620 422 655 q 428 595 422 610 q 433 564 433 579 q 405 507 433 535 q 357 478 377 478 q 283 593 283 478 q 317 774 283 684 q 334 834 328 803 q 202 794 312 832 q 172 787 183 787 q 87 844 87 787 q 121 899 87 868 q 222 938 155 930 l 333 949 q 385 956 359 952 q 439 975 403 975 q 473 966 450 975 q 488 960 477 964 q 533 966 494 960 q 586 972 543 968 q 676 986 636 975 q 718 995 707 995 q 790 978 730 995 q 859 937 851 962 q 859 932 859 936 l 858 907 q 884 850 857 899 q 951 760 910 800 q 1000 719 992 719 q 1078 841 1000 723 q 1190 985 1156 958 q 1260 1011 1224 1011 q 1303 996 1284 1011 q 1322 964 1322 981 q 1319 921 1322 945 q 1313 830 1313 871 q 1325 727 1313 792 q 1362 648 1337 662 q 1407 576 1407 623 q 1384 533 1407 548 q 1331 517 1362 517 q 1183 789 1202 517 z "},"":{"ha":514,"x_min":58,"x_max":460,"o":"m 287 810 l 288 810 q 176 729 272 795 q 134 699 141 705 q 116 694 129 694 q 74 710 90 694 q 58 751 58 727 q 155 865 58 791 l 155 865 q 202 903 181 886 q 352 1019 321 998 q 399 1039 384 1039 q 438 1006 416 1039 q 460 956 460 972 q 441 918 460 941 q 395 882 422 895 q 287 810 363 868 z "},"":{"ha":486,"x_min":16,"x_max":454,"o":"m 357 820 q 298 843 323 820 q 273 898 273 867 q 293 951 273 937 q 362 977 314 966 l 374 981 q 428 971 402 989 q 454 912 454 954 q 357 820 454 820 m 114 802 q 51 819 85 802 q 16 857 16 836 q 87 958 16 958 q 173 930 140 958 q 205 851 205 902 q 114 802 205 802 z "},"":{"ha":806,"x_min":69,"x_max":735,"o":"m 715 309 q 587 292 652 292 l 366 279 q 342 239 354 258 q 318 200 329 221 q 207 80 260 80 q 161 96 180 80 q 142 137 142 111 q 212 281 142 178 q 135 291 180 281 q 79 318 90 300 q 69 361 69 336 q 125 420 69 420 q 170 404 149 420 l 247 407 q 264 405 251 407 q 288 402 278 402 q 366 536 359 530 q 275 538 321 538 q 174 524 260 538 q 150 522 157 522 q 107 541 131 522 q 83 576 83 560 q 182 648 83 648 q 379 661 292 648 l 378 661 q 430 668 426 668 q 470 749 451 718 q 481 779 478 766 q 526 840 494 823 q 572 856 557 856 q 624 838 602 856 q 646 795 646 821 q 621 737 646 776 q 571 658 578 675 l 599 659 q 694 646 671 661 q 718 605 718 632 q 653 530 718 530 q 517 539 605 530 l 452 420 q 507 425 479 425 q 591 418 524 425 q 636 422 610 416 l 651 427 q 706 410 677 435 q 735 359 735 386 q 715 309 735 342 z "},"":{"ha":1539,"x_min":-52,"x_max":1508,"o":"m 870 936 l 884 936 q 901 935 891 936 q 1073 950 924 935 q 1346 989 1222 966 q 1375 994 1367 993 l 1385 994 q 1508 917 1508 1002 q 1479 868 1508 891 q 1428 846 1451 846 l 1362 846 q 1231 838 1325 846 q 1066 819 1137 830 q 980 801 995 808 q 960 785 965 793 q 952 748 955 777 q 928 627 949 714 q 907 519 911 561 q 1031 530 948 519 q 1147 548 1115 541 q 1299 570 1240 570 q 1406 508 1406 570 q 1326 425 1406 441 q 1227 411 1313 420 q 1194 407 1207 409 q 1131 399 1169 403 q 896 360 907 373 q 869 249 884 347 q 854 119 854 152 q 882 98 857 98 q 964 103 924 98 l 1022 111 q 1228 140 1152 125 q 1350 160 1321 160 q 1436 80 1436 149 q 1416 33 1436 48 q 1228 -5 1345 0 q 1003 -28 1118 -12 q 817 -50 871 -50 q 736 -45 771 -50 q 685 -12 701 -39 q 670 65 670 15 q 673 80 670 71 q 710 236 692 130 q 625 228 664 228 q 540 229 561 228 q 467 244 519 229 q 400 260 412 260 q 319 186 377 260 q 197 43 259 111 q 107 -41 136 -25 q 36 -56 78 -56 q -24 -29 4 -56 q -52 24 -52 -1 q -26 73 -52 45 q 24 100 -1 100 q 64 131 31 100 q 134 208 98 161 q 237 319 173 258 q 519 636 390 463 q 694 970 648 808 q 776 1009 745 1009 q 831 1000 802 1009 q 863 973 860 991 l 870 936 m 798 770 q 709 640 763 721 q 692 616 696 623 l 691 616 l 682 606 q 577 474 633 551 q 527 378 520 397 q 563 372 548 372 q 645 377 581 372 q 734 389 709 382 l 798 770 z "},"":{"ha":1114,"x_min":68,"x_max":1078,"o":"m 315 -42 q 235 -116 264 -116 q 182 -92 206 -116 q 159 -45 159 -68 q 184 8 159 -35 q 192 24 189 18 q 104 152 139 76 q 68 291 68 228 q 145 610 68 439 q 354 887 221 781 q 652 992 487 992 q 808 973 731 992 q 909 1054 870 1054 q 960 1024 933 1054 q 987 973 987 994 q 953 903 987 959 q 1055 783 1031 840 q 1078 623 1078 726 q 1028 400 1078 526 q 866 165 979 274 q 640 4 753 56 q 361 -47 526 -47 q 315 -42 334 -47 m 277 176 q 333 262 296 208 q 402 368 378 329 q 410 378 404 371 q 675 772 427 399 q 723 846 684 781 q 646 854 684 854 q 372 685 506 854 q 237 301 237 517 q 277 176 237 237 m 395 100 q 563 135 481 100 q 716 232 644 170 q 837 371 789 295 q 897 498 886 448 q 908 637 908 549 q 861 772 908 718 q 802 693 826 728 l 762 636 l 763 637 l 427 150 q 395 100 411 124 z "},"":{"ha":987,"x_min":93,"x_max":897,"o":"m 467 585 q 559 677 520 648 l 558 677 q 684 719 616 719 q 835 657 773 719 q 897 490 897 595 q 827 304 897 355 q 684 252 756 252 q 586 276 633 252 q 467 387 538 300 q 279 292 380 292 q 148 349 202 292 q 93 486 93 406 q 147 622 93 566 q 279 679 201 679 q 467 585 378 679 m 541 486 q 682 364 622 364 q 747 396 722 364 q 773 484 773 427 q 747 574 773 541 q 680 606 721 606 q 626 585 652 606 q 541 486 601 564 m 392 486 q 279 568 326 568 q 235 547 253 568 q 217 488 217 526 q 236 427 217 446 l 236 427 q 280 406 256 406 q 392 486 328 406 z "},"":{"ha":790,"x_min":37,"x_max":740,"o":"m 460 467 q 455 427 455 442 q 458 330 455 381 q 460 271 460 291 q 432 227 460 248 q 378 205 404 205 q 336 223 355 205 q 316 258 316 241 q 322 309 316 272 q 330 468 335 387 l 329 468 q 239 464 308 468 q 158 459 169 459 l 122 459 q 53 474 66 459 q 37 559 39 488 q 163 592 64 592 l 336 595 q 342 659 342 616 l 338 709 q 342 766 342 742 q 353 827 342 812 q 405 842 364 842 q 470 823 454 842 q 486 764 486 804 q 469 585 486 732 q 537 583 493 585 q 597 581 581 581 q 629 587 601 581 q 669 592 656 592 q 719 573 699 592 q 740 529 740 554 q 723 485 740 507 q 684 462 707 462 l 598 468 l 512 468 l 460 467 m 730 52 q 707 8 730 28 q 591 -12 685 -12 q 504 -5 572 -12 q 408 0 435 0 l 235 -3 q 102 1 127 -3 q 63 23 78 4 q 48 56 48 41 q 67 102 48 79 q 115 124 87 124 q 164 131 123 124 q 219 138 205 138 q 440 125 279 138 q 489 123 471 123 l 600 125 q 708 108 686 125 q 730 53 730 90 l 730 52 z "},"":{"ha":790,"x_min":62,"x_max":722,"o":"m 701 277 q 677 226 701 252 q 622 200 653 200 q 565 222 605 200 q 361 311 484 267 q 132 405 179 372 q 84 462 84 437 q 107 522 84 495 q 204 593 131 549 q 328 669 300 649 q 396 711 355 689 q 543 794 494 764 q 580 813 566 808 q 627 823 598 823 q 682 753 682 823 l 682 743 q 584 648 682 711 q 323 513 487 585 q 278 486 295 500 q 304 477 292 481 q 334 466 317 473 q 513 403 379 448 q 671 335 642 359 q 701 279 701 311 l 701 277 m 176 -3 l 177 -3 l 163 -5 q 86 9 110 -12 q 62 60 62 31 q 79 95 62 72 q 119 120 96 118 q 186 125 142 121 q 249 128 243 128 l 403 124 q 487 130 427 124 q 575 135 545 135 q 722 50 722 135 q 710 4 722 17 q 654 -9 698 -9 q 610 -4 631 -9 q 572 0 587 0 q 473 -3 536 0 l 467 -4 q 357 -8 426 -8 q 259 -2 301 -8 q 226 0 241 0 q 176 -3 216 0 z "},"":{"ha":793,"x_min":66,"x_max":722,"o":"m 309 250 l 310 250 l 290 236 q 271 222 280 229 q 220 207 256 207 q 168 228 193 207 q 144 274 144 248 l 144 276 q 174 329 144 303 q 303 408 203 354 q 388 454 338 425 q 469 498 445 486 q 505 522 489 507 q 358 602 469 563 l 268 633 q 160 697 199 658 q 118 786 120 736 l 118 788 q 135 825 118 810 q 174 839 151 839 q 204 831 194 839 q 243 803 223 821 q 302 778 269 789 q 372 746 349 758 q 471 695 408 724 q 667 594 621 627 q 713 526 713 562 q 604 438 713 494 q 505 378 551 411 q 394 307 451 340 q 309 250 348 279 m 180 -3 l 181 -3 q 138 -7 163 -7 q 86 13 106 -7 q 66 60 66 33 q 83 95 66 74 q 142 122 100 117 q 252 128 183 128 l 407 127 q 548 134 467 127 q 722 50 722 148 q 710 4 722 16 q 655 -9 697 -9 q 616 -4 648 -9 q 572 0 585 0 l 370 -8 l 218 0 l 180 -3 z "},"":{"ha":896,"x_min":37,"x_max":878,"o":"m 517 519 q 515 514 516 518 q 511 505 513 510 q 700 551 610 515 q 717 558 716 558 q 767 526 744 558 q 789 470 789 494 q 758 434 789 448 q 616 401 726 420 q 501 378 581 395 q 496 318 496 353 q 500 293 496 309 q 579 309 527 302 q 625 316 594 310 q 692 327 668 327 q 747 311 724 327 q 771 270 771 294 q 755 225 771 249 q 630 188 739 201 q 507 174 521 174 q 503 168 503 174 q 530 67 503 100 q 428 0 503 0 q 375 27 396 0 q 352 149 354 54 q 316 141 339 146 q 162 116 210 116 q 109 141 131 116 q 87 191 87 165 q 112 234 87 216 q 171 252 136 252 q 275 261 201 252 q 349 276 348 270 q 351 321 351 283 q 349 365 352 359 q 204 353 309 365 q 176 351 183 351 q 106 367 129 351 q 83 429 83 382 q 162 492 83 492 q 216 486 173 492 q 262 479 259 479 q 334 482 313 479 q 311 526 334 503 q 260 587 280 559 q 219 628 239 613 q 146 712 188 657 q 87 783 104 768 q 48 839 59 808 q 37 886 37 870 q 123 949 37 949 q 158 935 142 949 q 222 845 174 920 q 234 827 231 830 q 363 672 292 747 l 375 661 q 427 606 400 631 q 450 630 435 614 q 536 721 519 709 q 600 780 561 737 q 736 908 693 884 q 816 932 780 932 q 858 910 839 932 q 878 869 878 888 q 848 819 878 843 q 517 519 570 616 z "},"":{"ha":1027,"x_min":101,"x_max":983,"o":"m 675 205 q 532 78 604 126 q 419 31 460 31 q 294 80 329 31 l 267 -109 q 247 -214 258 -172 l 247 -213 q 182 -267 233 -267 q 122 -235 143 -267 q 101 -159 101 -203 q 146 106 101 -117 q 177 275 163 193 q 250 645 227 579 q 342 711 273 711 q 413 615 413 711 q 385 509 413 592 q 341 258 341 379 q 359 215 341 248 q 380 182 378 182 q 486 212 430 182 q 583 287 542 241 q 644 369 625 333 q 686 527 663 406 q 692 558 689 545 q 696 581 695 572 q 763 682 717 682 q 834 668 791 682 q 877 627 877 653 q 872 595 877 614 q 859 547 867 576 q 854 524 858 538 q 817 357 817 406 q 828 235 817 308 q 848 161 838 161 q 888 173 862 161 q 928 186 920 186 q 967 169 951 186 q 983 130 983 151 q 942 60 983 100 q 812 19 902 19 q 686 167 729 19 q 678 190 680 187 q 675 205 677 193 z "},"":{"ha":684,"x_min":24,"x_max":703,"o":"m 313 751 q 256 718 296 718 q 201 741 226 718 q 176 791 176 764 q 178 805 176 798 l 178 804 q 294 960 207 897 q 446 1023 382 1023 q 570 989 516 1023 l 570 989 q 703 623 703 896 q 595 173 703 374 q 250 -28 487 -28 q 95 41 165 -28 q 24 229 24 111 q 151 513 24 397 q 545 640 278 629 q 438 887 540 887 q 382 865 407 887 q 326 773 357 842 q 313 751 320 762 l 313 751 m 541 516 q 277 423 352 506 q 201 228 201 340 q 230 150 201 177 q 286 123 258 123 q 352 135 324 123 q 420 190 380 147 q 493 313 460 232 q 541 516 526 393 z "},"":{"ha":1013,"x_min":35,"x_max":1006,"o":"m 432 852 q 372 859 402 858 q 444 785 414 808 q 601 646 495 745 q 713 517 707 546 q 659 450 713 484 q 564 368 646 441 q 313 159 498 308 l 260 115 q 293 119 277 116 q 441 144 396 139 q 561 150 487 150 q 732 137 581 150 q 805 132 787 132 q 919 66 919 132 q 896 13 919 36 q 840 -10 872 -10 q 760 -4 839 -10 q 560 8 587 8 q 498 4 534 8 q 420 -4 463 0 q 380 -10 399 -6 q 230 -31 292 -31 l 123 -31 q 61 -12 87 -31 q 35 41 35 6 q 249 294 35 137 q 399 422 290 323 l 502 513 q 507 525 507 517 q 391 640 507 538 q 190 806 275 742 q 174 850 174 823 q 199 897 174 878 q 212 909 205 901 l 211 918 q 316 1010 203 1010 q 465 991 349 1010 q 758 990 580 987 q 970 975 935 994 q 1006 919 1006 956 q 991 886 1006 907 q 961 859 977 866 q 871 848 945 852 q 700 844 797 844 l 630 844 q 432 852 552 844 z "},"":{"ha":1470,"x_min":44,"x_max":1535,"o":"m 1048 897 q 810 876 983 897 q 576 840 637 856 q 559 652 568 702 q 536 434 543 534 q 532 390 535 412 q 531 356 532 387 q 527 307 531 326 q 515 243 522 288 q 499 93 499 140 q 503 68 499 80 q 506 41 506 56 q 475 -27 506 1 q 407 -55 445 -55 q 337 -6 361 -55 q 312 90 312 42 l 401 814 q 269 811 386 814 q 212 806 220 810 q 142 785 155 785 q 44 858 44 785 q 79 932 44 909 q 208 956 113 956 q 350 964 302 956 q 427 972 370 968 q 517 980 493 976 q 850 1019 684 1010 q 908 1027 859 1019 q 1197 1052 1055 1052 q 1374 1041 1286 1052 q 1483 1022 1462 1031 q 1519 988 1503 1013 q 1535 942 1535 962 q 1404 876 1535 876 q 1320 891 1373 876 q 1234 905 1267 905 q 1221 897 1225 905 q 1212 784 1217 888 q 1206 659 1206 680 q 1200 593 1206 635 q 1177 357 1194 554 q 1160 132 1160 159 q 1057 -64 1160 -64 q 974 68 974 -64 q 1013 463 974 118 l 1026 600 l 1027 604 l 1048 897 z "},"":{"ha":1084,"x_min":14,"x_max":1082,"o":"m 639 534 q 423 484 437 499 q 395 328 410 468 q 379 134 380 188 q 357 18 378 52 q 277 -16 336 -16 q 208 70 208 -16 q 233 264 208 127 q 242 317 239 294 q 248 349 244 330 q 266 462 264 431 q 192 455 252 461 q 110 449 141 449 q 14 524 14 449 q 37 572 14 551 q 85 593 60 592 q 361 615 254 600 q 673 676 468 631 q 907 715 848 715 q 1005 651 1005 715 q 980 599 1005 620 q 937 578 955 578 q 872 572 928 578 q 809 565 816 567 q 800 558 803 562 q 780 491 796 553 q 749 353 763 429 q 735 231 735 277 q 751 171 735 188 q 802 155 768 155 q 977 210 873 155 q 1038 231 1019 231 q 1067 219 1053 231 q 1082 193 1082 208 q 983 87 1082 146 q 777 28 885 28 q 635 76 688 28 q 582 212 582 124 q 639 534 582 326 z "},"":{"ha":378,"x_min":-260,"x_max":634,"o":"m 276 526 l 239 165 q 233 105 235 136 q 209 -157 220 -84 q 164 -293 197 -231 q 75 -393 131 -356 q -45 -429 18 -429 q -195 -367 -129 -429 q -260 -248 -260 -304 q -241 -209 -260 -229 q -212 -190 -222 -190 q -159 -221 -197 -190 q -60 -279 -94 -279 q 8 -235 -22 -279 q 59 -22 38 -192 q 87 292 79 147 q 104 456 90 361 q 150 749 118 552 q 231 1033 182 945 q 337 1154 279 1120 q 469 1188 394 1188 q 586 1143 538 1188 q 634 1031 634 1098 q 606 907 634 971 q 534 844 577 844 q 501 856 515 844 q 488 888 488 868 l 491 948 q 447 1054 491 1054 q 377 994 413 1054 q 312 771 340 933 q 276 526 284 610 z "},"":{"ha":657,"x_min":65,"x_max":589,"o":"m 399 595 q 182 467 276 467 q 99 504 134 467 q 65 598 65 541 q 177 867 65 720 q 413 1015 289 1015 q 498 956 467 1015 q 557 903 557 950 q 547 837 557 888 q 528 678 528 757 q 552 572 528 585 q 589 522 589 551 q 558 476 589 498 q 500 453 528 453 q 399 595 415 453 m 393 890 q 268 791 334 890 q 202 625 202 692 q 205 604 202 614 q 210 594 209 594 q 288 636 234 594 q 378 742 341 677 q 415 854 415 806 q 393 890 415 890 z "},"":{"ha":604,"x_min":62,"x_max":553,"o":"m 514 903 l 513 903 q 553 758 553 845 q 530 649 553 720 q 394 520 507 577 q 211 464 281 464 q 62 626 62 464 q 132 830 62 710 l 142 850 q 241 973 186 937 q 379 1008 296 1008 q 428 997 413 1008 q 460 953 444 985 q 479 932 465 943 q 514 903 510 912 m 389 821 q 362 848 365 838 q 359 863 361 855 q 356 879 357 868 q 347 889 355 889 q 257 805 321 889 q 193 635 193 721 q 195 611 193 620 q 217 592 197 603 q 240 582 237 582 q 315 612 255 582 q 395 670 375 642 l 395 669 q 412 753 412 705 q 389 821 412 814 z "},"":{"ha":1375,"x_min":-64,"x_max":1377,"o":"m 834 240 l 834 239 q 927 381 869 303 q 1002 505 982 456 q 1023 626 1023 554 q 1005 720 1023 652 q 997 751 1000 736 q 932 853 983 817 q 754 889 882 889 q 570 850 662 889 q 434 730 478 812 q 389 586 389 648 q 420 366 389 480 q 522 209 451 252 q 614 141 587 170 q 642 75 642 113 q 566 5 642 5 q 541 9 561 5 q 515 13 522 13 q 326 -5 497 13 q 296 -8 307 -7 q 107 -31 159 -20 q 53 -40 63 -40 q -31 -19 2 -40 q -64 42 -64 1 q -30 101 -64 75 q 70 129 3 126 q 216 139 148 132 q 349 151 284 146 q 257 293 286 220 l 257 292 q 233 427 245 324 q 220 595 220 530 q 250 727 220 632 q 369 900 279 821 q 552 1005 458 979 q 776 1031 646 1031 q 1108 897 1017 1031 q 1199 612 1199 763 q 1182 499 1199 550 q 1141 409 1166 448 q 1049 293 1116 371 q 985 208 1001 237 q 1265 224 1256 224 q 1354 208 1331 224 q 1377 155 1377 191 q 1206 57 1377 57 q 1136 60 1197 57 q 1008 61 1089 63 q 917 56 928 60 q 873 25 905 52 q 806 -4 838 -4 q 748 24 770 -4 q 727 77 727 53 q 789 186 727 131 q 834 240 818 212 z "},"":{"ha":1133,"x_min":41,"x_max":1086,"o":"m 455 205 q 418 140 439 171 l 419 140 q 171 -47 299 -47 q 75 4 109 -47 q 41 130 41 56 q 72 328 41 233 l 72 328 q 157 512 106 432 l 157 511 q 277 651 205 589 l 276 651 q 496 727 366 727 q 587 690 567 727 q 608 615 608 654 q 882 764 732 764 q 980 714 941 764 q 1019 606 1019 663 q 955 432 1019 519 q 640 208 892 345 q 619 179 619 196 q 647 134 619 155 q 725 113 675 113 q 989 268 841 113 q 1039 295 1015 295 q 1086 242 1086 295 q 962 68 1086 168 q 700 -31 837 -31 q 520 32 586 -31 q 455 205 455 95 m 628 334 q 681 367 639 342 q 816 474 749 407 q 883 578 883 542 q 871 612 883 597 q 848 627 859 627 q 725 541 792 627 q 628 334 659 455 m 463 538 q 470 563 463 550 q 477 593 477 578 q 454 604 477 604 q 333 536 384 604 q 232 380 283 468 q 180 136 180 293 q 207 115 180 115 q 241 128 224 115 q 305 212 258 141 q 412 408 353 283 l 463 538 z "},"":{"ha":783,"x_min":60,"x_max":743,"o":"m 673 633 q 743 431 743 520 q 665 183 743 301 q 482 16 587 64 q 291 -33 378 -33 q 241 -26 265 -33 q 155 -114 190 -114 q 106 -95 127 -114 q 85 -54 85 -76 q 122 40 85 -31 q 60 222 60 123 q 173 583 60 431 q 469 736 285 736 q 559 718 510 736 l 577 739 q 648 787 614 787 q 694 758 673 787 q 715 706 715 729 q 704 681 715 697 q 673 633 692 664 m 351 571 q 252 428 309 537 q 207 252 195 319 l 218 189 q 432 522 278 277 l 484 603 q 351 571 391 603 l 351 571 m 576 500 q 427 282 441 309 q 328 127 389 208 l 322 111 q 522 232 454 134 q 589 418 589 330 q 583 460 589 424 l 576 500 z "},"":{"ha":667,"x_min":30,"x_max":669,"o":"m 456 684 q 400 712 429 684 q 372 768 372 740 q 465 890 372 890 q 526 862 507 890 q 544 761 544 835 q 515 716 544 749 q 456 684 486 684 m 340 260 q 326 373 326 311 q 440 544 326 544 q 507 468 507 544 q 486 413 507 452 q 472 326 472 387 q 477 311 474 319 q 502 247 485 295 q 519 181 519 199 q 492 130 519 156 q 425 104 465 104 q 366 128 397 104 q 235 49 296 113 q 175 -85 175 -14 q 269 -174 175 -174 q 404 -144 325 -174 q 535 -66 484 -113 q 610 -39 566 -39 q 651 -58 633 -39 q 669 -95 669 -77 q 641 -148 669 -113 q 541 -234 613 -183 q 433 -298 468 -284 q 331 -317 397 -312 q 294 -321 311 -319 q 107 -273 184 -333 q 30 -136 30 -212 q 115 136 30 37 q 340 260 200 235 z "},"":{"ha":395,"x_min":60,"x_max":345,"o":"m 338 781 l 340 753 q 325 716 340 737 q 281 680 310 695 q 222 665 252 665 q 153 784 153 665 q 176 821 153 791 q 214 857 199 850 q 265 865 229 865 q 331 850 317 865 q 345 804 345 836 q 342 791 345 797 q 338 781 340 785 m 119 316 q 124 336 119 321 q 135 373 129 351 q 185 504 166 477 q 252 531 205 531 q 293 511 283 531 q 304 437 304 491 q 281 265 304 388 q 249 65 249 86 q 227 -170 241 -85 q 191 -273 212 -256 q 144 -290 170 -290 q 89 -255 117 -290 q 60 -193 60 -220 q 76 -78 60 -168 q 83 -30 83 -37 q 119 316 83 63 z "},"":{"ha":998,"x_min":56,"x_max":883,"o":"m 729 184 l 728 194 q 736 311 727 212 q 743 404 743 396 q 735 424 743 421 q 632 418 674 424 q 343 404 520 404 l 175 408 l 105 408 q 67 420 79 408 q 56 475 56 433 q 68 504 56 487 q 93 527 81 520 q 142 538 104 534 q 257 542 180 542 q 324 536 287 542 q 381 530 361 530 q 452 537 392 530 q 528 543 512 543 q 572 546 544 543 q 747 559 715 559 q 809 552 766 559 q 867 533 852 545 q 883 493 883 521 l 879 347 q 873 222 877 269 q 863 163 870 174 q 834 140 855 151 q 798 129 814 129 q 756 147 777 129 q 729 184 734 165 z "},"":{"ha":1037,"x_min":60,"x_max":983,"o":"m 242 552 q 189 529 242 549 q 111 509 136 509 q 73 526 87 509 q 60 565 60 543 q 87 624 60 596 q 324 703 273 703 q 380 614 380 703 l 428 473 q 475 275 435 455 q 491 210 481 248 q 498 235 495 221 q 583 484 528 368 q 618 562 590 498 q 709 766 698 748 q 779 898 722 788 q 854 1028 834 1004 q 907 1051 874 1051 q 961 1027 939 1051 q 983 975 983 1002 q 932 866 983 958 l 840 702 q 733 450 818 661 l 722 425 q 702 366 713 401 q 674 292 690 331 q 669 270 671 286 q 616 107 652 183 l 572 10 q 497 -41 548 -41 q 321 262 385 -41 q 292 378 311 307 l 242 552 z "},"":{"ha":705,"x_min":-24,"x_max":710,"o":"m 710 543 q 677 494 710 518 q 611 471 645 471 l 483 462 q 452 457 459 460 q 410 300 439 426 q 337 129 382 185 q 222 14 292 73 q 93 -45 153 -45 q 8 -22 40 -45 q -24 46 -24 2 q 50 119 -24 119 q 102 93 70 119 q 121 106 104 95 q 247 254 202 161 q 301 450 292 348 q 231 447 277 450 q 148 464 177 444 q 118 517 118 484 q 142 564 118 545 q 198 583 167 583 l 270 583 q 330 592 330 583 l 339 635 q 591 968 353 968 q 668 946 635 968 q 700 884 700 924 q 680 838 700 858 q 624 818 661 818 q 593 829 618 818 q 568 842 568 841 q 490 718 522 842 l 479 622 q 486 605 479 605 q 547 610 507 605 q 624 615 591 615 q 686 593 663 615 q 710 545 710 572 l 710 543 z "},"":{"ha":1007,"x_min":43,"x_max":970,"o":"m 43 562 q 130 677 43 603 q 298 752 217 752 q 447 723 385 752 q 597 630 509 694 q 675 606 629 606 q 755 654 705 606 q 831 715 806 704 q 882 727 857 727 q 951 666 951 727 q 857 540 951 615 q 689 465 762 465 q 599 476 642 465 q 537 495 556 488 q 436 558 517 502 q 379 591 427 564 q 315 617 332 617 q 216 558 279 617 q 119 503 156 503 q 67 517 92 503 q 43 562 43 532 m 415 431 l 416 431 q 542 376 456 431 q 571 359 560 364 l 570 359 q 680 312 661 312 q 744 326 718 312 q 822 387 770 340 q 890 422 861 422 q 970 362 970 422 q 923 283 970 334 q 830 204 877 231 q 697 178 783 178 q 576 193 624 178 q 424 274 528 209 q 336 304 374 304 q 248 252 300 304 q 175 189 201 205 q 117 172 149 172 q 69 189 87 172 q 52 231 52 205 q 145 363 52 282 q 313 445 238 445 q 415 431 378 445 z "},"":{"ha":1267,"x_min":56,"x_max":1161,"o":"m 642 0 q 603 -5 637 -1 q 567 -9 568 -9 q 290 -36 368 -36 q 230 -17 257 -36 q 203 31 203 3 q 138 10 168 10 q 78 36 100 10 q 56 92 56 61 q 91 201 56 131 q 276 460 125 272 q 549 835 481 718 q 633 960 587 920 l 633 967 q 666 1012 631 992 q 727 1032 701 1032 q 813 984 771 1032 q 912 759 855 936 q 985 519 970 582 q 1030 367 999 460 q 1098 217 1062 274 q 1161 78 1161 115 q 1079 7 1161 7 q 1004 14 1071 7 q 905 20 939 20 q 642 0 832 20 m 233 94 q 317 125 271 125 l 359 121 q 678 153 382 121 q 751 155 684 154 q 866 163 819 157 l 877 163 l 926 163 q 936 163 932 163 q 798 583 860 319 q 722 825 758 763 q 659 715 697 764 q 637 687 649 703 l 388 333 q 369 308 378 319 q 351 283 361 298 q 316 236 346 276 q 233 94 262 163 z "},"":{"ha":1013,"x_min":28,"x_max":990,"o":"m 528 680 q 441 587 528 639 q 409 562 430 575 q 368 536 383 547 q 248 470 310 485 q 237 465 241 469 q 511 228 489 296 q 491 186 511 207 q 450 165 472 165 q 350 222 421 165 q 309 252 330 237 q 207 326 245 296 q 103 389 166 357 q 56 416 59 412 q 28 477 28 437 q 43 521 28 506 q 109 544 58 536 q 267 627 165 554 q 462 753 446 753 q 507 732 488 753 q 528 686 526 711 l 528 680 m 990 678 q 907 584 990 614 q 644 444 861 567 q 665 431 652 439 q 777 352 679 422 q 896 260 875 282 q 916 217 916 237 q 895 177 916 195 q 850 159 874 159 q 781 195 824 159 q 530 364 727 235 q 448 446 448 408 q 456 478 448 466 q 530 533 465 490 q 786 661 595 576 q 831 696 787 661 q 915 739 882 739 q 963 720 941 739 q 989 681 985 702 l 990 678 z "},"":{"ha":1010,"x_min":94,"x_max":999,"o":"m 999 431 q 903 340 999 385 q 840 298 872 323 q 776 251 798 264 q 666 169 705 205 q 623 129 626 132 q 556 89 591 89 q 503 112 525 89 q 481 165 481 134 q 506 214 481 185 q 621 306 530 242 q 786 415 712 370 l 711 473 q 577 580 604 557 q 550 624 550 604 q 573 674 550 644 q 620 705 596 705 q 718 640 657 705 q 926 490 827 524 q 984 465 970 476 q 999 437 999 454 l 999 431 m 104 223 q 253 325 119 243 q 366 413 366 394 q 315 458 366 420 q 127 631 139 590 q 150 681 127 658 q 203 703 173 703 q 333 610 240 703 l 402 543 q 435 521 424 528 q 520 461 494 484 q 545 414 545 437 q 538 388 545 404 q 527 370 531 372 q 492 342 511 359 q 439 304 472 326 q 308 202 360 252 q 241 141 286 180 q 172 102 197 102 q 111 115 129 102 q 94 167 94 128 q 104 223 94 188 z "},"":{"ha":1125,"x_min":105,"x_max":984,"o":"m 183 10 q 138 22 161 10 q 110 73 115 35 l 105 109 q 150 168 105 151 q 243 184 195 184 q 300 149 300 184 q 265 57 300 104 q 183 10 230 10 m 538 -1 q 473 17 500 -1 q 446 58 446 35 q 480 153 446 123 q 553 183 515 183 q 596 160 576 183 q 617 117 617 138 q 538 -1 617 -1 m 883 5 q 816 34 846 5 q 787 94 787 63 q 820 152 787 121 q 887 182 853 182 q 954 155 923 182 q 984 93 984 128 q 954 32 984 58 q 883 5 924 5 z "},"":{"ha":543,"x_min":0,"x_max":0,"o":""},"":{"ha":1077,"x_min":-14,"x_max":1062,"o":"m 273 219 q 202 93 262 191 q 120 -15 143 -4 q 79 -26 97 -26 q 21 0 55 -26 q -14 56 -14 27 q 157 341 -14 82 q 326 622 250 483 q 514 948 480 903 q 585 994 549 994 q 668 964 642 994 q 681 919 681 955 q 676 876 681 892 q 870 341 800 498 q 1011 113 941 184 q 1054 66 1046 78 q 1062 33 1062 54 q 1035 -30 1062 -4 q 970 -55 1008 -55 q 866 5 919 -55 q 765 169 812 64 q 718 286 718 273 q 715 289 718 289 q 552 263 678 289 q 349 213 425 237 q 314 207 329 207 q 273 219 288 207 m 664 427 q 568 711 648 467 q 557 740 560 734 l 365 374 q 452 387 408 381 q 604 416 482 391 q 664 427 634 422 m 545 1194 l 513 1215 q 406 1295 485 1233 q 326 1396 326 1356 q 355 1437 326 1414 q 410 1460 383 1460 q 446 1444 424 1460 q 536 1367 467 1429 l 685 1235 q 732 1161 732 1194 q 663 1098 732 1098 q 545 1194 642 1098 z "},"":{"ha":1077,"x_min":-14,"x_max":1062,"o":"m 273 219 q 202 93 262 191 q 120 -15 143 -4 q 79 -26 97 -26 q 21 0 55 -26 q -14 56 -14 27 q 157 341 -14 82 q 326 622 250 483 q 514 948 480 903 q 585 994 549 994 q 668 964 642 994 q 681 919 681 955 q 676 876 681 892 q 870 341 800 498 q 1011 113 941 184 q 1054 66 1046 78 q 1062 33 1062 54 q 1035 -30 1062 -4 q 970 -55 1008 -55 q 866 5 919 -55 q 765 169 812 64 q 718 286 718 273 q 715 289 718 289 q 552 263 678 289 q 349 213 425 237 q 314 207 329 207 q 273 219 288 207 m 664 427 q 568 711 648 467 q 557 740 560 734 l 365 374 q 452 387 408 381 q 604 416 482 391 q 664 427 634 422 m 667 1152 q 615 1192 650 1160 l 600 1205 q 583 1221 592 1211 q 527 1257 546 1257 q 440 1196 492 1257 l 441 1196 q 383 1129 399 1139 q 346 1120 367 1120 q 290 1175 290 1120 q 369 1308 290 1227 q 508 1388 448 1388 q 585 1376 558 1388 q 640 1335 612 1363 q 715 1273 685 1290 q 750 1255 745 1255 q 804 1297 773 1255 q 827 1330 819 1319 q 835 1340 831 1335 q 882 1369 858 1369 q 935 1312 935 1369 q 879 1204 935 1280 q 761 1129 823 1129 q 667 1152 701 1129 z "},"":{"ha":1114,"x_min":68,"x_max":1077,"o":"m 360 -47 q 157 63 245 -47 q 68 291 68 174 q 153 602 68 429 q 371 883 237 774 q 651 992 505 992 q 838 965 764 992 q 974 885 911 938 q 1056 777 1036 833 q 1077 623 1077 721 q 1022 414 1077 537 q 861 182 966 291 q 646 13 755 73 q 360 -47 537 -47 m 239 297 q 289 158 239 214 q 403 102 338 102 q 744 277 585 102 q 903 648 903 452 q 877 759 903 717 q 787 830 850 802 q 651 858 724 858 q 380 669 520 858 q 239 297 239 479 m 766 1149 q 714 1190 749 1158 l 699 1203 q 682 1219 691 1209 q 626 1255 645 1255 q 539 1194 591 1255 l 540 1194 q 482 1127 498 1137 q 445 1118 466 1118 q 389 1173 389 1118 q 468 1306 389 1225 q 607 1386 547 1386 q 684 1374 657 1386 q 739 1333 711 1361 q 814 1271 784 1288 q 849 1253 844 1253 q 903 1295 872 1253 q 926 1328 918 1317 q 934 1338 930 1333 q 981 1367 957 1367 q 1034 1310 1034 1367 q 978 1202 1034 1278 q 860 1127 922 1127 q 766 1149 800 1127 z "},"":{"ha":1603,"x_min":79,"x_max":1573,"o":"m 973 523 q 1099 533 1018 523 q 1213 551 1180 543 q 1364 575 1311 575 q 1472 511 1472 575 q 1392 425 1472 443 q 1293 411 1379 420 q 1260 407 1273 409 q 1196 399 1235 403 q 961 360 973 373 q 935 250 949 347 q 920 121 920 153 q 948 100 923 100 q 1294 146 1059 100 q 1416 165 1387 165 q 1501 82 1501 154 q 1482 35 1501 50 q 1294 -3 1411 2 q 1069 -26 1183 -9 q 883 -48 937 -48 q 766 -30 791 -48 q 736 63 741 -11 q 578 -20 659 6 q 371 -47 496 -47 q 168 63 256 -47 q 79 291 79 174 q 163 602 79 429 q 382 883 248 774 q 662 992 516 992 q 910 939 810 992 l 967 935 q 1140 951 988 935 q 1412 989 1291 967 q 1440 994 1432 993 l 1451 994 q 1573 910 1573 1002 q 1552 862 1573 886 q 1492 839 1531 839 q 1459 840 1478 839 q 1429 839 1441 842 q 1406 834 1417 836 q 1382 829 1393 832 q 1255 813 1352 822 q 1115 808 1185 813 q 1033 794 1045 804 q 1018 748 1021 785 q 994 629 1015 714 q 973 523 977 564 m 790 317 l 830 588 q 852 795 852 709 q 662 858 772 858 q 391 669 531 858 q 250 297 250 479 q 300 158 250 214 q 414 102 349 102 q 790 317 615 102 z "},"":{"ha":1116,"x_min":197,"x_max":1073,"o":"m 266 342 q 220 358 244 342 q 197 399 197 374 q 213 433 197 412 q 247 457 229 453 q 345 464 264 461 q 427 470 357 464 q 546 477 497 477 q 627 469 572 477 q 699 463 677 463 q 806 477 730 463 l 805 476 q 925 491 884 491 q 1073 406 1073 491 q 1060 359 1073 371 q 1005 347 1046 347 q 959 351 989 347 q 922 356 928 356 q 836 347 897 356 q 809 342 822 344 q 783 338 796 340 q 654 331 736 331 l 404 328 q 360 333 385 328 q 315 345 340 337 l 309 347 l 266 342 z "},"":{"ha":1585,"x_min":216,"x_max":1480,"o":"m 234 330 q 216 373 216 352 q 244 436 216 416 q 345 456 272 456 q 418 463 377 456 q 663 479 517 479 l 1081 473 l 1369 486 q 1446 472 1412 486 q 1480 431 1480 458 q 1460 377 1480 415 q 1411 340 1441 340 l 1181 340 l 1086 336 q 1035 334 1055 336 l 749 340 q 351 323 696 340 q 283 320 303 320 q 234 330 266 320 z "},"":{"ha":806,"x_min":45,"x_max":722,"o":"m 352 939 q 284 885 352 909 q 212 835 244 873 q 180 772 180 797 q 235 732 180 770 q 256 686 256 712 q 239 643 256 664 q 197 623 222 623 q 97 674 149 623 q 45 764 45 726 q 69 847 45 796 q 121 917 92 899 q 164 952 132 923 q 221 1002 207 991 q 277 1013 236 1013 q 345 996 332 1013 q 352 939 357 979 m 589 986 q 649 1008 627 1008 q 696 979 670 1008 q 722 937 722 950 q 700 903 722 918 q 674 886 678 888 q 664 880 671 885 q 629 852 660 876 l 597 829 q 559 750 559 802 q 573 713 559 734 q 599 656 599 674 q 579 611 599 635 q 537 587 560 587 q 448 647 485 587 q 412 742 412 707 q 469 877 412 794 q 589 986 526 960 z "},"":{"ha":795,"x_min":60,"x_max":732,"o":"m 507 1003 q 545 1034 515 1019 q 597 1049 574 1049 q 651 1016 612 1049 q 698 968 689 983 q 732 870 732 929 q 689 688 732 803 q 574 574 646 574 q 522 590 543 574 q 501 634 501 607 q 534 705 501 672 q 590 833 590 753 q 551 888 590 847 q 516 925 527 913 q 506 989 506 937 l 506 996 q 507 1003 506 998 m 159 745 q 187 821 187 792 q 158 866 187 833 q 118 924 118 911 q 181 1017 118 1017 q 237 989 210 1017 l 257 968 q 310 918 294 942 q 326 850 326 894 q 300 734 326 806 q 260 652 275 663 q 196 615 246 641 q 132 589 146 589 q 82 610 104 589 q 60 656 60 630 q 76 703 60 686 q 132 732 92 719 q 159 745 154 740 z "},"":{"ha":429,"x_min":81,"x_max":393,"o":"m 316 840 q 253 797 304 825 l 254 797 q 230 726 230 770 q 246 686 230 713 q 269 630 269 648 q 251 587 269 612 q 208 562 233 562 q 159 577 180 562 q 109 641 137 593 q 81 718 81 689 q 109 809 81 760 l 109 808 q 260 962 177 930 q 320 984 298 984 q 367 955 341 984 q 393 913 393 925 q 353 867 393 889 q 316 840 334 857 z "},"":{"ha":326,"x_min":73,"x_max":304,"o":"m 304 916 q 285 806 304 882 l 285 806 q 235 682 267 736 l 235 682 q 148 620 202 620 q 95 638 117 620 q 73 681 73 656 q 84 718 73 696 q 109 751 96 740 q 162 877 162 800 q 116 943 162 903 q 83 983 83 972 l 79 1017 q 82 1050 79 1033 q 117 1081 87 1065 q 169 1096 146 1096 q 263 1023 196 1096 l 271 1014 q 296 966 294 980 q 304 916 304 947 l 304 916 z "},"":{"ha":800,"x_min":77,"x_max":759,"o":"m 433 541 q 344 571 376 541 q 313 643 313 602 q 338 677 313 660 q 390 695 364 695 q 408 692 396 695 q 434 686 418 688 q 506 646 506 685 q 489 577 506 612 q 433 541 473 541 m 205 292 q 77 363 77 292 q 103 422 77 409 q 208 436 128 436 l 318 433 q 448 441 340 433 q 588 448 555 448 q 642 441 601 448 q 692 435 682 435 q 740 412 721 435 q 759 368 759 389 q 745 336 759 357 q 710 311 731 315 q 611 307 690 307 l 389 304 q 293 298 362 304 q 205 292 224 292 m 406 22 q 335 45 372 22 q 298 90 298 68 q 335 146 298 119 q 410 174 372 174 q 487 122 487 174 q 464 53 487 85 q 406 22 441 22 z "},"":{"ha":780,"x_min":24,"x_max":755,"o":"m 753 473 q 741 426 753 446 q 681 347 729 405 q 644 294 661 322 q 616 255 629 272 q 503 88 528 130 q 440 6 464 24 q 385 -13 417 -13 q 315 43 342 -13 q 175 235 290 96 q 24 475 24 413 q 62 561 24 513 q 187 736 93 602 l 304 904 q 395 966 344 966 q 465 909 438 966 q 607 718 504 842 q 755 481 755 538 l 753 473 m 601 483 q 509 613 596 494 q 385 774 422 731 q 243 578 298 678 q 178 469 211 521 q 366 214 248 361 l 393 178 q 427 218 406 189 q 501 317 476 286 q 594 474 536 363 l 601 483 z "},"":{"ha":818,"x_min":-1,"x_max":745,"o":"m 730 399 q 692 80 720 235 q 611 -201 665 -75 q 497 -373 558 -328 q 351 -419 435 -419 q 176 -385 260 -419 l 177 -385 q 52 -304 105 -355 q -1 -220 -1 -254 q 15 -169 -1 -188 q 56 -150 31 -150 q 94 -169 79 -150 q 346 -281 180 -281 q 475 -140 413 -281 q 554 197 538 0 q 231 31 345 31 q 115 90 158 31 q 73 230 73 148 q 111 468 73 312 q 176 662 149 625 q 263 700 203 700 q 313 672 296 700 q 331 610 331 644 q 282 495 331 600 q 222 275 222 368 q 236 203 222 228 q 263 178 249 178 q 342 198 296 178 q 451 266 389 218 q 532 340 514 315 q 562 405 551 365 q 578 579 572 444 q 586 678 582 658 q 610 715 591 699 q 663 732 630 732 q 727 713 708 732 q 745 624 745 694 l 730 399 m 604 838 q 544 862 570 838 q 519 916 519 885 q 539 969 519 955 q 608 996 560 984 l 620 999 q 674 990 648 1007 q 701 930 701 972 q 604 838 701 838 m 360 821 q 297 838 331 821 q 262 875 262 854 q 333 976 262 976 q 419 948 387 976 q 451 869 451 920 q 360 821 451 821 z "},"":{"ha":929,"x_min":9,"x_max":1027,"o":"m 592 450 l 592 451 q 544 76 571 394 q 529 -6 539 5 q 489 -28 518 -18 q 446 -39 460 -39 q 370 63 370 -39 q 391 235 370 109 q 411 410 411 360 q 403 465 411 439 q 266 634 347 525 q 132 789 172 759 q 31 877 52 846 q 9 933 9 908 q 39 973 9 949 q 93 998 68 998 q 412 707 195 998 q 511 585 484 610 q 564 646 537 613 q 618 707 591 680 q 840 955 783 876 q 960 1031 894 1031 q 1008 1006 989 1031 q 1027 956 1027 982 q 781 662 1027 916 q 592 450 602 475 m 699 1107 q 640 1130 665 1107 q 614 1185 614 1154 q 635 1238 614 1223 q 704 1264 656 1253 l 715 1267 q 770 1258 744 1276 q 796 1199 796 1241 q 699 1107 796 1107 m 456 1089 q 392 1106 427 1089 q 358 1143 358 1123 q 429 1244 358 1244 q 514 1217 482 1244 q 547 1138 547 1189 q 456 1089 547 1089 z "},"":{"ha":1143,"x_min":47,"x_max":1046,"o":"m 1039 170 q 1008 108 1039 148 q 866 24 977 68 q 611 -20 755 -20 q 383 50 473 -20 q 256 278 293 120 q 233 281 253 281 q 144 277 205 281 q 67 292 87 273 q 47 332 47 312 q 66 391 47 362 q 117 420 84 420 q 247 426 214 420 l 246 425 q 263 459 257 426 l 263 458 q 283 530 272 502 l 269 531 l 163 531 q 93 593 93 531 q 184 671 93 671 l 340 668 q 552 917 431 844 q 773 989 673 989 q 965 939 884 989 q 1046 852 1046 889 q 1016 788 1046 821 q 951 756 985 756 q 876 808 935 756 q 748 844 833 844 q 624 796 688 844 q 523 672 559 747 q 774 682 652 672 q 845 672 826 686 q 863 620 863 658 q 765 539 863 539 l 503 539 q 450 519 462 539 l 452 520 q 427 435 441 498 l 722 446 q 804 382 804 446 q 772 328 804 350 q 696 303 740 305 q 541 303 652 301 q 425 303 429 306 q 495 177 438 229 q 621 125 551 125 q 873 194 772 125 q 983 250 958 250 q 1024 237 1010 250 q 1039 174 1039 223 l 1039 170 z "},"":{"ha":546,"x_min":18,"x_max":543,"o":"m 233 413 l 445 262 q 483 193 483 233 q 463 146 483 168 q 423 124 443 124 q 336 173 401 124 q 245 244 271 222 q 90 338 159 319 q 33 363 48 350 q 18 401 18 376 q 51 471 18 446 q 264 579 164 518 l 368 644 q 478 718 452 718 q 525 700 507 718 q 543 651 543 681 q 435 534 543 607 q 248 422 327 462 q 233 413 239 418 z "},"":{"ha":549,"x_min":39,"x_max":545,"o":"m 545 430 q 462 342 545 374 q 442 332 450 334 q 425 320 433 329 q 332 262 387 295 l 259 212 q 112 102 155 102 q 60 124 81 102 q 39 174 39 146 q 336 415 39 243 q 174 532 307 439 q 93 595 108 579 q 77 627 77 611 q 103 677 77 648 q 151 706 130 706 q 241 647 189 706 q 490 481 330 561 q 545 431 543 455 l 545 430 z "},"":{"ha":876,"x_min":71,"x_max":919,"o":"m 251 127 l 251 113 q 256 27 251 52 q 260 -11 260 6 q 227 -52 254 -35 q 170 -68 199 -68 q 77 50 77 -68 q 96 212 77 93 q 127 510 127 407 q 118 519 127 514 q 71 576 71 548 q 124 653 71 612 l 123 652 q 150 684 143 669 q 165 746 156 699 q 206 945 190 885 q 263 1068 222 1004 q 357 1160 304 1131 q 481 1190 410 1190 q 598 1144 550 1190 q 646 1033 646 1099 q 618 909 646 973 q 546 845 590 845 q 513 857 526 845 q 499 889 499 869 l 503 949 q 458 1055 503 1055 q 356 911 404 1055 q 309 673 309 768 q 321 663 309 663 q 568 692 393 663 q 701 709 662 709 q 770 686 745 709 q 795 638 795 664 q 770 531 795 618 l 767 518 q 765 510 766 514 l 762 500 q 713 164 713 337 q 728 54 713 123 q 730 33 730 41 q 700 -9 730 18 q 637 -35 671 -35 q 548 100 548 -35 q 596 474 548 221 q 612 568 612 559 l 543 557 l 543 557 q 387 535 465 543 q 292 523 317 528 q 286 484 290 506 q 263 346 269 398 l 251 127 m 773 881 q 744 889 752 881 q 729 920 736 897 q 711 975 720 949 q 701 1023 701 1000 q 741 1089 701 1056 q 827 1123 780 1123 q 886 1102 852 1123 q 919 1061 919 1080 q 901 979 919 1036 q 839 902 882 922 q 773 881 795 881 z "},"":{"ha":918,"x_min":71,"x_max":907,"o":"m 268 345 q 251 128 251 213 l 251 113 q 256 27 251 52 q 260 -11 260 5 q 227 -52 254 -35 q 170 -68 199 -68 q 77 50 77 -68 q 101 268 77 115 q 126 510 126 437 q 118 519 126 514 q 71 576 71 549 q 123 652 71 610 q 157 709 153 677 q 182 840 160 723 q 481 1187 248 1187 q 597 1143 549 1187 q 645 1031 645 1099 q 617 906 645 970 q 546 843 589 843 q 512 856 526 843 q 498 888 498 868 l 503 947 q 458 1053 503 1053 q 356 912 404 1053 q 308 673 308 771 q 321 663 308 663 q 524 683 414 663 q 654 728 634 703 l 663 730 q 669 728 665 730 q 744 1064 705 979 q 835 1149 782 1149 q 889 1132 871 1149 q 907 1069 907 1116 q 865 862 907 1017 q 776 290 776 536 q 790 80 776 205 q 792 47 792 58 q 762 -22 792 7 q 697 -52 732 -52 q 630 -6 650 -52 q 610 150 610 40 q 630 459 610 298 q 644 576 638 532 q 441 542 566 557 l 292 523 q 268 346 275 422 l 268 345 z "},"":{"ha":667,"x_min":-5,"x_max":655,"o":"m 530 324 q 442 307 522 318 q 368 292 368 297 q 364 273 368 281 q 361 260 361 265 q 357 190 361 243 q 352 126 352 136 q 337 77 352 92 q 285 62 323 62 q 204 115 225 62 q 213 178 204 123 q 221 243 221 233 q 208 262 221 262 q 140 252 197 262 q 62 243 81 243 q -5 310 -5 243 q 33 356 -5 342 q 149 377 71 370 q 245 401 230 385 q 254 493 245 452 q 267 604 262 535 q 163 593 193 600 q 112 585 130 585 q 56 602 79 585 q 34 649 34 618 q 52 692 34 677 q 120 713 70 707 q 224 724 171 719 q 286 733 277 729 q 296 929 296 814 q 322 966 296 946 q 374 987 347 987 q 446 919 446 987 q 433 840 446 904 q 418 757 419 768 q 473 770 437 759 q 551 785 520 785 q 613 774 591 785 q 635 730 635 764 q 621 697 635 718 q 591 671 607 677 q 523 653 575 666 q 446 640 471 640 q 406 631 421 640 q 386 503 401 606 q 379 465 382 479 q 375 425 375 446 q 441 433 397 425 q 591 455 567 455 q 637 431 618 455 q 655 380 655 408 q 628 338 655 359 q 565 318 601 318 q 547 321 555 318 q 530 324 539 324 z "},"":{"ha":326,"x_min":47,"x_max":278,"o":"m 278 93 q 258 -17 278 59 l 258 -16 q 209 -141 241 -86 l 209 -140 q 121 -203 176 -203 q 68 -185 90 -203 q 47 -142 47 -168 q 58 -105 47 -127 q 82 -71 69 -83 q 136 54 136 -25 q 90 121 136 81 q 57 161 57 149 l 52 195 q 56 227 52 210 q 90 258 60 243 q 142 273 120 273 q 237 201 170 273 l 245 191 q 270 143 267 157 q 278 94 278 124 l 278 93 z "},"":{"ha":795,"x_min":44,"x_max":717,"o":"m 492 237 q 529 269 500 254 q 582 283 559 283 q 635 250 597 283 q 682 203 673 217 q 717 104 717 163 q 673 -77 717 37 q 559 -192 630 -192 q 507 -175 528 -192 q 486 -132 486 -159 q 518 -61 486 -94 q 574 67 574 -12 q 535 123 574 81 q 501 159 511 147 q 490 224 490 171 l 490 230 q 492 237 490 233 m 144 -20 q 172 55 172 26 q 142 100 172 68 q 102 158 102 146 q 165 252 102 252 q 221 223 194 252 l 241 202 q 294 152 279 176 q 310 85 310 128 q 284 -32 310 40 q 245 -114 259 -103 q 180 -151 231 -125 q 116 -176 130 -176 q 66 -156 88 -176 q 44 -110 44 -136 q 60 -63 44 -79 q 117 -33 77 -47 q 144 -20 138 -26 z "},"":{"ha":1422,"x_min":64,"x_max":1372,"o":"m 412 154 q 408 144 412 151 q 369 68 372 92 q 364 41 367 53 q 304 20 328 20 q 244 52 274 20 q 215 109 215 84 q 255 191 215 117 q 338 330 296 265 q 517 671 427 469 q 567 777 543 728 q 475 787 536 787 q 416 785 427 787 q 413 778 413 783 q 381 671 413 726 q 314 597 349 616 q 217 578 279 578 q 64 704 64 578 q 167 883 64 787 q 170 889 166 884 l 180 899 q 220 943 207 933 q 255 954 234 954 q 369 908 336 954 q 387 888 376 897 q 437 896 401 890 q 482 901 470 901 q 641 892 548 901 q 753 877 734 884 q 790 852 772 871 q 807 818 807 833 q 791 780 807 794 q 745 748 775 766 q 598 524 690 717 q 496 336 572 473 q 412 154 448 248 m 203 682 q 313 798 282 682 q 242 814 269 801 q 201 755 222 791 q 180 700 180 718 q 203 682 184 684 m 1161 119 q 1074 76 1090 76 q 963 103 1017 76 q 909 217 909 131 q 939 316 909 238 q 989 413 968 394 q 1047 458 1010 431 q 1138 486 1084 486 l 1157 486 q 1276 474 1242 486 q 1341 418 1310 462 q 1372 341 1372 375 q 1328 221 1372 271 q 1161 119 1284 171 m 1192 383 q 1096 330 1155 383 q 1038 212 1038 276 q 1084 191 1038 191 q 1181 251 1118 191 q 1244 340 1244 311 q 1224 367 1244 350 q 1192 383 1205 383 m 907 372 q 909 350 909 364 q 850 204 909 273 q 691 111 790 135 q 632 104 674 104 q 544 145 589 104 q 498 220 498 186 q 576 370 498 271 q 721 470 654 470 q 907 372 844 470 m 760 365 q 681 318 727 365 q 635 231 635 271 q 644 214 635 214 q 708 230 652 214 q 776 287 764 245 q 787 347 787 328 q 776 357 787 350 q 760 365 765 365 z "},"":{"ha":1077,"x_min":-14,"x_max":1062,"o":"m 273 219 q 202 93 262 191 q 120 -15 143 -4 q 79 -26 97 -26 q 21 0 55 -26 q -14 56 -14 27 q 157 341 -14 82 q 326 622 250 483 q 514 948 480 903 q 585 994 549 994 q 668 964 642 994 q 681 919 681 955 q 676 876 681 892 q 870 341 800 498 q 1011 113 941 184 q 1054 66 1046 78 q 1062 33 1062 54 q 1035 -30 1062 -4 q 970 -55 1008 -55 q 866 5 919 -55 q 765 169 812 64 q 718 286 718 273 q 715 289 718 289 q 552 263 678 289 q 349 213 425 237 q 314 207 329 207 q 273 219 288 207 m 664 427 q 568 711 648 467 q 557 740 560 734 l 365 374 q 452 387 408 381 q 604 416 482 391 q 664 427 634 422 m 618 1307 q 574 1260 592 1281 q 538 1221 555 1238 l 538 1221 q 505 1187 531 1211 q 434 1116 477 1162 q 377 1090 409 1090 q 340 1101 353 1090 q 328 1158 328 1112 q 371 1231 328 1196 q 389 1248 381 1240 l 439 1296 q 522 1386 482 1337 q 637 1476 593 1476 q 747 1344 683 1476 q 783 1289 765 1310 q 798 1269 787 1285 q 858 1197 823 1232 q 887 1161 881 1173 q 892 1128 892 1149 q 872 1085 892 1107 q 825 1064 852 1064 q 726 1147 780 1064 q 682 1206 717 1162 q 618 1307 632 1266 z "},"":{"ha":947,"x_min":93,"x_max":931,"o":"m 867 841 l 658 830 q 470 811 549 824 q 385 790 391 798 q 376 749 378 783 q 351 629 372 715 q 331 523 334 564 q 456 532 374 523 q 571 549 537 541 q 722 572 669 572 q 829 509 829 572 q 800 444 829 462 q 706 419 770 426 q 618 407 667 415 q 553 399 592 403 q 332 365 366 377 l 331 365 q 314 349 319 361 q 293 249 308 337 q 278 125 278 160 q 309 100 281 100 q 480 118 342 100 q 652 142 619 136 q 774 162 745 162 q 860 82 860 150 q 840 35 860 51 q 652 -3 772 4 q 427 -26 559 -9 q 204 -52 309 -52 q 125 -28 149 -52 q 96 45 100 -5 l 94 67 q 105 109 93 73 q 172 479 132 192 q 211 800 211 767 q 207 805 211 800 q 191 831 202 809 q 180 876 180 853 q 182 896 180 888 q 212 924 185 910 q 261 939 238 939 q 326 935 293 939 q 692 975 382 935 q 800 989 795 989 l 809 989 q 931 911 931 998 q 909 870 931 895 q 867 841 887 846 m 625 1320 q 580 1273 598 1294 q 544 1234 561 1251 l 545 1234 q 511 1200 537 1224 q 440 1129 483 1175 q 383 1103 415 1103 q 347 1114 359 1103 q 334 1171 334 1125 q 377 1244 334 1208 q 395 1261 387 1253 l 445 1309 q 528 1399 488 1350 q 643 1489 600 1489 q 753 1357 689 1489 q 789 1301 771 1323 q 804 1282 793 1298 q 864 1210 829 1245 q 893 1174 887 1186 q 899 1141 899 1162 q 878 1098 899 1120 q 831 1077 858 1077 q 732 1160 786 1077 q 688 1219 723 1175 q 625 1320 638 1279 z "},"":{"ha":1077,"x_min":-14,"x_max":1062,"o":"m 273 219 q 202 93 262 191 q 120 -15 143 -4 q 79 -26 97 -26 q 21 0 55 -26 q -14 56 -14 27 q 157 341 -14 82 q 326 622 250 483 q 514 948 480 903 q 585 994 549 994 q 668 964 642 994 q 681 919 681 955 q 676 876 681 892 q 870 341 800 498 q 1011 113 941 184 q 1054 66 1046 78 q 1062 33 1062 54 q 1035 -30 1062 -4 q 970 -55 1008 -55 q 866 5 919 -55 q 765 169 812 64 q 718 286 718 273 q 715 289 718 289 q 552 263 678 289 q 349 213 425 237 q 314 207 329 207 q 273 219 288 207 m 664 427 q 568 711 648 467 q 557 740 560 734 l 365 374 q 452 387 408 381 q 604 416 482 391 q 664 427 634 422 m 756 1245 l 757 1245 q 646 1164 741 1230 q 604 1134 610 1139 q 585 1128 598 1128 q 543 1145 559 1128 q 528 1186 528 1162 q 625 1300 528 1226 l 624 1300 q 671 1337 650 1320 q 822 1453 790 1433 q 868 1474 853 1474 q 908 1440 886 1474 q 930 1390 930 1407 q 911 1353 930 1375 q 864 1316 892 1330 q 756 1245 833 1303 z "},"":{"ha":947,"x_min":93,"x_max":931,"o":"m 867 841 l 658 830 q 470 811 549 824 q 385 790 391 798 q 376 749 378 783 q 351 629 372 715 q 331 523 334 564 q 456 532 374 523 q 571 549 537 541 q 722 572 669 572 q 829 509 829 572 q 800 444 829 462 q 706 419 770 426 q 618 407 667 415 q 553 399 592 403 q 332 365 366 377 l 331 365 q 314 349 319 361 q 293 249 308 337 q 278 125 278 160 q 309 100 281 100 q 480 118 342 100 q 652 142 619 136 q 774 162 745 162 q 860 82 860 150 q 840 35 860 51 q 652 -3 772 4 q 427 -26 559 -9 q 204 -52 309 -52 q 125 -28 149 -52 q 96 45 100 -5 l 94 67 q 105 109 93 73 q 172 479 132 192 q 211 800 211 767 q 207 805 211 800 q 191 831 202 809 q 180 876 180 853 q 182 896 180 888 q 212 924 185 910 q 261 939 238 939 q 326 935 293 939 q 692 975 382 935 q 800 989 795 989 l 809 989 q 931 911 931 998 q 909 870 931 895 q 867 841 887 846 m 744 1105 q 685 1128 710 1105 q 659 1183 659 1152 q 680 1236 659 1221 q 749 1262 701 1251 l 760 1265 q 815 1256 789 1274 q 841 1197 841 1239 q 744 1105 841 1105 m 500 1087 q 437 1104 471 1087 q 403 1141 403 1121 q 473 1242 403 1242 q 559 1215 527 1242 q 591 1136 591 1187 q 500 1087 591 1087 z "},"":{"ha":437,"x_min":109,"x_max":618,"o":"m 335 673 q 316 574 320 611 q 302 473 316 555 q 280 275 280 328 q 291 99 280 186 q 265 7 299 36 q 197 -22 231 -22 q 129 20 149 -22 q 109 165 109 62 q 140 469 109 229 l 178 734 q 195 842 189 792 q 215 933 203 916 q 257 970 227 951 q 303 989 288 989 q 363 958 342 989 q 384 880 384 926 l 335 673 m 444 1240 l 445 1240 q 334 1158 429 1224 q 292 1128 298 1134 q 273 1123 286 1123 q 231 1140 247 1123 q 216 1181 216 1156 q 313 1295 216 1221 l 312 1295 q 359 1332 338 1315 q 510 1448 478 1428 q 556 1468 541 1468 q 596 1435 574 1468 q 618 1385 618 1402 q 599 1347 618 1370 q 552 1311 580 1324 q 444 1240 521 1297 z "},"":{"ha":437,"x_min":63,"x_max":627,"o":"m 334 673 q 315 574 319 611 q 302 473 315 555 q 279 275 279 328 q 290 99 279 186 q 264 7 298 36 q 197 -22 231 -22 q 128 20 149 -22 q 108 165 108 62 q 140 469 108 229 l 177 734 q 194 842 189 792 q 214 933 202 916 q 256 970 226 951 q 302 989 287 989 q 362 958 342 989 q 383 880 383 926 l 334 673 m 353 1293 q 309 1246 327 1267 q 273 1208 290 1225 l 273 1208 q 239 1174 266 1198 q 169 1103 212 1148 q 112 1076 144 1076 q 75 1087 87 1076 q 63 1144 63 1099 q 106 1217 63 1182 q 124 1234 116 1226 l 174 1282 q 256 1373 217 1324 q 372 1462 328 1462 q 482 1331 418 1462 q 518 1275 500 1297 q 533 1255 522 1272 q 593 1183 558 1219 q 622 1147 616 1160 q 627 1115 627 1135 q 607 1072 627 1093 q 559 1050 587 1050 q 460 1134 515 1050 q 416 1192 452 1149 q 353 1293 367 1253 z "},"":{"ha":437,"x_min":109,"x_max":563,"o":"m 335 673 q 316 574 320 611 q 302 473 316 555 q 280 275 280 328 q 291 99 280 186 q 265 7 299 36 q 197 -22 231 -22 q 129 20 149 -22 q 109 165 109 62 q 140 469 109 229 l 178 734 q 195 842 189 792 q 215 933 203 916 q 257 970 227 951 q 303 989 288 989 q 363 958 342 989 q 384 880 384 926 l 335 673 m 466 1146 q 407 1170 432 1146 q 381 1224 381 1193 q 402 1277 381 1263 q 471 1303 422 1292 l 482 1307 q 537 1298 511 1315 q 563 1238 563 1280 q 466 1146 563 1146 m 222 1128 q 159 1145 193 1128 q 125 1183 125 1162 q 195 1284 125 1284 q 281 1256 249 1284 q 313 1177 313 1228 q 222 1128 313 1128 z "},"":{"ha":437,"x_min":96,"x_max":501,"o":"m 335 673 q 316 574 320 611 q 302 473 316 555 q 280 275 280 328 q 291 99 280 186 q 265 7 299 36 q 197 -22 231 -22 q 129 20 149 -22 q 109 165 109 62 q 140 469 109 229 l 178 734 q 195 842 189 792 q 215 933 203 916 q 257 970 227 951 q 303 989 288 989 q 363 958 342 989 q 384 880 384 926 l 335 673 m 315 1222 l 283 1243 q 175 1322 254 1261 q 96 1423 96 1384 q 124 1465 96 1442 q 180 1488 153 1488 q 215 1472 193 1488 q 306 1394 237 1457 l 454 1263 q 501 1189 501 1221 q 433 1126 501 1126 q 315 1222 411 1126 z "},"":{"ha":1114,"x_min":68,"x_max":1077,"o":"m 360 -47 q 157 63 245 -47 q 68 291 68 174 q 153 602 68 429 q 371 883 237 774 q 651 992 505 992 q 838 965 764 992 q 974 885 911 938 q 1056 777 1036 833 q 1077 623 1077 721 q 1022 414 1077 537 q 861 182 966 291 q 646 13 755 73 q 360 -47 537 -47 m 239 297 q 289 158 239 214 q 403 102 338 102 q 744 277 585 102 q 903 648 903 452 q 877 759 903 717 q 787 830 850 802 q 651 858 724 858 q 380 669 520 858 q 239 297 239 479 m 846 1212 l 847 1212 q 736 1131 831 1196 q 694 1101 701 1106 q 675 1095 688 1095 q 633 1112 649 1095 q 618 1153 618 1128 q 715 1267 618 1193 l 714 1267 q 762 1304 741 1287 q 912 1420 880 1400 q 958 1440 943 1440 q 998 1407 976 1440 q 1020 1357 1020 1374 q 1001 1319 1020 1342 q 954 1283 982 1297 q 846 1212 923 1270 z "},"":{"ha":1114,"x_min":68,"x_max":1077,"o":"m 360 -47 q 157 63 245 -47 q 68 291 68 174 q 153 602 68 429 q 371 883 237 774 q 651 992 505 992 q 838 965 764 992 q 974 885 911 938 q 1056 777 1036 833 q 1077 623 1077 721 q 1022 414 1077 537 q 861 182 966 291 q 646 13 755 73 q 360 -47 537 -47 m 239 297 q 289 158 239 214 q 403 102 338 102 q 744 277 585 102 q 903 648 903 452 q 877 759 903 717 q 787 830 850 802 q 651 858 724 858 q 380 669 520 858 q 239 297 239 479 m 744 1305 q 699 1259 718 1280 q 663 1220 680 1237 l 664 1220 q 630 1186 656 1210 q 559 1115 602 1160 q 503 1088 534 1088 q 466 1100 478 1088 q 454 1156 454 1111 q 496 1230 454 1194 q 515 1246 507 1238 l 564 1295 q 647 1385 608 1336 q 762 1474 719 1474 q 873 1343 808 1474 q 909 1287 890 1309 q 924 1267 912 1284 q 983 1196 949 1231 q 1012 1160 1006 1172 q 1018 1127 1018 1147 q 998 1084 1018 1105 q 950 1063 977 1063 q 851 1146 905 1063 q 807 1204 842 1161 q 744 1305 758 1265 z "},"":{"ha":1114,"x_min":68,"x_max":1077,"o":"m 360 -47 q 157 63 245 -47 q 68 291 68 174 q 153 602 68 429 q 371 883 237 774 q 651 992 505 992 q 838 965 764 992 q 974 885 911 938 q 1056 777 1036 833 q 1077 623 1077 721 q 1022 414 1077 537 q 861 182 966 291 q 646 13 755 73 q 360 -47 537 -47 m 239 297 q 289 158 239 214 q 403 102 338 102 q 744 277 585 102 q 903 648 903 452 q 877 759 903 717 q 787 830 850 802 q 651 858 724 858 q 380 669 520 858 q 239 297 239 479 m 652 1209 l 621 1230 q 513 1310 592 1248 q 433 1411 433 1371 q 462 1452 433 1429 q 517 1475 490 1475 q 553 1459 531 1475 q 644 1381 574 1444 l 792 1250 q 839 1176 839 1208 q 770 1113 839 1113 q 652 1209 749 1113 z "},"":{"ha":1074,"x_min":111,"x_max":1028,"o":"m 484 -45 q 315 0 414 -45 q 163 154 216 45 q 111 389 111 263 q 130 559 111 454 l 152 685 q 162 747 157 717 q 176 838 170 794 q 210 950 186 912 q 283 987 233 987 q 333 949 307 987 q 358 890 358 911 q 326 741 358 876 q 297 575 317 707 q 277 397 277 444 q 353 163 277 224 q 481 103 429 103 q 719 177 653 103 q 803 417 785 250 q 811 475 806 448 q 823 607 818 544 q 870 907 839 846 q 958 967 901 967 q 1028 876 1028 967 q 1002 673 1028 821 q 981 499 986 585 q 924 198 968 294 q 765 28 880 102 q 484 -45 649 -45 m 787 1209 l 788 1209 q 677 1128 772 1194 q 635 1098 642 1103 q 616 1093 629 1093 q 574 1109 590 1093 q 559 1150 559 1126 q 656 1264 559 1190 l 655 1264 q 703 1301 682 1284 q 853 1417 821 1397 q 899 1438 884 1438 q 939 1404 917 1438 q 961 1354 961 1371 q 942 1317 961 1339 q 895 1280 923 1294 q 787 1209 864 1267 z "},"":{"ha":1074,"x_min":111,"x_max":1028,"o":"m 484 -45 q 315 0 414 -45 q 163 154 216 45 q 111 389 111 263 q 130 559 111 454 l 152 685 q 162 747 157 717 q 176 838 170 794 q 210 950 186 912 q 283 987 233 987 q 333 949 307 987 q 358 890 358 911 q 326 741 358 876 q 297 575 317 707 q 277 397 277 444 q 353 163 277 224 q 481 103 429 103 q 719 177 653 103 q 803 417 785 250 q 811 475 806 448 q 823 607 818 544 q 870 907 839 846 q 958 967 901 967 q 1028 876 1028 967 q 1002 673 1028 821 q 981 499 986 585 q 924 198 968 294 q 765 28 880 102 q 484 -45 649 -45 m 677 1329 q 632 1282 650 1303 q 596 1244 613 1261 l 597 1244 q 563 1210 589 1234 q 492 1139 535 1184 q 435 1112 467 1112 q 399 1123 411 1112 q 387 1180 387 1135 q 429 1253 387 1218 q 448 1270 439 1262 l 497 1318 q 580 1409 541 1360 q 695 1498 652 1498 q 806 1367 741 1498 q 842 1311 823 1333 q 857 1291 845 1308 q 916 1219 882 1255 q 945 1183 939 1196 q 951 1151 951 1171 q 930 1108 951 1129 q 883 1086 910 1086 q 784 1170 838 1086 q 740 1228 775 1185 q 677 1329 690 1289 z "},"":{"ha":1074,"x_min":111,"x_max":1028,"o":"m 484 -45 q 315 0 414 -45 q 163 154 216 45 q 111 389 111 263 q 130 559 111 454 l 152 685 q 162 747 157 717 q 176 838 170 794 q 210 950 186 912 q 283 987 233 987 q 333 949 307 987 q 358 890 358 911 q 326 741 358 876 q 297 575 317 707 q 277 397 277 444 q 353 163 277 224 q 481 103 429 103 q 719 177 653 103 q 803 417 785 250 q 811 475 806 448 q 823 607 818 544 q 870 907 839 846 q 958 967 901 967 q 1028 876 1028 967 q 1002 673 1028 821 q 981 499 986 585 q 924 198 968 294 q 765 28 880 102 q 484 -45 649 -45 m 549 1201 l 517 1222 q 410 1301 489 1240 q 330 1402 330 1363 q 359 1444 330 1421 q 414 1467 387 1467 q 450 1451 428 1467 q 541 1373 471 1436 l 689 1242 q 736 1168 736 1200 q 667 1105 736 1105 q 549 1201 646 1105 z "},"":{"ha":399,"x_min":80,"x_max":328,"o":"m 125 450 l 125 450 q 146 591 146 573 q 169 675 146 641 q 230 709 191 709 q 302 687 276 709 q 328 638 328 665 q 302 526 328 611 l 298 511 q 254 298 261 380 q 246 164 246 215 q 260 54 246 123 q 262 33 262 41 q 233 -9 262 18 q 170 -35 203 -35 q 80 100 80 -35 q 113 381 80 216 q 125 450 119 418 z "},"":{"ha":541,"x_min":3,"x_max":567,"o":"m 293 960 q 248 913 267 934 q 212 874 229 891 l 213 874 q 179 840 205 864 q 109 769 151 814 q 52 743 83 743 q 15 754 27 743 q 3 810 3 765 q 45 884 3 848 q 64 901 56 892 l 113 949 q 196 1039 157 990 q 311 1128 268 1128 q 422 997 357 1128 q 458 941 439 963 q 473 922 461 938 q 532 850 498 885 q 561 814 555 826 q 567 781 567 802 q 547 738 567 760 q 499 717 526 717 q 400 800 454 717 q 356 859 391 815 q 293 960 307 919 z "},"":{"ha":635,"x_min":-7,"x_max":637,"o":"m 370 766 q 318 806 353 774 l 303 819 q 286 835 295 825 q 230 871 249 871 q 143 810 195 871 l 144 810 q 86 744 102 753 q 49 734 70 734 q -7 789 -7 734 q 72 922 -7 842 q 211 1002 151 1002 q 288 990 261 1002 q 342 949 315 977 q 418 887 388 904 q 453 869 448 869 q 507 911 476 869 q 530 944 522 933 q 538 954 534 949 q 585 983 561 983 q 637 926 637 983 q 582 819 637 894 q 464 743 526 743 q 370 766 404 743 z "},"":{"ha":535,"x_min":14,"x_max":549,"o":"m 450 825 q 364 780 424 804 q 258 755 304 755 q 148 799 216 755 q 47 895 81 842 q 14 964 14 947 q 31 1011 14 983 q 85 1038 48 1038 q 130 1006 116 1038 q 174 945 144 973 q 191 926 182 937 q 267 885 227 885 q 427 962 371 885 q 502 1023 477 1023 q 535 1002 522 1023 q 549 962 549 981 q 517 896 549 939 q 450 825 485 852 z "},"":{"ha":313,"x_min":52,"x_max":256,"o":"m 150 796 q 82 820 113 796 q 52 872 52 844 q 83 946 52 904 q 144 988 115 988 q 226 961 196 988 q 256 891 256 934 q 224 826 256 856 q 150 796 193 796 z "},"":{"ha":507,"x_min":79,"x_max":456,"o":"m 442 962 q 456 903 456 928 q 390 778 456 835 q 250 721 323 721 q 128 769 176 721 q 79 886 79 818 q 140 1005 79 947 q 302 1063 201 1063 q 377 1039 327 1063 q 442 961 427 1016 l 442 962 m 242 959 q 218 932 229 958 q 208 882 208 907 q 225 834 208 859 q 256 809 242 809 q 297 825 262 809 q 333 897 333 842 q 331 908 333 900 q 326 926 328 916 l 321 942 q 319 951 319 949 q 299 960 319 957 q 272 964 280 964 q 242 959 256 964 z "},"":{"ha":429,"x_min":16,"x_max":430,"o":"m 336 -351 l 337 -351 q 192 -394 272 -394 q 73 -368 130 -394 q 16 -303 16 -342 q 38 -256 16 -281 q 85 -231 60 -231 q 137 -260 102 -231 q 182 -289 172 -289 q 241 -282 224 -289 q 273 -251 258 -275 q 288 -212 288 -228 q 271 -183 288 -197 q 238 -170 254 -170 q 230 -172 237 -170 q 176 -184 191 -184 q 113 -130 113 -184 l 181 43 q 250 75 188 75 q 286 55 269 75 q 302 10 302 35 q 291 -20 302 1 q 267 -79 267 -62 q 286 -76 270 -81 q 303 -73 295 -73 q 367 -86 337 -73 q 413 -133 396 -100 q 430 -234 430 -165 q 401 -294 430 -258 q 336 -351 372 -329 z "},"":{"ha":583,"x_min":38,"x_max":623,"o":"m 231 878 l 231 879 q 85 741 136 741 q 52 757 66 741 q 38 789 38 773 q 43 817 38 806 q 79 869 48 829 q 107 907 96 891 q 182 1006 145 966 q 212 1040 201 1025 q 311 1107 258 1107 q 358 1089 337 1107 q 378 1048 378 1072 q 355 1013 378 1036 l 343 1000 q 318 977 334 991 q 290 949 302 964 q 269 926 277 933 q 231 878 254 909 m 343 889 q 355 902 349 895 q 389 942 360 909 q 404 960 398 953 l 418 975 q 485 1050 456 1010 q 515 1073 491 1057 q 557 1088 538 1088 q 623 1044 623 1088 q 596 1000 623 1026 q 562 952 585 985 q 509 893 536 915 q 403 791 454 856 q 313 724 352 724 q 276 766 276 724 q 330 873 276 808 q 343 889 335 878 z "},"":{"ha":389,"x_min":43,"x_max":391,"o":"m 316 -343 l 317 -343 q 180 -364 258 -364 q 79 -324 116 -364 q 43 -222 43 -283 q 122 -39 43 -133 q 248 55 201 55 q 290 37 275 55 q 305 -5 305 19 q 252 -77 305 -37 q 184 -210 184 -149 q 206 -243 184 -243 q 299 -212 256 -243 q 350 -192 326 -192 q 379 -210 368 -192 q 391 -249 391 -228 q 316 -343 391 -316 z "},"":{"ha":532,"x_min":14,"x_max":534,"o":"m 421 882 q 313 750 348 803 q 252 729 298 729 q 199 755 224 729 q 121 871 174 781 q 32 997 87 927 q 14 1040 14 1019 q 77 1101 14 1101 q 128 1089 108 1101 q 180 1028 148 1078 q 219 964 212 979 q 246 923 224 956 q 274 886 268 890 q 307 925 282 894 q 396 1019 338 964 q 481 1074 454 1074 q 517 1054 499 1074 q 534 1018 534 1035 q 449 908 534 983 q 421 882 422 886 z "},"":{"ha":871,"x_min":13,"x_max":875,"o":"m 751 659 q 759 625 759 637 q 656 562 759 582 q 612 551 627 557 l 612 551 q 509 511 596 546 l 510 511 l 381 463 q 346 449 372 461 q 306 434 319 437 q 278 170 278 225 q 285 150 278 150 q 394 163 319 150 q 694 190 500 181 q 766 203 721 192 q 795 208 786 208 q 854 185 833 208 q 875 133 875 163 q 839 60 875 87 q 757 33 802 33 q 670 39 737 33 q 487 29 607 44 q 283 -13 367 14 q 172 -38 205 -38 q 108 -5 131 -38 q 85 57 85 27 q 98 124 85 72 q 114 203 111 169 q 134 370 114 205 q 122 365 123 365 q 89 359 105 359 q 35 378 58 359 q 13 420 13 398 q 45 487 13 469 l 44 487 l 62 495 q 83 504 73 499 l 106 514 q 128 525 117 519 q 137 529 134 528 q 143 532 140 530 q 148 534 145 533 q 154 537 150 535 l 191 898 q 290 989 201 989 q 347 965 323 989 q 371 912 371 940 q 355 799 371 871 q 341 709 345 745 l 340 704 q 334 652 338 685 q 328 600 331 624 q 410 633 380 618 q 543 688 494 672 q 597 705 563 692 q 648 715 627 715 q 714 706 691 715 q 751 659 737 696 l 751 659 z "},"":{"ha":536,"x_min":-20,"x_max":652,"o":"m 645 720 q 652 688 652 699 q 628 650 652 662 q 555 630 604 639 q 356 557 512 622 q 340 551 344 552 q 317 290 317 403 q 332 80 317 205 q 334 47 334 58 q 304 -22 334 7 q 239 -52 274 -52 q 171 -6 191 -52 q 151 150 151 39 q 176 492 151 313 q 92 453 128 472 q 56 447 79 447 q 3 465 26 447 q -20 508 -20 483 q -13 546 -20 528 q 2 569 -5 563 q 39 586 9 574 q 67 598 56 593 q 197 654 119 623 q 289 1069 254 996 q 376 1141 324 1141 q 449 1061 449 1141 q 404 850 449 1010 q 371 721 376 747 q 555 775 498 775 q 644 720 624 775 l 645 720 z "},"":{"ha":884,"x_min":49,"x_max":848,"o":"m 718 729 q 683 822 718 796 q 581 848 648 848 q 369 792 467 848 q 271 669 271 736 q 308 596 271 627 q 498 522 345 566 q 738 419 660 475 q 817 284 817 363 q 617 44 817 153 q 203 -64 418 -64 q 91 -35 133 -64 q 49 37 49 -6 q 68 100 49 71 q 113 129 87 129 q 143 123 130 129 q 276 93 214 93 q 514 152 382 93 q 646 269 646 212 q 613 314 646 292 q 479 370 580 336 q 257 449 332 418 q 145 531 183 480 q 106 652 106 581 q 254 888 106 779 q 602 998 402 998 q 782 952 716 998 q 848 848 848 907 q 718 729 848 729 m 728 1240 q 620 1108 655 1161 q 559 1087 606 1087 q 506 1113 531 1087 q 428 1230 481 1139 q 339 1355 394 1285 q 321 1398 321 1377 q 385 1459 321 1459 q 435 1448 415 1459 q 487 1386 455 1436 q 526 1322 519 1337 q 553 1281 531 1314 q 581 1244 575 1249 q 614 1283 589 1252 q 703 1377 646 1322 q 789 1432 761 1432 q 824 1412 806 1432 q 842 1376 842 1393 q 756 1266 842 1341 q 728 1240 730 1244 z "},"":{"ha":587,"x_min":-4,"x_max":691,"o":"m 395 172 q 279 262 393 209 q 100 377 139 329 q 62 483 62 426 q 196 693 62 603 q 448 783 331 783 q 562 683 562 783 q 536 635 562 656 q 492 614 510 614 q 465 624 484 614 q 436 633 446 633 q 303 593 376 633 q 231 498 231 552 q 256 447 231 471 q 361 385 282 422 q 516 284 479 329 q 553 185 553 239 q 419 20 553 86 q 119 -46 286 -46 q -4 43 -4 -46 q 22 98 -4 75 q 79 121 47 121 q 119 112 92 121 q 170 102 146 102 q 303 122 233 102 q 395 172 373 142 m 578 1007 q 469 876 505 928 q 409 854 455 854 q 356 880 380 854 q 277 997 331 906 q 189 1122 243 1053 q 171 1166 171 1145 q 234 1227 171 1227 q 284 1215 264 1227 q 337 1154 304 1203 q 376 1090 369 1104 q 402 1048 380 1081 q 431 1012 425 1016 q 463 1050 439 1019 q 553 1144 495 1090 q 638 1199 610 1199 q 673 1180 656 1199 q 691 1143 691 1160 q 606 1034 691 1109 q 578 1007 579 1012 z "},"":{"ha":1088,"x_min":18,"x_max":1027,"o":"m 1012 863 q 1001 852 1010 859 q 961 823 981 839 q 861 711 941 806 q 677 504 760 591 q 393 223 595 417 l 323 155 q 487 171 387 160 q 646 186 630 186 q 726 189 694 186 q 782 191 757 191 q 979 96 979 191 q 959 35 979 57 q 905 13 939 13 q 841 22 878 13 q 693 38 783 38 q 494 27 659 38 l 495 27 q 275 12 328 18 q 154 -13 222 5 q 86 -28 101 -28 q 18 39 18 -28 q 55 121 18 94 q 290 325 145 188 q 562 595 434 461 q 610 644 582 616 q 774 821 722 757 q 528 794 763 821 q 304 777 379 777 q 209 788 258 777 q 137 868 137 820 q 165 920 137 890 q 210 949 193 949 q 244 941 223 949 q 276 933 265 933 l 401 932 q 515 937 453 931 q 660 945 560 941 q 813 958 772 951 q 970 979 938 979 q 1027 919 1027 979 q 1012 863 1027 885 m 770 1249 q 661 1118 696 1171 q 601 1097 647 1097 q 548 1122 572 1097 q 469 1239 523 1148 q 380 1364 435 1295 q 363 1408 363 1387 q 426 1469 363 1469 q 476 1457 456 1469 q 529 1396 496 1445 q 568 1332 561 1346 q 594 1291 572 1323 q 623 1254 616 1258 q 655 1293 631 1261 q 745 1387 687 1332 q 830 1441 802 1441 q 865 1422 848 1441 q 883 1385 883 1402 q 798 1276 883 1351 q 770 1249 771 1254 z "},"":{"ha":695,"x_min":-74,"x_max":701,"o":"m 547 191 q 701 100 701 191 q 656 1 701 46 q 611 23 631 12 q 463 52 556 52 q 282 31 408 52 q 111 -32 157 9 q 24 -66 72 -66 q -44 -47 -16 -66 q -74 2 -73 -27 q 14 96 -40 41 q 466 570 454 542 q 397 564 439 570 q 219 548 279 548 q 50 632 50 548 q 136 705 50 705 q 152 701 143 705 q 261 682 201 682 q 515 705 367 682 q 579 712 554 712 q 645 693 619 712 q 670 645 670 675 q 620 557 670 622 l 621 558 q 252 159 597 513 q 233 140 237 144 q 243 142 235 140 q 264 147 252 144 l 291 153 q 317 159 305 156 q 349 166 346 166 q 541 191 475 191 l 547 191 m 570 935 q 461 804 496 857 q 401 783 447 783 q 348 808 372 783 q 269 925 323 834 q 180 1050 235 981 q 163 1094 163 1073 q 226 1155 163 1155 q 276 1143 256 1155 q 329 1082 296 1131 q 368 1018 361 1032 q 394 977 372 1009 q 422 940 416 944 q 455 979 431 947 q 545 1073 487 1018 q 630 1127 602 1127 q 665 1108 648 1127 q 683 1072 683 1088 q 597 962 683 1037 q 570 935 571 940 z "},"":{"ha":446,"x_min":136,"x_max":298,"o":"m 155 1239 l 155 1288 q 173 1361 154 1343 q 211 1380 192 1380 q 272 1355 246 1380 q 298 1301 298 1329 l 293 711 l 292 599 q 287 525 292 542 q 266 495 281 507 q 227 482 250 482 q 177 499 199 482 q 155 541 155 517 l 159 937 l 155 1239 m 292 155 q 290 -62 292 102 l 283 -549 q 271 -650 281 -629 q 245 -680 260 -671 q 209 -688 230 -688 q 156 -667 175 -688 q 136 -621 136 -647 l 153 -123 q 156 58 156 -43 q 152 157 156 102 q 221 244 144 244 q 292 155 292 244 l 292 155 z "},"":{"ha":1101,"x_min":33,"x_max":1057,"o":"m 155 397 q 134 391 142 393 q 62 411 91 391 q 33 465 33 430 q 48 503 33 479 q 79 537 64 526 q 175 567 93 548 l 201 744 q 210 805 210 789 q 199 819 210 817 q 127 883 127 839 q 156 944 127 916 q 219 973 186 973 l 310 970 q 482 980 364 970 q 633 987 567 987 q 940 881 823 987 q 1057 600 1057 775 q 877 248 1057 404 q 439 32 698 91 q 344 6 372 17 q 279 -28 316 -5 q 188 -60 233 -60 q 126 -27 153 -60 q 99 27 99 6 q 113 68 99 44 q 140 229 134 105 q 155 397 143 298 m 306 143 q 512 196 342 143 q 788 358 683 249 q 892 606 892 467 q 814 784 892 718 q 610 850 736 850 q 412 836 503 850 q 376 831 406 834 q 340 595 354 701 q 508 606 425 606 q 636 590 603 606 q 669 530 669 574 q 641 469 669 495 q 556 452 612 444 l 557 452 q 419 458 498 458 q 319 446 396 458 q 302 192 302 269 q 306 143 302 157 z "},"":{"ha":696,"x_min":32,"x_max":664,"o":"m 650 309 l 650 309 q 594 211 630 256 q 468 107 558 165 q 340 32 378 50 q 243 15 302 15 q 132 57 174 15 q 61 151 90 99 q 32 293 32 203 l 32 342 q 137 553 32 434 q 423 703 241 672 q 355 793 407 748 q 315 770 339 787 q 163 693 201 693 q 124 714 140 693 q 108 760 108 736 q 186 823 108 785 l 186 823 q 250 867 238 850 q 210 886 230 877 q 136 937 136 920 q 170 998 136 964 q 238 1031 204 1031 q 387 939 285 1031 q 459 986 399 939 q 465 991 463 988 q 513 1027 484 1009 q 570 1045 542 1045 q 624 983 624 1045 q 511 886 624 943 q 493 875 499 880 q 484 867 487 869 q 479 864 479 866 q 630 619 595 726 q 664 413 664 512 q 650 309 664 342 m 508 476 l 509 475 q 494 536 506 478 q 475 589 482 589 q 376 557 455 589 q 268 498 298 525 q 213 424 238 472 q 189 348 189 376 q 230 195 189 227 q 277 163 271 163 q 408 241 302 163 q 513 402 513 320 q 508 476 513 441 z "},"":{"ha":929,"x_min":9,"x_max":1027,"o":"m 592 450 l 592 451 q 544 76 571 394 q 529 -6 539 5 q 489 -28 518 -18 q 446 -39 460 -39 q 370 63 370 -39 q 391 235 370 109 q 411 410 411 360 q 403 465 411 439 q 266 634 347 525 q 132 789 172 759 q 31 877 52 846 q 9 933 9 908 q 39 973 9 949 q 93 998 68 998 q 412 707 195 998 q 511 585 484 610 q 564 646 537 613 q 618 707 591 680 q 840 955 783 876 q 960 1031 894 1031 q 1008 1006 989 1031 q 1027 956 1027 982 q 781 662 1027 916 q 592 450 602 475 m 683 1246 l 684 1246 q 572 1164 668 1230 q 530 1135 537 1140 q 512 1129 525 1129 q 470 1146 486 1129 q 454 1187 454 1162 q 551 1301 454 1227 l 551 1301 q 598 1338 577 1321 q 748 1454 717 1434 q 795 1474 780 1474 q 834 1441 812 1474 q 857 1391 857 1408 q 838 1353 857 1376 q 791 1317 819 1331 q 683 1246 760 1303 z "},"":{"ha":818,"x_min":-1,"x_max":789,"o":"m 730 399 q 692 80 720 235 q 611 -201 665 -75 q 497 -373 558 -328 q 351 -419 435 -419 q 176 -385 260 -419 l 177 -385 q 52 -304 105 -355 q -1 -220 -1 -254 q 15 -169 -1 -188 q 56 -150 31 -150 q 94 -169 79 -150 q 346 -281 180 -281 q 475 -140 413 -281 q 554 197 538 0 q 231 31 345 31 q 115 90 158 31 q 73 230 73 148 q 111 468 73 312 q 176 662 149 625 q 263 700 203 700 q 313 672 296 700 q 331 610 331 644 q 282 495 331 600 q 222 275 222 368 q 236 203 222 228 q 263 178 249 178 q 342 198 296 178 q 451 266 389 218 q 532 340 514 315 q 562 405 551 365 q 578 579 572 444 q 586 678 582 658 q 610 715 591 699 q 663 732 630 732 q 727 713 708 732 q 745 624 745 694 l 730 399 m 616 884 l 616 884 q 505 803 601 869 q 463 773 470 779 q 445 768 458 768 q 403 784 418 768 q 387 825 387 801 q 484 939 387 865 l 484 939 q 531 977 510 960 q 681 1093 650 1072 q 728 1113 713 1113 q 767 1080 745 1113 q 789 1029 789 1046 q 770 992 789 1015 q 724 956 751 969 q 616 884 692 942 z "},"":{"ha":1096,"x_min":118,"x_max":1107,"o":"m 902 392 l 903 392 q 578 277 721 290 q 479 253 559 275 l 389 227 q 370 222 381 224 q 302 197 317 210 q 291 134 291 154 q 296 84 291 130 q 302 24 302 26 q 286 -42 302 -26 q 225 -57 269 -57 q 149 -18 180 -57 q 118 78 118 20 q 125 161 118 101 l 138 249 q 161 424 149 373 q 185 542 182 511 q 195 656 189 574 q 224 869 201 749 q 243 994 239 945 l 243 994 q 264 1079 245 1061 q 332 1097 283 1097 q 397 1082 371 1097 q 424 1040 424 1066 q 414 982 424 1029 q 404 924 404 935 q 410 918 404 918 l 555 920 q 715 892 608 920 q 772 879 745 884 q 960 824 891 854 q 1068 742 1028 793 q 1107 635 1107 690 q 902 392 1107 507 m 930 594 q 947 618 947 610 q 758 734 949 686 q 411 783 568 783 q 375 763 380 783 l 375 764 q 365 705 365 722 q 334 513 365 635 q 307 380 307 429 q 317 357 307 357 q 479 387 371 357 q 640 426 587 416 q 781 475 692 435 q 903 561 869 515 q 932 595 912 574 l 930 594 z "},"":{"ha":895,"x_min":-12,"x_max":841,"o":"m 231 31 q 195 -214 221 -6 q 171 -383 178 -353 q 137 -443 165 -412 q 85 -473 109 -473 q 23 -445 58 -473 q -12 -399 -12 -418 q 5 -296 -12 -361 q 140 587 113 138 q 160 834 148 704 q 180 984 173 964 q 216 1026 186 1004 q 279 1048 245 1048 q 328 1025 311 1048 q 346 905 346 1002 q 288 465 346 810 q 659 753 457 753 q 788 699 734 753 q 841 563 841 645 q 671 164 841 344 q 335 -15 501 -15 q 231 31 269 -15 m 632 600 q 424 441 553 600 q 295 180 295 283 q 315 147 295 163 q 363 132 334 132 q 562 263 450 132 q 673 520 673 394 q 660 581 673 562 q 632 600 647 600 z "},"":{"ha":800,"x_min":50,"x_max":731,"o":"m 601 309 l 490 312 q 312 302 476 312 q 220 298 254 298 q 168 304 212 298 q 116 311 122 311 q 69 333 89 311 q 50 378 50 355 q 61 407 50 387 q 91 433 73 427 q 197 438 108 438 q 427 446 316 438 q 604 454 538 454 q 731 382 731 454 q 711 327 731 345 q 601 309 690 309 z "},"":{"ha":790,"x_min":104,"x_max":700,"o":"m 568 77 l 569 77 q 504 153 544 104 q 491 168 494 164 q 416 259 463 195 q 401 277 406 272 q 359 231 384 259 l 326 191 q 321 186 321 187 q 311 175 316 181 q 222 82 287 146 l 223 82 q 175 58 201 58 q 128 82 151 58 q 104 123 104 105 q 117 156 104 140 q 188 220 130 173 q 222 253 194 225 l 326 357 q 272 410 323 357 q 176 504 229 453 q 124 556 132 546 q 117 585 117 567 q 139 631 117 613 q 191 650 161 650 q 236 630 208 650 q 276 600 264 611 q 345 509 288 589 q 406 435 371 472 q 510 556 447 473 q 628 643 576 643 q 675 628 654 643 q 696 593 696 612 q 681 543 696 566 q 599 466 666 521 q 485 362 505 389 q 492 356 486 362 q 505 342 497 350 q 643 190 551 296 q 700 113 700 146 q 683 72 700 94 q 643 50 667 50 q 568 77 595 50 z "},"":{"ha":411,"x_min":113,"x_max":336,"o":"m 323 946 q 271 564 273 680 q 246 449 269 476 q 186 422 223 422 q 136 439 159 422 q 113 478 113 456 q 127 664 113 536 q 167 885 142 791 q 219 1009 191 980 q 283 1038 246 1038 q 321 1019 305 1038 q 336 980 336 1000 q 323 946 336 971 z "},"":{"ha":608,"x_min":12,"x_max":620,"o":"m 338 861 q 249 833 305 857 q 237 827 243 830 q 205 807 206 815 q 162 781 187 781 q 117 805 134 781 q 100 861 100 828 q 112 904 100 889 q 184 937 124 920 q 251 962 220 949 q 315 982 276 973 q 366 991 354 991 q 441 960 410 991 q 473 894 473 930 q 460 836 473 877 q 432 777 448 795 q 335 662 416 760 l 246 553 q 232 536 233 537 q 326 558 252 546 l 475 582 q 542 593 528 593 q 598 570 576 593 q 620 511 620 546 q 597 465 620 486 q 539 444 574 444 q 495 453 527 444 q 181 387 441 467 q 96 369 124 369 q 36 388 59 369 q 12 437 12 407 q 81 558 12 477 q 271 766 149 640 q 338 861 323 818 z "},"":{"ha":536,"x_min":17,"x_max":541,"o":"m 333 441 l 334 441 q 79 373 172 373 q 36 394 56 373 q 17 437 17 416 q 45 509 17 486 l 44 509 q 122 526 68 526 q 144 522 135 526 q 206 532 166 522 l 205 532 q 224 537 211 534 q 335 589 269 545 q 401 656 401 633 q 383 660 401 660 q 316 652 370 660 q 245 639 262 644 q 208 631 227 631 q 156 648 177 631 q 136 695 136 665 q 161 742 136 715 q 208 768 186 768 q 228 765 218 768 q 295 802 236 762 q 361 869 353 842 q 304 862 328 869 q 231 826 280 854 q 150 799 185 799 q 105 823 124 799 q 85 867 85 848 q 203 945 85 919 q 262 960 237 952 q 393 991 352 991 q 473 967 443 991 q 503 901 503 943 q 433 779 503 848 q 541 675 541 757 q 474 546 541 621 q 333 441 406 471 z "},"":{"ha":1182,"x_min":81,"x_max":1164,"o":"m 243 494 q 184 473 233 473 q 130 496 149 473 q 111 553 111 518 q 125 608 111 567 l 124 606 q 132 644 128 621 q 157 770 151 753 q 171 827 162 786 q 217 979 197 947 q 276 1011 237 1011 q 319 992 301 1011 q 336 947 336 972 q 300 754 336 882 q 260 554 260 616 q 243 494 260 538 m 460 395 l 461 395 l 363 281 q 288 164 313 222 q 146 7 222 7 q 100 25 119 7 q 81 68 81 42 q 138 166 81 109 q 155 195 145 176 q 308 419 199 292 q 322 439 313 425 q 394 530 370 510 q 464 602 406 541 q 530 684 521 663 q 551 718 537 699 q 688 908 638 862 q 719 924 691 914 q 764 933 747 933 q 806 891 806 933 q 737 753 806 841 q 653 626 724 736 q 460 395 596 538 m 1021 31 l 1022 31 q 942 39 979 39 q 847 32 909 39 q 773 22 785 24 q 634 10 686 10 q 585 3 624 10 q 534 -5 546 -5 q 474 19 501 -5 q 447 69 447 43 q 524 153 447 100 q 683 235 600 205 q 742 267 701 241 q 830 334 776 280 q 885 402 885 388 q 873 406 885 406 q 722 375 835 406 q 634 355 649 355 q 588 378 607 355 q 568 424 568 401 q 710 501 568 469 q 910 532 851 532 q 998 491 962 532 q 1034 429 1034 450 q 982 301 1034 373 q 849 179 930 230 l 850 179 q 770 143 834 168 l 799 149 q 1041 169 908 169 q 1079 165 1050 169 q 1118 156 1105 162 q 1148 123 1132 149 q 1164 74 1164 97 q 1093 22 1164 22 q 1021 31 1067 22 z "},"":{"ha":1150,"x_min":102,"x_max":1144,"o":"m 184 491 q 125 524 149 491 q 102 593 102 556 q 123 707 102 605 q 129 738 127 728 q 150 885 130 758 q 155 924 154 911 q 175 1006 156 956 q 235 1057 195 1057 q 291 1034 271 1057 q 311 979 311 1012 q 298 886 311 960 q 252 597 258 651 q 230 512 246 532 q 184 491 214 491 m 566 511 q 545 479 566 512 q 460 354 524 447 q 325 96 397 262 q 252 -44 281 -9 q 190 -79 222 -79 q 140 -60 161 -79 q 119 -16 119 -41 q 202 172 119 9 q 368 452 286 335 q 463 606 427 533 l 512 699 q 591 856 570 808 q 689 1012 640 968 q 776 1057 738 1057 q 826 1038 804 1057 q 848 994 848 1020 q 773 882 848 975 q 747 850 757 863 q 735 835 740 840 q 625 618 701 793 q 578 528 595 551 q 566 511 574 522 m 793 159 q 659 138 779 159 q 609 131 618 131 q 556 150 578 131 q 534 195 534 168 q 654 349 534 220 q 823 517 774 477 q 861 556 854 543 q 890 594 878 585 q 935 603 902 603 q 969 587 952 603 q 987 559 987 572 q 966 418 987 516 q 945 288 946 323 q 986 286 954 286 q 1058 286 1019 286 q 1121 272 1097 285 q 1144 237 1144 260 q 1122 197 1144 219 q 1075 174 1100 174 l 1011 176 q 953 174 975 176 q 931 168 931 172 l 931 15 q 936 -9 931 9 q 940 -32 940 -28 q 917 -74 940 -54 q 865 -94 895 -94 q 810 -65 827 -94 q 793 45 793 -35 l 793 159 m 829 361 q 738 260 775 309 q 779 264 758 262 q 813 266 798 264 l 829 361 z "},"":{"ha":1214,"x_min":50,"x_max":1161,"o":"m 655 558 l 656 559 q 582 441 652 551 l 419 185 q 364 61 389 135 q 279 -30 328 -30 q 228 -7 249 -30 q 208 40 208 16 q 239 130 208 68 l 239 129 q 438 444 261 183 q 511 557 471 492 l 608 720 q 678 816 634 764 q 803 972 778 937 q 955 1116 903 1116 q 1004 1059 1004 1116 q 873 861 1004 1028 q 655 558 718 663 m 420 828 q 497 807 471 821 q 524 758 524 793 q 311 559 524 662 q 284 541 309 559 q 210 509 243 509 q 159 533 180 509 q 137 578 137 557 q 230 650 137 612 q 380 732 322 688 q 267 725 269 725 q 174 791 174 725 q 290 881 174 823 q 374 928 345 908 q 197 896 277 924 q 111 873 131 873 q 70 893 89 873 q 50 935 50 913 q 147 1001 50 966 q 383 1035 244 1035 q 489 1017 441 1035 q 536 960 536 999 q 420 828 536 897 m 1109 300 l 1059 290 q 1016 207 1027 286 l 1016 208 q 1008 73 1008 151 q 945 -13 1001 -13 q 888 13 911 -13 q 865 74 865 38 q 882 178 865 88 q 905 267 899 267 q 844 259 886 267 q 792 245 802 250 q 772 226 791 245 q 718 203 749 203 q 666 223 686 203 q 645 273 645 243 q 770 459 645 296 q 941 622 895 622 q 947 626 943 622 l 966 667 q 1044 707 985 707 q 1082 689 1061 707 q 1102 656 1102 671 q 1065 568 1102 633 q 1067 532 1067 555 q 1062 471 1067 514 q 1055 406 1055 422 q 1111 419 1082 419 q 1146 398 1132 419 q 1161 353 1161 376 q 1109 300 1161 310 m 954 479 q 868 376 895 416 q 915 386 896 384 q 935 389 934 387 l 954 479 z "},"":{"ha":1010,"x_min":37,"x_max":966,"o":"m 822 701 q 854 518 854 642 q 779 272 854 389 q 836 181 814 195 l 836 181 q 862 165 848 172 q 911 105 911 138 q 918 86 914 96 q 922 65 922 76 q 862 -12 911 10 q 679 129 790 -7 q 634 170 652 164 q 608 163 624 166 q 570 155 592 161 q 488 142 509 142 q 345 176 418 142 q 227 96 313 169 q 148 32 165 43 q 112 20 130 20 q 61 49 85 20 q 37 104 37 78 q 69 152 37 128 q 84 165 77 158 q 159 219 89 170 q 223 275 223 264 l 223 286 q 224 292 223 289 q 176 505 176 384 q 231 688 176 620 q 149 814 204 774 q 93 884 93 854 q 123 930 93 909 q 180 952 154 952 q 241 923 214 952 q 300 839 269 894 q 340 781 318 808 q 428 828 397 818 q 532 838 458 838 q 703 798 602 838 q 765 866 713 807 q 889 966 842 966 q 940 944 913 966 q 966 901 966 921 q 901 801 966 871 q 822 701 833 728 m 492 707 q 391 628 437 707 q 344 477 344 549 q 350 425 344 458 q 362 371 355 392 q 427 321 370 351 q 501 291 484 291 q 638 350 593 291 q 684 543 684 410 q 669 645 684 619 q 600 689 654 671 q 492 707 546 707 z "},"":{"ha":888,"x_min":134,"x_max":765,"o":"m 351 463 q 575 471 507 463 q 635 475 604 475 q 699 458 651 475 q 755 423 746 441 q 765 389 765 404 q 686 326 765 326 q 619 340 677 326 q 603 342 608 342 l 541 338 q 437 345 527 338 q 269 340 410 347 q 161 349 189 336 q 134 396 134 361 q 183 451 134 433 q 301 470 232 470 q 351 463 317 470 z "},"":{"ha":576,"x_min":-43,"x_max":618,"o":"m 577 1187 q 507 1193 561 1187 q 435 1198 452 1198 q 273 1190 397 1198 q 111 1181 149 1181 q 54 1184 99 1181 q -2 1187 9 1187 q -43 1232 -43 1187 q -32 1260 -43 1248 q -2 1272 -20 1272 l 102 1278 q 171 1276 127 1278 q 254 1273 214 1273 q 345 1279 285 1273 q 438 1284 406 1284 q 507 1278 449 1284 q 577 1272 565 1272 q 618 1221 618 1272 q 610 1194 618 1201 q 577 1187 602 1187 z "},"":{"ha":353,"x_min":72,"x_max":288,"o":"m 269 376 q 184 355 249 355 q 115 382 158 355 q 72 433 72 409 q 95 490 72 452 q 137 537 117 528 q 211 547 157 547 q 268 499 249 547 q 288 424 288 451 q 269 376 288 406 z "},"":{"ha":1112,"x_min":74,"x_max":1110,"o":"m 680 201 q 334 7 505 7 q 241 43 275 7 q 224 -145 224 -52 q 234 -246 224 -184 q 244 -332 244 -309 q 219 -361 244 -349 q 161 -374 194 -374 q 98 -328 122 -374 q 74 -210 74 -282 q 157 294 74 -54 q 205 580 205 491 q 231 625 205 606 q 290 644 257 644 q 348 623 327 644 q 370 564 370 601 q 351 481 370 548 q 297 212 297 291 q 314 168 297 189 q 355 146 331 146 q 458 171 408 146 q 568 248 507 196 q 650 340 629 300 q 674 401 671 380 q 677 493 677 421 q 681 576 677 557 q 708 616 685 595 q 758 637 732 637 q 826 609 801 637 q 851 544 851 580 q 834 441 851 525 q 817 331 817 358 q 840 220 817 264 q 905 175 863 175 q 1044 198 956 175 q 1063 202 1060 202 q 1097 190 1083 202 q 1110 165 1110 178 q 1020 78 1110 120 q 861 36 930 36 q 680 201 714 36 z "},"":{"ha":1084,"x_min":14,"x_max":1082,"o":"m 642 543 q 429 486 446 498 q 396 325 412 474 q 375 96 380 175 q 349 8 372 32 q 277 -16 326 -16 q 208 70 208 -16 q 233 264 208 127 q 266 462 249 349 q 191 454 233 459 q 110 449 148 449 q 14 524 14 449 q 37 572 14 551 q 85 593 60 592 q 591 658 344 604 q 907 715 849 715 q 1005 651 1005 715 q 979 597 1005 621 q 934 573 952 573 l 913 573 q 803 569 810 573 q 766 431 796 565 q 735 239 735 296 q 808 153 735 153 q 990 210 873 153 q 1048 229 1031 229 q 1082 193 1082 229 q 983 90 1082 152 q 777 28 884 28 q 635 76 688 28 q 582 212 582 124 q 642 543 582 323 z "},"":{"ha":1375,"x_min":29,"x_max":1371,"o":"m 1369 108 q 1229 42 1365 42 l 1111 45 q 922 28 950 45 q 827 -8 857 -8 q 768 17 793 -8 q 744 68 744 42 q 789 149 744 113 q 981 354 895 222 q 1066 648 1066 487 q 985 834 1066 781 q 795 888 903 888 q 582 809 682 888 q 427 578 483 731 l 427 578 q 406 455 406 513 q 449 267 406 340 q 549 165 492 193 q 591 128 573 153 q 609 85 609 104 q 584 32 609 59 q 528 5 558 5 q 485 12 515 5 q 339 3 456 18 q 177 -23 222 -12 q 134 -30 147 -30 q 62 -10 94 -30 q 29 47 29 10 q 65 114 29 87 q 216 140 102 140 q 359 145 325 140 q 267 298 293 229 q 241 466 241 368 q 290 673 241 550 q 481 913 338 796 q 818 1031 624 1031 q 1111 924 997 1031 q 1232 673 1225 817 l 1233 657 q 1067 241 1242 444 q 1025 189 1028 195 q 1257 207 1221 207 q 1343 190 1316 207 q 1371 130 1371 173 l 1369 108 z "},"":{"ha":808,"x_min":-9,"x_max":867,"o":"m 736 1076 l 735 1076 q 770 1090 747 1090 q 836 1067 804 1090 q 867 1025 867 1045 q 839 961 867 1002 q 764 857 810 920 q 625 663 687 755 q 203 91 318 205 q 157 26 194 81 q 72 -45 113 -45 q 19 -23 47 -45 q -9 21 -9 0 q 92 182 -9 58 q 98 189 95 185 q 211 324 121 226 q 545 798 292 418 l 736 1076 z "},"":{"ha":821,"x_min":-7,"x_max":884,"o":"m 288 205 q 283 109 283 134 q 284 36 283 86 q 268 -36 286 -14 q 211 -58 250 -58 q 138 -30 172 -58 q 104 45 104 -2 q 108 154 104 90 q -7 228 -7 154 q 30 291 -7 258 q 79 312 45 304 q 127 328 121 323 q 153 500 128 328 l 195 800 q 186 843 195 814 q 178 886 178 871 q 206 937 178 909 q 260 964 235 964 q 294 960 277 964 q 347 954 319 954 q 499 969 387 954 q 749 989 652 989 l 770 989 q 849 963 814 989 q 884 917 884 937 q 855 848 884 876 q 791 820 826 820 q 762 823 777 820 q 659 834 691 834 q 492 823 594 834 q 369 800 391 812 q 328 588 334 727 q 692 623 666 623 q 817 537 817 623 q 789 493 817 519 q 715 468 761 468 q 663 471 689 468 q 613 474 624 477 q 538 465 579 469 q 314 426 320 440 q 303 367 307 412 l 302 357 l 349 363 q 484 371 412 371 q 611 303 611 371 q 582 242 611 270 q 509 215 553 215 l 403 218 q 288 205 320 218 z "},"":{"ha":1075,"x_min":71,"x_max":1130,"o":"m 928 335 l 928 335 q 896 185 912 279 q 880 50 880 92 q 879 -58 880 -28 q 866 -107 878 -88 q 836 -137 854 -126 q 795 -147 818 -147 q 727 -121 758 -147 q 696 -61 696 -96 q 715 38 696 -50 q 743 172 732 116 q 336 3 515 3 q 143 74 214 3 q 71 267 71 144 q 188 640 71 461 l 188 639 q 481 932 312 825 q 819 1039 650 1039 q 958 1007 907 1039 q 1008 925 1008 975 q 974 833 1008 884 q 903 783 939 783 q 870 792 881 783 q 848 829 859 802 q 818 872 835 859 q 770 884 802 884 q 534 783 667 884 q 319 543 401 682 q 237 278 237 404 q 351 145 237 145 q 492 176 410 145 q 667 271 574 206 q 778 390 760 336 q 806 508 797 444 q 834 558 812 546 q 896 571 857 571 q 985 511 985 571 q 962 433 985 487 q 928 335 943 393 m 1031 1226 q 945 1181 1004 1205 q 839 1157 885 1157 q 729 1200 796 1157 q 628 1296 661 1243 q 594 1366 594 1349 q 611 1412 594 1385 q 665 1440 629 1440 q 710 1407 696 1440 q 755 1346 725 1375 q 771 1328 763 1338 q 848 1286 808 1286 q 1008 1363 951 1286 q 1082 1425 1058 1425 q 1116 1404 1102 1425 q 1130 1363 1130 1383 q 1098 1297 1130 1341 q 1031 1226 1065 1253 z "},"":{"ha":795,"x_min":-86,"x_max":861,"o":"m 541 208 q 365 68 465 123 q 193 14 265 14 q 81 56 121 14 q 41 172 41 98 q 121 406 41 277 q 342 630 201 534 q 597 725 484 725 q 705 691 659 725 q 724 677 715 683 q 754 635 740 666 q 768 585 768 604 q 742 503 768 573 q 705 362 715 431 q 663 22 694 294 q 531 -323 635 -214 q 299 -433 427 -433 q 40 -343 165 -433 q -86 -195 -86 -253 q -36 -143 -86 -143 q 44 -182 -16 -143 q 309 -284 199 -284 q 450 -179 393 -284 q 541 208 507 -73 m 557 585 q 425 525 507 585 q 275 363 344 465 q 205 194 205 261 q 231 159 205 159 q 405 230 319 159 q 544 393 491 300 q 597 532 597 485 q 585 570 597 556 q 557 585 573 585 m 762 899 q 675 853 735 878 q 570 829 616 829 q 459 872 527 829 q 358 968 392 916 q 325 1038 325 1021 q 342 1085 325 1057 q 396 1112 359 1112 q 441 1080 427 1112 q 486 1019 456 1047 q 502 1000 494 1010 q 578 959 538 959 q 739 1036 682 959 q 813 1097 789 1097 q 847 1076 833 1097 q 861 1036 861 1055 q 828 969 861 1013 q 762 899 796 926 z "},"":{"ha":884,"x_min":50,"x_max":816,"o":"m 236 -370 q 186 -305 186 -349 q 204 -266 186 -284 q 248 -248 223 -248 q 308 -274 267 -248 q 343 -283 321 -283 q 410 -265 378 -283 q 441 -218 441 -248 q 425 -192 441 -204 q 397 -180 410 -180 q 387 -183 394 -180 q 337 -197 351 -197 q 286 -140 286 -197 q 312 -71 294 -120 l 318 -52 q 172 -76 216 -76 q 79 -1 79 -76 q 113 71 79 39 q 459 144 304 71 q 615 277 615 217 q 458 359 615 317 q 147 496 244 414 q 50 697 50 578 q 214 897 50 806 q 547 988 378 988 q 744 946 673 988 q 816 846 816 904 q 796 764 816 808 q 682 720 776 720 q 675 795 682 776 q 641 830 669 815 q 569 845 613 845 q 312 791 414 845 q 211 689 211 736 q 253 613 211 656 q 344 555 294 570 q 404 535 348 555 q 471 513 453 517 q 702 416 625 472 q 780 278 780 359 q 702 134 780 213 q 456 -11 624 55 q 422 -97 429 -54 q 439 -100 428 -100 q 525 -125 497 -102 q 559 -166 552 -148 q 567 -254 567 -184 q 498 -350 567 -307 q 336 -393 430 -393 q 283 -380 332 -393 q 260 -375 271 -378 l 246 -372 q 238 -370 241 -371 l 236 -370 z "},"":{"ha":587,"x_min":-3,"x_max":563,"o":"m 284 -22 q 281 -32 283 -25 q 268 -79 271 -58 l 286 -75 q 333 -75 306 -74 q 385 -91 359 -76 q 423 -139 410 -106 q 436 -234 436 -172 q 407 -294 436 -258 q 342 -351 378 -329 l 343 -351 q 187 -394 277 -394 q 81 -373 106 -394 l 65 -361 q 21 -296 21 -329 q 44 -253 21 -275 q 92 -232 67 -232 q 173 -276 121 -232 q 188 -281 184 -281 q 297 -209 297 -281 q 279 -184 297 -195 q 244 -173 262 -173 q 236 -175 243 -173 q 182 -188 195 -188 q 119 -133 119 -188 l 156 -41 l 140 -41 q -3 50 -3 -47 q 28 100 -3 83 q 94 117 60 117 q 154 106 107 117 q 280 118 189 98 q 398 172 371 138 q 274 264 401 197 q 104 377 140 334 q 68 464 68 419 q 205 691 68 597 q 436 784 341 784 q 533 761 503 784 q 563 683 563 739 q 537 635 563 656 q 492 614 511 614 q 445 631 475 614 q 437 633 439 633 q 319 592 408 633 q 231 498 231 551 q 256 449 231 471 q 362 385 281 427 q 514 287 475 327 q 554 190 554 246 q 284 -22 554 47 z "},"":{"ha":968,"x_min":67,"x_max":1095,"o":"m 785 235 q 837 185 837 235 q 687 32 837 123 q 398 -60 538 -60 q 171 21 275 -60 q 67 256 67 102 q 176 606 67 414 q 445 918 284 798 q 758 1039 605 1039 q 903 985 848 1039 q 957 858 957 930 q 945 745 957 779 q 892 686 932 711 q 827 662 852 662 q 783 680 802 662 q 764 730 764 699 q 775 793 764 751 q 786 862 786 834 q 754 909 786 909 q 535 804 656 909 q 327 545 414 700 q 241 271 241 390 q 286 138 241 193 q 419 84 332 84 q 549 112 471 84 q 694 187 627 140 q 785 235 761 235 m 922 1236 l 922 1236 q 811 1155 907 1221 q 769 1125 776 1131 q 751 1120 764 1120 q 709 1136 724 1120 q 693 1177 693 1153 q 790 1291 693 1217 l 789 1291 q 837 1329 816 1312 q 987 1444 956 1424 q 1034 1465 1019 1465 q 1073 1432 1051 1465 q 1095 1381 1095 1398 q 1076 1344 1095 1367 q 1029 1308 1057 1321 q 922 1236 998 1294 z "},"":{"ha":701,"x_min":47,"x_max":754,"o":"m 276 -37 q 106 24 164 -37 q 47 193 47 85 q 186 563 47 364 q 459 762 326 762 q 569 697 524 762 q 614 564 614 633 q 590 476 614 499 q 544 454 566 454 q 467 545 478 454 q 434 611 459 611 q 294 460 381 611 q 208 197 208 310 q 307 105 208 105 q 527 182 416 105 q 610 220 579 220 q 647 182 647 220 q 527 46 647 130 q 276 -37 408 -37 m 581 927 l 581 927 q 470 846 566 911 q 428 816 435 821 q 410 810 422 810 q 368 827 383 810 q 352 868 352 844 q 449 982 352 908 l 448 982 q 496 1019 475 1002 q 646 1135 614 1115 q 692 1156 677 1156 q 732 1122 710 1156 q 754 1072 754 1089 q 735 1035 754 1057 q 688 998 716 1012 q 581 927 657 985 z "},"":{"ha":968,"x_min":67,"x_max":1054,"o":"m 785 235 q 837 185 837 235 q 687 32 837 123 q 398 -60 538 -60 q 171 21 275 -60 q 67 256 67 102 q 176 606 67 414 q 445 918 284 798 q 758 1039 605 1039 q 903 985 848 1039 q 957 858 957 930 q 945 745 957 779 q 892 686 932 711 q 827 662 852 662 q 783 680 802 662 q 764 730 764 699 q 775 793 764 751 q 786 862 786 834 q 754 909 786 909 q 535 804 656 909 q 327 545 414 700 q 241 271 241 390 q 286 138 241 193 q 419 84 332 84 q 549 112 471 84 q 694 187 627 140 q 785 235 761 235 m 941 1282 q 832 1150 867 1203 q 772 1129 818 1129 q 719 1155 743 1129 q 640 1272 694 1181 q 551 1397 606 1327 q 534 1440 534 1419 q 597 1501 534 1501 q 647 1490 627 1501 q 700 1428 667 1478 q 739 1364 732 1379 q 765 1323 743 1356 q 793 1286 787 1291 q 826 1325 802 1294 q 916 1419 858 1364 q 1001 1474 973 1474 q 1036 1454 1019 1474 q 1054 1418 1054 1435 q 968 1308 1054 1383 q 941 1282 942 1286 z "},"":{"ha":701,"x_min":47,"x_max":730,"o":"m 276 -37 q 106 24 164 -37 q 47 193 47 85 q 186 563 47 364 q 459 762 326 762 q 569 697 524 762 q 614 564 614 633 q 590 476 614 499 q 544 454 566 454 q 467 545 478 454 q 434 611 459 611 q 294 460 381 611 q 208 197 208 310 q 307 105 208 105 q 527 182 416 105 q 610 220 579 220 q 647 182 647 220 q 527 46 647 130 q 276 -37 408 -37 m 617 967 q 509 836 544 888 q 448 814 494 814 q 395 840 420 814 q 317 957 370 866 q 228 1082 283 1013 q 210 1126 210 1105 q 273 1187 210 1187 q 324 1175 304 1187 q 376 1114 344 1163 q 415 1050 408 1064 q 442 1008 420 1041 q 470 972 464 976 q 503 1010 478 979 q 592 1104 534 1050 q 677 1159 650 1159 q 713 1140 695 1159 q 730 1103 730 1120 q 645 994 730 1069 q 617 967 618 972 z "},"":{"ha":1077,"x_min":-14,"x_max":1062,"o":"m 273 219 q 202 93 262 191 q 120 -15 143 -4 q 79 -26 97 -26 q 21 0 55 -26 q -14 56 -14 27 q 157 341 -14 82 q 326 622 250 483 q 514 948 480 903 q 585 994 549 994 q 668 964 642 994 q 681 919 681 955 q 676 876 681 892 q 870 341 800 498 q 1011 113 941 184 q 1054 66 1046 78 q 1062 33 1062 54 q 1035 -30 1062 -4 q 970 -55 1008 -55 q 866 5 919 -55 q 765 169 812 64 q 718 286 718 273 q 715 289 718 289 q 552 263 678 289 q 349 213 425 237 q 314 207 329 207 q 273 219 288 207 m 664 427 q 568 711 648 467 q 557 740 560 734 l 365 374 q 452 387 408 381 q 604 416 482 391 q 664 427 634 422 m 829 1190 q 821 1162 829 1175 q 799 1140 813 1149 q 765 1125 785 1131 q 722 1120 745 1120 l 591 1120 q 569 1119 581 1120 q 534 1110 556 1118 q 496 1101 513 1103 q 468 1098 479 1098 q 439 1104 452 1098 q 415 1120 425 1110 q 400 1143 406 1130 q 395 1168 395 1156 q 412 1209 395 1196 q 461 1230 430 1223 q 495 1238 477 1234 q 534 1243 513 1241 q 581 1246 555 1245 q 640 1248 607 1247 q 688 1249 671 1249 q 713 1250 706 1249 q 725 1252 720 1251 q 736 1253 730 1253 q 747 1254 741 1254 q 762 1254 753 1254 q 811 1236 793 1254 q 829 1190 829 1218 z "},"":{"ha":812,"x_min":47,"x_max":763,"o":"m 541 227 q 196 -8 362 -8 q 91 40 135 -8 q 47 163 47 88 q 207 546 47 342 q 530 749 367 749 q 638 665 612 749 q 716 606 716 665 q 701 503 716 577 q 674 279 674 363 q 686 157 674 193 q 703 111 698 122 q 736 88 709 100 q 763 52 763 75 q 728 -5 763 18 q 655 -28 693 -28 q 541 227 528 -28 m 500 604 q 322 452 431 604 q 212 195 212 300 q 235 139 212 139 q 432 281 315 139 q 549 530 549 423 q 534 584 549 564 q 500 604 519 604 m 753 920 q 745 892 753 905 q 723 870 737 880 q 689 856 709 861 q 646 850 669 850 l 515 850 q 493 849 505 850 q 458 841 480 848 q 420 831 437 834 q 392 829 403 829 q 363 835 376 829 q 339 851 349 841 q 324 873 330 861 q 319 899 319 886 q 336 940 319 926 q 385 960 354 954 q 419 968 401 965 q 458 974 437 972 q 505 977 479 976 q 564 979 531 978 q 612 980 595 979 q 637 981 630 980 q 649 983 644 982 q 660 984 654 983 q 671 985 665 985 q 686 985 677 985 q 735 967 718 985 q 753 920 753 949 z "},"":{"ha":1077,"x_min":-14,"x_max":1062,"o":"m 273 219 q 202 93 262 191 q 120 -15 143 -4 q 79 -26 97 -26 q 21 0 55 -26 q -14 56 -14 27 q 157 341 -14 82 q 326 622 250 483 q 514 948 480 903 q 585 994 549 994 q 668 964 642 994 q 681 919 681 955 q 676 876 681 892 q 870 341 800 498 q 1011 113 941 184 q 1054 66 1046 78 q 1062 33 1062 54 q 1035 -30 1062 -4 q 970 -55 1008 -55 q 866 5 919 -55 q 765 169 812 64 q 718 286 718 273 q 715 289 718 289 q 552 263 678 289 q 349 213 425 237 q 314 207 329 207 q 273 219 288 207 m 664 427 q 568 711 648 467 q 557 740 560 734 l 365 374 q 452 387 408 381 q 604 416 482 391 q 664 427 634 422 m 791 1158 q 705 1113 764 1137 q 599 1089 645 1089 q 489 1132 556 1089 q 388 1228 421 1175 q 354 1298 354 1281 q 371 1344 354 1317 q 425 1372 389 1372 q 470 1339 456 1372 q 515 1278 485 1307 q 531 1260 523 1270 q 608 1219 568 1219 q 768 1295 711 1219 q 842 1357 818 1357 q 876 1336 862 1357 q 890 1295 890 1315 q 858 1229 890 1273 q 791 1158 825 1185 z "},"":{"ha":812,"x_min":47,"x_max":800,"o":"m 541 227 q 196 -8 362 -8 q 91 40 135 -8 q 47 163 47 88 q 207 546 47 342 q 530 749 367 749 q 638 665 612 749 q 716 606 716 665 q 701 503 716 577 q 674 279 674 363 q 686 157 674 193 q 703 111 698 122 q 736 88 709 100 q 763 52 763 75 q 728 -5 763 18 q 655 -28 693 -28 q 541 227 528 -28 m 500 604 q 322 452 431 604 q 212 195 212 300 q 235 139 212 139 q 432 281 315 139 q 549 530 549 423 q 534 584 549 564 q 500 604 519 604 m 701 886 q 614 841 674 865 q 509 817 555 817 q 398 860 466 817 q 297 956 331 903 q 264 1025 264 1008 q 281 1072 264 1044 q 335 1099 298 1099 q 380 1067 366 1099 q 425 1006 395 1034 q 441 987 433 998 q 517 946 477 946 q 677 1023 621 946 q 752 1084 728 1084 q 786 1063 772 1084 q 800 1023 800 1042 q 767 957 800 1000 q 701 886 735 913 z "},"":{"ha":1077,"x_min":-12,"x_max":1074,"o":"m 1072 -283 q 917 -361 1059 -361 q 776 -316 818 -361 q 734 -218 734 -271 q 880 -7 734 -110 q 808 97 845 34 q 758 193 771 160 q 737 237 747 216 l 738 237 q 710 307 710 296 q 609 297 710 314 q 446 263 508 281 q 418 255 431 258 l 404 251 q 328 233 347 233 q 287 245 302 233 q 263 203 285 239 q 224 137 235 157 q 142 5 171 37 q 81 -26 113 -26 q 22 0 56 -26 q -12 56 -12 27 q 60 189 -12 87 q 366 697 281 518 l 378 718 q 503 932 456 871 q 586 994 550 994 q 665 966 642 994 q 682 919 682 955 q 677 876 682 890 q 725 731 703 783 l 823 458 q 880 323 842 402 q 949 194 917 245 q 1012 114 981 144 q 1054 67 1045 81 q 1063 33 1063 53 l 1063 24 q 1046 -19 1063 3 q 1018 -47 1030 -41 l 1005 -55 q 980 -68 998 -60 q 909 -134 939 -92 q 880 -207 880 -175 q 891 -231 880 -225 q 933 -237 902 -237 q 993 -227 962 -237 q 1031 -218 1017 -218 q 1074 -258 1074 -218 q 1072 -283 1074 -272 l 1072 -283 m 656 448 l 558 740 l 378 400 l 420 405 q 597 437 437 405 q 656 448 627 444 z "},"":{"ha":812,"x_min":47,"x_max":766,"o":"m 763 -272 q 615 -350 745 -350 q 481 -310 535 -350 q 427 -205 427 -269 q 576 7 427 -106 q 516 189 528 77 q 197 -8 348 -8 q 92 40 136 -8 q 47 163 47 88 q 208 546 47 344 q 530 749 369 749 q 611 713 583 749 q 639 666 639 677 q 717 606 717 661 q 702 503 717 585 q 675 279 675 363 q 688 166 675 214 q 722 108 701 119 q 766 45 766 83 q 750 -5 766 14 q 690 -46 733 -24 q 607 -116 642 -69 q 571 -195 571 -163 q 578 -214 571 -208 q 615 -226 585 -220 q 677 -216 649 -226 q 723 -206 706 -206 q 766 -246 766 -206 q 763 -271 766 -259 l 763 -272 m 431 296 l 431 296 q 536 530 536 430 q 500 604 536 604 q 322 452 432 604 q 213 195 213 300 q 237 139 213 139 q 431 296 303 139 z "},"":{"ha":1101,"x_min":100,"x_max":1057,"o":"m 130 109 q 141 229 137 142 q 199 722 157 465 q 210 805 210 777 q 199 820 210 817 q 127 883 127 838 q 157 944 127 916 q 220 973 186 973 l 311 970 q 483 979 374 970 q 634 987 576 987 q 940 881 823 987 q 1057 600 1057 775 q 877 247 1057 405 q 440 32 696 90 q 345 6 372 17 q 279 -28 317 -5 q 189 -60 233 -60 q 127 -27 154 -60 q 100 27 100 6 q 114 68 100 41 l 130 109 m 307 143 q 512 196 342 143 q 788 357 682 248 q 894 606 894 467 q 815 784 894 718 q 610 850 737 850 q 401 834 524 850 q 376 831 386 832 q 302 192 302 378 q 307 143 302 157 m 835 1223 q 726 1091 762 1144 q 666 1070 712 1070 q 613 1096 637 1070 q 534 1213 588 1122 q 446 1338 500 1268 q 428 1381 428 1360 q 491 1442 428 1442 q 542 1431 522 1442 q 594 1369 562 1419 q 633 1305 626 1320 q 660 1264 637 1297 q 688 1227 682 1232 q 720 1266 696 1235 q 810 1360 752 1305 q 895 1415 867 1415 q 930 1395 913 1415 q 948 1359 948 1376 q 863 1249 948 1324 q 835 1223 836 1227 z "},"":{"ha":1129,"x_min":42,"x_max":1228,"o":"m 555 227 q 202 -22 380 -22 q 86 34 130 -22 q 42 178 42 91 q 187 530 42 355 q 480 705 332 705 q 602 661 566 705 q 662 939 652 883 q 696 1076 682 1042 q 737 1128 709 1109 q 785 1147 765 1147 q 838 1118 820 1147 q 857 1046 857 1090 q 827 937 857 1027 q 736 583 778 791 q 694 253 694 376 q 746 136 694 136 q 802 150 772 136 q 844 163 832 163 q 878 125 878 163 q 810 32 878 78 q 682 -15 743 -15 q 582 55 617 -15 q 555 227 547 125 m 480 574 q 295 439 391 574 q 198 191 198 303 q 247 125 198 125 q 444 272 330 125 q 559 505 559 419 q 537 552 559 530 q 480 574 515 574 m 890 828 q 980 862 922 833 q 1054 933 1038 890 q 1069 979 1069 977 q 1056 1057 1069 1038 q 1043 1093 1043 1077 q 1058 1135 1043 1112 q 1095 1158 1073 1158 q 1156 1143 1118 1158 q 1199 1115 1194 1127 q 1217 1063 1205 1103 q 1228 992 1228 1023 q 1200 915 1228 979 q 1126 817 1172 850 q 1036 776 1081 784 q 1023 773 1027 774 q 920 745 946 745 q 875 795 875 745 q 890 828 875 812 z "},"":{"ha":1101,"x_min":32,"x_max":1056,"o":"m 154 397 q 134 391 141 393 q 61 411 90 391 q 32 465 32 430 q 48 503 32 479 q 78 537 64 526 q 174 567 92 548 l 201 744 q 209 805 209 789 q 199 819 209 817 q 126 883 126 839 q 156 944 126 916 q 218 973 185 973 l 309 970 q 481 980 363 970 q 633 987 566 987 q 939 881 822 987 q 1056 600 1056 775 q 877 248 1056 404 q 439 32 697 91 q 343 6 371 17 q 278 -28 315 -5 q 187 -60 232 -60 q 125 -27 153 -60 q 98 27 98 6 q 113 68 98 44 q 140 229 134 105 q 154 397 142 298 m 305 143 q 512 196 341 143 q 787 358 682 249 q 892 606 892 467 q 814 784 892 718 q 609 850 736 850 q 411 836 503 850 q 375 831 405 834 q 339 595 353 701 q 507 606 425 606 q 635 590 602 606 q 669 530 669 574 q 640 469 669 495 q 555 452 611 444 l 556 452 q 418 458 497 458 q 319 446 395 458 q 301 192 301 269 q 305 143 301 157 z "},"":{"ha":947,"x_min":93,"x_max":931,"o":"m 867 841 l 658 830 q 470 811 549 824 q 385 790 391 798 q 376 749 378 783 q 351 629 372 715 q 331 523 334 564 q 456 532 374 523 q 571 549 537 541 q 722 572 669 572 q 829 509 829 572 q 800 444 829 462 q 706 419 770 426 q 618 407 667 415 q 553 399 592 403 q 332 365 366 377 l 331 365 q 314 349 319 361 q 293 249 308 337 q 278 125 278 160 q 309 100 281 100 q 480 118 342 100 q 652 142 619 136 q 774 162 745 162 q 860 82 860 150 q 840 35 860 51 q 652 -3 772 4 q 427 -26 559 -9 q 204 -52 309 -52 q 125 -28 149 -52 q 96 45 100 -5 l 94 67 q 105 109 93 73 q 172 479 132 192 q 211 800 211 767 q 207 805 211 800 q 191 831 202 809 q 180 876 180 853 q 182 896 180 888 q 212 924 185 910 q 261 939 238 939 q 326 935 293 939 q 692 975 382 935 q 800 989 795 989 l 809 989 q 931 911 931 998 q 909 870 931 895 q 867 841 887 846 m 823 1192 q 815 1164 823 1177 q 793 1142 807 1151 q 759 1127 779 1133 q 716 1122 739 1122 l 585 1122 q 563 1121 575 1122 q 528 1112 550 1120 q 490 1103 507 1105 q 462 1100 473 1100 q 433 1106 446 1100 q 409 1122 419 1112 q 394 1145 399 1132 q 389 1171 389 1158 q 406 1211 389 1198 q 455 1232 424 1225 q 489 1240 471 1236 q 528 1245 507 1243 q 575 1248 549 1247 q 634 1250 601 1249 q 682 1251 665 1251 q 707 1252 700 1251 q 719 1254 714 1253 q 730 1255 724 1255 q 741 1256 735 1256 q 755 1256 747 1256 q 805 1238 787 1256 q 823 1192 823 1220 z "},"":{"ha":720,"x_min":50,"x_max":683,"o":"m 683 233 q 564 65 683 163 q 296 -33 446 -33 q 116 39 182 -33 q 50 240 50 111 q 184 596 50 430 q 471 762 319 762 q 593 714 547 762 q 640 600 640 666 q 526 375 640 481 q 236 227 413 268 q 216 203 216 222 q 244 141 216 170 q 321 111 273 111 q 592 252 458 111 q 642 279 618 279 q 683 233 683 279 m 228 353 q 417 445 335 375 q 498 572 498 515 q 486 609 498 594 q 454 625 473 625 q 323 538 395 625 q 228 353 251 451 m 636 936 q 628 908 636 921 q 606 886 620 895 q 572 871 591 877 q 529 866 552 866 l 398 866 q 375 865 388 866 q 341 857 363 864 q 303 847 320 850 q 275 844 286 844 q 245 850 259 844 q 222 866 232 857 q 207 889 212 876 q 201 915 201 902 q 219 956 201 942 q 268 976 237 969 q 302 984 284 981 q 340 989 319 987 q 388 992 361 991 q 447 994 414 994 q 495 995 477 995 q 520 996 513 996 q 532 998 527 998 q 543 1000 537 999 q 554 1000 548 1000 q 568 1000 560 1000 q 618 982 600 1000 q 636 936 636 964 z "},"":{"ha":947,"x_min":93,"x_max":931,"o":"m 867 841 l 658 830 q 470 811 549 824 q 385 790 391 798 q 376 749 378 783 q 351 629 372 715 q 331 523 334 564 q 456 532 374 523 q 571 549 537 541 q 722 572 669 572 q 829 509 829 572 q 800 444 829 462 q 706 419 770 426 q 618 407 667 415 q 553 399 592 403 q 332 365 366 377 l 331 365 q 314 349 319 361 q 293 249 308 337 q 278 125 278 160 q 309 100 281 100 q 480 118 342 100 q 652 142 619 136 q 774 162 745 162 q 860 82 860 150 q 840 35 860 51 q 652 -3 772 4 q 427 -26 559 -9 q 204 -52 309 -52 q 125 -28 149 -52 q 96 45 100 -5 l 94 67 q 105 109 93 73 q 172 479 132 192 q 211 800 211 767 q 207 805 211 800 q 191 831 202 809 q 180 876 180 853 q 182 896 180 888 q 212 924 185 910 q 261 939 238 939 q 326 935 293 939 q 692 975 382 935 q 800 989 795 989 l 809 989 q 931 911 931 998 q 909 870 931 895 q 867 841 887 846 m 603 1092 q 535 1116 566 1092 q 505 1168 505 1140 q 536 1242 505 1200 q 597 1284 568 1284 q 679 1257 649 1284 q 709 1187 709 1230 q 677 1122 709 1152 q 603 1092 646 1092 z "},"":{"ha":720,"x_min":50,"x_max":683,"o":"m 683 233 q 564 65 683 163 q 296 -33 446 -33 q 116 39 182 -33 q 50 240 50 111 q 184 596 50 430 q 471 762 319 762 q 593 714 547 762 q 640 600 640 666 q 526 375 640 481 q 236 227 413 268 q 216 203 216 222 q 244 141 216 170 q 321 111 273 111 q 592 252 458 111 q 642 279 618 279 q 683 233 683 279 m 228 353 q 417 445 335 375 q 498 572 498 515 q 486 609 498 594 q 454 625 473 625 q 323 538 395 625 q 228 353 251 451 m 417 843 q 349 867 380 843 q 319 919 319 891 q 350 993 319 951 q 412 1035 382 1035 q 493 1008 463 1035 q 523 938 523 981 q 491 873 523 903 q 417 843 460 843 z "},"":{"ha":947,"x_min":94,"x_max":944,"o":"m 932 910 q 851 839 932 839 q 820 840 841 839 q 787 839 800 842 q 764 834 775 836 q 740 829 751 832 q 614 813 707 822 q 474 808 544 813 q 392 794 404 804 q 376 748 380 785 q 351 629 373 718 q 332 523 334 562 q 457 533 376 523 q 572 551 538 543 q 722 575 669 575 q 830 511 830 575 q 751 425 830 443 q 650 411 741 420 q 618 407 631 409 q 553 399 592 403 q 320 360 332 374 q 293 250 308 346 q 279 121 279 153 q 307 100 281 100 q 652 146 427 100 q 774 165 745 165 q 860 82 860 154 q 831 26 860 52 q 737 -144 737 -58 q 759 -176 737 -176 q 854 -143 822 -176 q 903 -125 878 -125 q 932 -143 920 -125 q 944 -182 944 -161 q 885 -270 944 -242 q 734 -298 825 -298 q 633 -257 671 -298 q 595 -155 595 -217 q 672 -4 595 -83 l 663 -5 q 339 -40 471 -20 q 241 -48 290 -48 q 156 -42 187 -48 q 109 -7 124 -36 q 94 67 94 22 q 97 83 94 74 q 134 235 119 146 q 182 553 149 323 q 188 588 186 581 q 211 800 211 722 q 207 807 210 803 q 200 819 204 811 q 189 841 196 827 q 180 879 180 863 q 207 922 180 905 q 261 939 234 939 q 326 935 295 939 q 498 951 347 935 q 770 989 650 967 q 799 994 790 993 l 810 994 q 898 979 869 998 q 932 918 927 960 l 932 910 z "},"":{"ha":720,"x_min":52,"x_max":684,"o":"m 522 40 q 515 34 519 37 q 506 26 510 30 l 497 18 q 445 -51 467 -7 q 423 -134 423 -95 q 445 -167 423 -167 q 518 -140 475 -167 q 589 -113 561 -113 q 619 -131 608 -113 q 630 -170 630 -149 q 555 -267 630 -239 l 555 -267 q 420 -288 496 -288 q 317 -253 353 -288 q 281 -159 281 -218 q 330 -33 281 -99 l 297 -33 q 117 33 182 -33 q 52 220 52 98 q 182 583 52 404 q 479 762 313 762 q 578 725 540 762 q 616 634 616 688 q 534 454 616 542 l 534 454 q 241 245 448 356 q 220 216 220 233 q 245 144 220 172 q 318 117 271 117 q 586 266 443 117 q 636 293 612 293 q 684 240 684 293 q 638 143 684 199 q 522 40 593 87 m 246 391 q 455 606 455 528 q 446 625 455 625 q 340 557 399 625 q 246 391 280 489 z "},"":{"ha":947,"x_min":93,"x_max":931,"o":"m 867 841 l 658 830 q 470 811 549 824 q 385 790 391 798 q 376 749 378 783 q 351 629 372 715 q 331 523 334 564 q 456 532 374 523 q 571 549 537 541 q 722 572 669 572 q 829 509 829 572 q 800 444 829 462 q 706 419 770 426 q 618 407 667 415 q 553 399 592 403 q 332 365 366 377 l 331 365 q 314 349 319 361 q 293 249 308 337 q 278 125 278 160 q 309 100 281 100 q 480 118 342 100 q 652 142 619 136 q 774 162 745 162 q 860 82 860 150 q 840 35 860 51 q 652 -3 772 4 q 427 -26 559 -9 q 204 -52 309 -52 q 125 -28 149 -52 q 96 45 100 -5 l 94 67 q 105 109 93 73 q 172 479 132 192 q 211 800 211 767 q 207 805 211 800 q 191 831 202 809 q 180 876 180 853 q 182 896 180 888 q 212 924 185 910 q 261 939 238 939 q 326 935 293 939 q 692 975 382 935 q 800 989 795 989 l 809 989 q 931 911 931 998 q 909 870 931 895 q 867 841 887 846 m 791 1225 q 683 1093 718 1146 q 623 1072 669 1072 q 569 1098 594 1072 q 491 1215 545 1124 q 402 1340 457 1270 q 385 1383 385 1362 q 448 1444 385 1444 q 498 1433 478 1444 q 550 1371 518 1421 q 589 1308 583 1322 q 616 1266 594 1299 q 644 1230 638 1234 q 677 1268 652 1237 q 766 1362 709 1308 q 852 1417 824 1417 q 887 1397 869 1417 q 905 1361 905 1378 q 819 1251 905 1326 q 791 1225 793 1230 z "},"":{"ha":1075,"x_min":72,"x_max":1009,"o":"m 928 335 l 929 335 q 897 185 913 279 q 880 50 880 92 q 879 -58 880 -28 q 867 -107 878 -88 q 837 -137 855 -126 q 795 -147 819 -147 q 728 -121 759 -147 q 697 -61 697 -96 q 716 38 697 -50 q 743 172 733 116 q 336 3 516 3 q 143 74 215 3 q 72 267 72 144 q 189 640 72 461 l 189 639 q 482 932 313 825 q 820 1039 651 1039 q 958 1007 907 1039 q 1009 925 1009 975 q 974 833 1009 884 q 904 783 939 783 q 871 792 882 783 q 848 829 860 802 q 819 872 836 859 q 770 884 802 884 q 535 783 667 884 q 320 543 402 682 q 237 278 237 404 q 351 145 237 145 q 492 176 410 145 q 667 271 574 206 q 779 390 760 336 q 807 508 798 444 q 835 558 812 546 q 897 571 858 571 q 985 511 985 571 q 962 433 985 487 q 928 335 944 393 m 231 -359 q 320 -326 262 -354 q 394 -254 378 -298 q 410 -208 410 -210 q 396 -130 410 -150 q 383 -95 383 -111 q 398 -53 383 -76 q 435 -29 413 -29 q 496 -45 458 -29 q 539 -72 534 -60 q 557 -124 545 -84 q 568 -195 568 -165 q 540 -273 568 -208 q 467 -370 512 -337 q 376 -412 421 -404 q 363 -414 368 -413 q 260 -442 286 -442 q 215 -393 215 -442 q 231 -359 215 -375 z "},"":{"ha":795,"x_min":-73,"x_max":781,"o":"m 735 1100 q 731 1097 734 1099 q 726 1095 728 1096 q 712 1085 720 1089 q 698 1073 703 1080 q 650 1039 687 1061 q 635 1029 635 1031 q 612 959 612 1004 q 627 918 612 945 q 650 863 650 880 q 633 821 650 846 q 590 795 616 795 q 488 878 533 795 l 486 880 q 463 951 463 916 q 522 1092 463 1010 q 641 1194 582 1174 q 650 1199 646 1196 q 702 1217 671 1217 q 749 1188 724 1217 q 774 1145 774 1158 q 735 1100 774 1120 m 554 227 q 379 88 479 142 q 206 33 279 33 q 95 75 134 33 q 55 191 55 117 q 135 425 55 296 q 356 649 214 554 q 610 745 497 745 q 718 711 673 745 q 737 697 729 703 q 767 655 753 686 q 781 605 781 624 q 755 523 781 593 q 719 382 729 450 q 677 42 708 314 q 545 -304 649 -195 q 313 -413 440 -413 q 53 -323 179 -413 q -73 -175 -73 -233 q -22 -123 -73 -123 q 58 -163 -3 -123 q 323 -264 212 -264 q 464 -159 407 -264 q 554 227 521 -54 m 570 604 q 439 544 520 604 q 288 382 357 484 q 219 214 219 281 q 245 178 219 178 q 418 249 332 178 q 558 412 505 320 q 611 552 611 505 q 599 590 611 576 q 570 604 587 604 z "},"":{"ha":437,"x_min":109,"x_max":545,"o":"m 335 673 q 316 574 320 611 q 302 473 316 555 q 280 275 280 328 q 291 99 280 186 q 265 7 299 36 q 197 -22 231 -22 q 129 20 149 -22 q 109 165 109 62 q 140 469 109 229 l 178 734 q 195 842 189 792 q 215 933 203 916 q 257 970 227 951 q 303 989 288 989 q 363 958 342 989 q 384 880 384 926 l 335 673 m 545 1225 q 536 1198 545 1211 q 514 1176 528 1185 q 480 1161 500 1166 q 437 1156 460 1156 l 307 1156 q 284 1155 296 1156 q 250 1146 271 1154 q 211 1137 229 1139 q 183 1134 194 1134 q 154 1140 168 1134 q 131 1156 140 1146 q 115 1179 121 1166 q 110 1204 110 1192 q 127 1245 110 1232 q 176 1265 145 1259 q 210 1274 193 1270 q 249 1279 228 1277 q 296 1282 270 1281 q 355 1284 322 1283 q 404 1285 386 1284 q 429 1286 421 1285 q 440 1288 435 1287 q 451 1289 446 1289 q 463 1290 456 1290 q 477 1290 469 1290 q 527 1272 509 1290 q 545 1225 545 1254 z "},"":{"ha":399,"x_min":52,"x_max":486,"o":"m 124 450 l 124 450 q 146 591 146 573 q 168 675 146 641 q 229 709 190 709 q 301 687 275 709 q 327 638 327 665 q 302 526 327 611 l 298 511 q 253 298 260 380 q 245 164 245 215 q 260 54 245 123 q 262 33 262 41 q 232 -9 262 18 q 169 -35 203 -35 q 79 100 79 -35 q 112 381 79 216 q 124 450 119 418 m 486 886 q 478 859 486 871 q 456 837 470 846 q 422 822 441 827 q 379 817 402 817 l 248 817 q 225 815 238 817 q 191 807 213 814 q 153 798 170 800 q 125 795 136 795 q 96 801 109 795 q 72 817 82 807 q 57 840 62 827 q 52 865 52 852 q 69 906 52 892 q 118 926 87 920 q 152 935 134 931 q 191 940 170 938 q 238 943 212 942 q 297 945 264 944 q 345 946 328 945 q 370 947 363 946 q 382 949 377 948 q 393 950 387 949 q 404 951 398 951 q 418 951 410 951 q 468 933 450 951 q 486 886 486 915 z "},"":{"ha":437,"x_min":-55,"x_max":382,"o":"m 282 -250 q 134 -328 264 -328 q -12 -282 32 -328 q -55 -182 -55 -235 q 115 44 -55 -72 q 106 165 106 92 q 139 465 106 253 q 142 494 142 484 q 175 733 154 624 q 193 844 187 796 q 213 935 200 918 q 255 971 226 952 q 301 989 285 989 q 361 958 340 989 q 382 880 382 926 q 361 789 382 871 q 313 574 318 624 l 313 575 q 300 473 307 522 q 277 275 277 328 q 288 99 277 186 q 276 21 295 47 q 211 -24 256 -5 q 125 -97 160 -52 q 90 -173 90 -141 q 145 -203 90 -203 l 153 -203 q 189 -197 170 -203 q 204 -193 194 -195 q 242 -184 229 -184 q 285 -224 285 -184 q 282 -249 285 -238 l 282 -250 z "},"":{"ha":399,"x_min":-80,"x_max":448,"o":"m 302 871 q 274 879 281 871 q 260 907 266 886 q 250 933 258 919 q 231 1014 231 981 q 270 1080 231 1046 q 356 1114 309 1114 q 415 1092 382 1114 q 448 1051 448 1071 q 430 970 448 1027 q 368 892 412 913 q 302 871 325 871 m 256 -272 q 109 -350 238 -350 q -39 -303 2 -350 q -80 -205 -80 -256 q 90 20 -80 -76 q 77 100 77 71 q 121 450 77 218 q 143 591 143 562 q 165 675 143 641 q 227 709 187 709 q 298 687 273 709 q 324 638 324 665 q 299 526 324 611 q 254 328 264 406 q 243 164 243 250 q 255 69 243 125 q 257 50 257 58 q 258 21 263 50 q 222 -23 254 -7 q 208 -33 216 -27 q 182 -46 199 -39 l 183 -46 q 99 -119 132 -74 q 65 -195 65 -163 q 109 -227 65 -227 q 163 -216 127 -227 q 216 -206 199 -206 q 260 -246 260 -206 q 256 -271 260 -259 l 256 -272 z "},"":{"ha":437,"x_min":109,"x_max":493,"o":"m 335 673 q 316 574 320 611 q 302 473 316 555 q 280 275 280 328 q 291 99 280 186 q 265 7 299 36 q 197 -22 231 -22 q 129 20 149 -22 q 109 165 109 62 q 140 469 109 229 l 178 734 q 195 842 189 792 q 215 933 203 916 q 257 970 227 951 q 303 989 288 989 q 363 958 342 989 q 384 880 384 926 l 335 673 m 387 1114 q 319 1138 350 1114 q 289 1190 289 1162 q 320 1264 289 1222 q 382 1306 352 1306 q 463 1279 433 1306 q 493 1209 493 1252 q 461 1144 493 1174 q 387 1114 430 1114 z "}}}
